<?xml version="1.0" encoding="UTF-8" standalone="no"?>
<svg width="28px" height="28px" viewBox="0 0 28 28" version="1.1" xmlns="http://www.w3.org/2000/svg" xmlns:xlink="http://www.w3.org/1999/xlink" xmlns:sketch="http://www.bohemiancoding.com/sketch/ns">
    <!-- Generator: Sketch 3.5.1 (25234) - http://www.bohemiancoding.com/sketch -->
    <title>building</title>
    <desc>Created with Sketch.</desc>
    <defs>
        <path id="path-1" d="M0,0 L28,0 L28,28 L0,28 L0,0 Z"></path>
    </defs>
    <g id="Page-1" stroke="none" stroke-width="1" fill="none" fill-rule="evenodd" sketch:type="MSPage">
        <g id="building" sketch:type="MSLayerGroup">
            <path d="M26.173913,28 C25.837913,28 25.5652174,27.7273043 25.5652174,27.3913043 L25.5652174,1.2173913 L14.6086957,1.2173913 L14.6086957,27.3913043 C14.6086957,27.7273043 14.336,28 14,28 C13.664,28 13.3913043,27.7273043 13.3913043,27.3913043 L13.3913043,0.608695652 C13.3913043,0.272695652 13.664,0 14,0 L26.173913,0 C26.509913,0 26.7826087,0.272695652 26.7826087,0.608695652 L26.7826087,27.3913043 C26.7826087,27.7273043 26.509913,28 26.173913,28" id="Fill-1" fill="#48C0EB" sketch:type="MSShapeGroup"></path>
            <path d="M23.1304348,28 C22.7944348,28 22.5217391,27.7273043 22.5217391,27.3913043 L22.5217391,23.1304348 L17.6521739,23.1304348 L17.6521739,27.3913043 C17.6521739,27.7273043 17.3794783,28 17.0434783,28 C16.7074783,28 16.4347826,27.7273043 16.4347826,27.3913043 L16.4347826,22.5217391 C16.4347826,22.1857391 16.7074783,21.9130435 17.0434783,21.9130435 L23.1304348,21.9130435 C23.4664348,21.9130435 23.7391304,22.1857391 23.7391304,22.5217391 L23.7391304,27.3913043 C23.7391304,27.7273043 23.4664348,28 23.1304348,28" id="Fill-3" fill="#48C0EB" sketch:type="MSShapeGroup"></path>
            <mask id="mask-2" sketch:name="Clip 6" fill="white">
                <use xlink:href="#path-1"></use>
            </mask>
            <g id="Clip-6"></g>
            <path d="M17.6521739,19.4782609 L22.5217391,19.4782609 L22.5217391,18.2608696 L17.6521739,18.2608696 L17.6521739,19.4782609 Z M23.1304348,20.6956522 L17.0434783,20.6956522 C16.7074783,20.6956522 16.4347826,20.4229565 16.4347826,20.0869565 L16.4347826,17.6521739 C16.4347826,17.3161739 16.7074783,17.0434783 17.0434783,17.0434783 L23.1304348,17.0434783 C23.4664348,17.0434783 23.7391304,17.3161739 23.7391304,17.6521739 L23.7391304,20.0869565 C23.7391304,20.4229565 23.4664348,20.6956522 23.1304348,20.6956522 L23.1304348,20.6956522 Z" id="Fill-5" fill="#48C0EB" sketch:type="MSShapeGroup" mask="url(#mask-2)"></path>
            <path d="M17.6521739,14.6086957 L22.5217391,14.6086957 L22.5217391,13.3913043 L17.6521739,13.3913043 L17.6521739,14.6086957 Z M23.1304348,15.826087 L17.0434783,15.826087 C16.7074783,15.826087 16.4347826,15.5533913 16.4347826,15.2173913 L16.4347826,12.7826087 C16.4347826,12.4466087 16.7074783,12.173913 17.0434783,12.173913 L23.1304348,12.173913 C23.4664348,12.173913 23.7391304,12.4466087 23.7391304,12.7826087 L23.7391304,15.2173913 C23.7391304,15.5533913 23.4664348,15.826087 23.1304348,15.826087 L23.1304348,15.826087 Z" id="Fill-7" fill="#48C0EB" sketch:type="MSShapeGroup" mask="url(#mask-2)"></path>
            <path d="M17.6521739,9.73913043 L22.5217391,9.73913043 L22.5217391,8.52173913 L17.6521739,8.52173913 L17.6521739,9.73913043 Z M23.1304348,10.9565217 L17.0434783,10.9565217 C16.7074783,10.9565217 16.4347826,10.6838261 16.4347826,10.3478261 L16.4347826,7.91304348 C16.4347826,7.57704348 16.7074783,7.30434783 17.0434783,7.30434783 L23.1304348,7.30434783 C23.4664348,7.30434783 23.7391304,7.57704348 23.7391304,7.91304348 L23.7391304,10.3478261 C23.7391304,10.6838261 23.4664348,10.9565217 23.1304348,10.9565217 L23.1304348,10.9565217 Z" id="Fill-8" fill="#48C0EB" sketch:type="MSShapeGroup" mask="url(#mask-2)"></path>
            <path d="M17.6521739,4.86956522 L22.5217391,4.86956522 L22.5217391,3.65217391 L17.6521739,3.65217391 L17.6521739,4.86956522 Z M23.1304348,6.08695652 L17.0434783,6.08695652 C16.7074783,6.08695652 16.4347826,5.81426087 16.4347826,5.47826087 L16.4347826,3.04347826 C16.4347826,2.70747826 16.7074783,2.43478261 17.0434783,2.43478261 L23.1304348,2.43478261 C23.4664348,2.43478261 23.7391304,2.70747826 23.7391304,3.04347826 L23.7391304,5.47826087 C23.7391304,5.81426087 23.4664348,6.08695652 23.1304348,6.08695652 L23.1304348,6.08695652 Z" id="Fill-9" fill="#48C0EB" sketch:type="MSShapeGroup" mask="url(#mask-2)"></path>
            <path d="M27.3913043,28 L0.608695652,28 C0.272695652,28 0,27.7273043 0,27.3913043 C0,27.0553043 0.272695652,26.7826087 0.608695652,26.7826087 L27.3913043,26.7826087 C27.7273043,26.7826087 28,27.0553043 28,27.3913043 C28,27.7273043 27.7273043,28 27.3913043,28" id="Fill-10" fill="#48C0EB" sketch:type="MSShapeGroup" mask="url(#mask-2)"></path>
            <path d="M1.82608696,27.3913043 C1.49008696,27.3913043 1.2173913,27.1186087 1.2173913,26.7826087 L1.2173913,6.69565217 C1.2173913,6.35965217 1.49008696,6.08695652 1.82608696,6.08695652 L14,6.08695652 C14.336,6.08695652 14.6086957,6.35965217 14.6086957,6.69565217 C14.6086957,7.03165217 14.336,7.30434783 14,7.30434783 L2.43478261,7.30434783 L2.43478261,26.7826087 C2.43478261,27.1186087 2.16208696,27.3913043 1.82608696,27.3913043" id="Fill-11" fill="#48C0EB" sketch:type="MSShapeGroup" mask="url(#mask-2)"></path>
            <path d="M5.47826087,15.2173913 L10.3478261,15.2173913 L10.3478261,10.3478261 L5.47826087,10.3478261 L5.47826087,15.2173913 Z M10.9565217,16.4347826 L4.86956522,16.4347826 C4.53356522,16.4347826 4.26086957,16.162087 4.26086957,15.826087 L4.26086957,9.73913043 C4.26086957,9.40313043 4.53356522,9.13043478 4.86956522,9.13043478 L10.9565217,9.13043478 C11.2925217,9.13043478 11.5652174,9.40313043 11.5652174,9.73913043 L11.5652174,15.826087 C11.5652174,16.162087 11.2925217,16.4347826 10.9565217,16.4347826 L10.9565217,16.4347826 Z" id="Fill-12" fill="#48C0EB" sketch:type="MSShapeGroup" mask="url(#mask-2)"></path>
            <path d="M7.91304348,15.826087 C7.57704348,15.826087 7.30434783,15.5533913 7.30434783,15.2173913 L7.30434783,9.73913043 C7.30434783,9.40313043 7.57704348,9.13043478 7.91304348,9.13043478 C8.24904348,9.13043478 8.52173913,9.40313043 8.52173913,9.73913043 L8.52173913,15.2173913 C8.52173913,15.5533913 8.24904348,15.826087 7.91304348,15.826087" id="Fill-13" fill="#48C0EB" sketch:type="MSShapeGroup" mask="url(#mask-2)"></path>
            <path d="M10.3478261,13.3913043 L5.47826087,13.3913043 C5.14226087,13.3913043 4.86956522,13.1186087 4.86956522,12.7826087 C4.86956522,12.4466087 5.14226087,12.173913 5.47826087,12.173913 L10.3478261,12.173913 C10.6838261,12.173913 10.9565217,12.4466087 10.9565217,12.7826087 C10.9565217,13.1186087 10.6838261,13.3913043 10.3478261,13.3913043" id="Fill-14" fill="#48C0EB" sketch:type="MSShapeGroup" mask="url(#mask-2)"></path>
            <path d="M5.47826087,23.7391304 L10.3478261,23.7391304 L10.3478261,18.8695652 L5.47826087,18.8695652 L5.47826087,23.7391304 Z M10.9565217,24.9565217 L4.86956522,24.9565217 C4.53356522,24.9565217 4.26086957,24.6838261 4.26086957,24.3478261 L4.26086957,18.2608696 C4.26086957,17.9248696 4.53356522,17.6521739 4.86956522,17.6521739 L10.9565217,17.6521739 C11.2925217,17.6521739 11.5652174,17.9248696 11.5652174,18.2608696 L11.5652174,24.3478261 C11.5652174,24.6838261 11.2925217,24.9565217 10.9565217,24.9565217 L10.9565217,24.9565217 Z" id="Fill-15" fill="#48C0EB" sketch:type="MSShapeGroup" mask="url(#mask-2)"></path>
            <path d="M7.91304348,24.3478261 C7.57704348,24.3478261 7.30434783,24.0751304 7.30434783,23.7391304 L7.30434783,18.2608696 C7.30434783,17.9248696 7.57704348,17.6521739 7.91304348,17.6521739 C8.24904348,17.6521739 8.52173913,17.9248696 8.52173913,18.2608696 L8.52173913,23.7391304 C8.52173913,24.0751304 8.24904348,24.3478261 7.91304348,24.3478261" id="Fill-16" fill="#48C0EB" sketch:type="MSShapeGroup" mask="url(#mask-2)"></path>
            <path d="M10.3478261,21.9130435 L5.47826087,21.9130435 C5.14226087,21.9130435 4.86956522,21.6403478 4.86956522,21.3043478 C4.86956522,20.9683478 5.14226087,20.6956522 5.47826087,20.6956522 L10.3478261,20.6956522 C10.6838261,20.6956522 10.9565217,20.9683478 10.9565217,21.3043478 C10.9565217,21.6403478 10.6838261,21.9130435 10.3478261,21.9130435" id="Fill-17" fill="#48C0EB" sketch:type="MSShapeGroup" mask="url(#mask-2)"></path>
            <path d="M10.3478261,6.69565217 C10.0118261,6.69565217 9.73913043,6.42295652 9.73913043,6.08695652 L9.73913043,4.26086957 C9.73913043,4.09956522 9.80304348,3.94434783 9.91747826,3.83052174 L13.5696522,0.178347826 C13.8076522,-0.0596521739 14.1923478,-0.0596521739 14.4303478,0.178347826 C14.6683478,0.416347826 14.6683478,0.801043478 14.4303478,1.03904348 L10.9565217,4.51286957 L10.9565217,6.08695652 C10.9565217,6.42295652 10.6838261,6.69565217 10.3478261,6.69565217" id="Fill-18" fill="#48C0EB" sketch:type="MSShapeGroup" mask="url(#mask-2)"></path>
        </g>
    </g>
</svg>