<?xml version="1.0" encoding="UTF-8"?>
<svg width="30px" height="30px" viewBox="0 0 30 30" version="1.1" xmlns="http://www.w3.org/2000/svg" xmlns:xlink="http://www.w3.org/1999/xlink">
    <!-- Generator: Sketch 41.1 (35376) - http://www.bohemiancoding.com/sketch -->
    <title>dozens</title>
    <desc>Created with Sketch.</desc>
    <defs></defs>
    <g id="Page-1" stroke="none" stroke-width="1" fill="none" fill-rule="evenodd">
        <g id="A4" transform="translate(-467.000000, -801.000000)">
            <g id="dozens" transform="translate(467.000000, 801.000000)">
                <path d="M12.722248,20 L8.9235351,20 L10.8235531,18.3933333 C12.4814379,17.032 13.2316539,16.234 13.2316539,14.7513333 L13.2316539,14.724 C13.2316539,13.04 11.9998177,11.9073333 10.167941,11.9073333 C8.69661791,11.9073333 7.85378263,12.4733333 7.09099685,13.4306667 C6.97059181,13.5786667 6.90377363,13.7673333 6.90377363,13.9426667 C6.90377363,14.3606667 7.23786454,14.6973333 7.65266652,14.6973333 C7.92060081,14.6973333 8.10716247,14.576 8.22822907,14.4413333 C8.80313006,13.7406667 9.32444419,13.39 10.0739986,13.39 C10.9300653,13.39 11.5850158,13.9293333 11.5850158,14.8593333 C11.5850158,15.7086667 11.1172885,16.3146667 9.83318857,17.4066667 L6.95736049,19.8733333 C6.67619487,20.1026667 6.52932718,20.3 6.52932718,20.6233333 C6.52932718,21.1086667 6.90377363,21.3333333 7.41185644,21.3333333 L12.722248,21.3333333 C13.1231571,21.3333333 13.4446782,21.0706667 13.4446782,20.6666667 C13.4446782,20.2626667 13.1231571,20 12.722248,20" id="Fill-1" fill="#FFCE38"></path>
                <path d="M19.1854185,18 L16.3188524,18 L19.1854185,14.266 L19.1854185,18 Z M21.6960621,18 L21.170117,18 L21.170117,12.7026667 C21.170117,12.258 20.7109901,11.906 20.2697255,11.906 C19.7881053,11.906 19.4619532,12.0926667 19.1682178,12.4433333 L14.7674797,17.696 C14.5266697,17.9793333 14.4062646,18.242 14.4062646,18.5653333 C14.4062646,19.0233333 14.7674797,19.3333333 15.2087444,19.3333333 L19.1854185,19.3333333 L19.1854185,20.7626667 C19.1854185,21.208 19.7365032,21.5446667 20.1777678,21.5446667 C20.6190324,21.5446667 21.170117,21.208 21.170117,20.7626667 L21.170117,19.3333333 L21.6960621,19.3333333 C22.0837399,19.3333333 22.3781368,19.0506667 22.3781368,18.6733333 C22.3781368,18.296 22.0837399,18 21.6960621,18 L21.6960621,18 Z" id="Fill-2" fill="#FFCE38"></path>
                <path d="M27.7857786,28 C27.7857786,28.3673333 27.4887354,28.6666667 27.1242124,28.6666667 L1.98469847,28.6666667 C1.62017552,28.6666667 1.32313231,28.3673333 1.32313231,28 L1.32313231,4.66666667 C1.32313231,4.29933333 1.62017552,4 1.98469847,4 L6.61566157,4 L6.61566157,5.264 C6.61566157,6.36666667 7.50612961,7.264 8.60036004,7.264 C9.69459046,7.264 10.5850585,6.36666667 10.5850585,5.264 L10.5850585,4 L18.5238524,4 L18.5238524,5.264 C18.5238524,6.36666667 19.4143204,7.264 20.5085509,7.264 C21.6027813,7.264 22.4932493,6.36666667 22.4932493,5.264 L22.4932493,4 L27.1242124,4 C27.4887354,4 27.7857786,4.29933333 27.7857786,4.66666667 L27.7857786,28 Z M7.93879388,2 C7.93879388,1.63266667 8.23583708,1.33333333 8.60036004,1.33333333 C8.96488299,1.33333333 9.26192619,1.63266667 9.26192619,2 L9.26192619,5.264 C9.26192619,5.63133333 8.96488299,5.93066667 8.60036004,5.93066667 C8.23583708,5.93066667 7.93879388,5.63133333 7.93879388,5.264 L7.93879388,2 Z M19.8469847,2 C19.8469847,1.63266667 20.1440279,1.33333333 20.5085509,1.33333333 C20.8730738,1.33333333 21.170117,1.63266667 21.170117,2 L21.170117,5.264 C21.170117,5.63133333 20.8730738,5.93066667 20.5085509,5.93066667 C20.1440279,5.93066667 19.8469847,5.63133333 19.8469847,5.264 L19.8469847,2 Z M27.1242124,2.66666667 L22.4932493,2.66666667 L22.4932493,2 C22.4932493,0.897333333 21.6027813,0 20.5085509,0 C19.4143204,0 18.5238524,0.897333333 18.5238524,2 L18.5238524,2.66666667 L10.5850585,2.66666667 L10.5850585,2 C10.5850585,0.897333333 9.69459046,0 8.60036004,0 C7.50612961,0 6.61566157,0.897333333 6.61566157,2 L6.61566157,2.66666667 L1.98469847,2.66666667 C0.890468047,2.66666667 0,3.564 0,4.66666667 L0,28 C0,29.1026667 0.890468047,30 1.98469847,30 L27.1242124,30 C28.2184428,30 29.1089109,29.1026667 29.1089109,28 L29.1089109,4.66666667 C29.1089109,3.564 28.2184428,2.66666667 27.1242124,2.66666667 L27.1242124,2.66666667 Z" id="Fill-3" fill="#48C0EB"></path>
            </g>
        </g>
    </g>
</svg>