<?xml version="1.0" encoding="UTF-8" standalone="no"?>
<svg width="28px" height="28px" viewBox="0 0 28 28" version="1.1" xmlns="http://www.w3.org/2000/svg" xmlns:xlink="http://www.w3.org/1999/xlink" xmlns:sketch="http://www.bohemiancoding.com/sketch/ns">
    <!-- Generator: Sketch 3.5.1 (25234) - http://www.bohemiancoding.com/sketch -->
    <title>fun</title>
    <desc>Created with Sketch.</desc>
    <defs></defs>
    <g id="Page-1" stroke="none" stroke-width="1" fill="none" fill-rule="evenodd" sketch:type="MSPage">
        <g id="fun" sketch:type="MSLayerGroup" fill="#48C0EB">
            <path d="M16.1777778,7.46666667 C15.8336889,7.46666667 15.5555556,7.18853333 15.5555556,6.84444444 L15.5555556,5.6 C15.5555556,4.91368889 14.9968,4.35555556 14.3111111,4.35555556 L13.0666667,4.35555556 C12.3803556,4.35555556 11.8222222,4.91368889 11.8222222,5.6 L11.8222222,6.84444444 C11.8222222,7.18853333 11.5440889,7.46666667 11.2,7.46666667 C10.8559111,7.46666667 10.5777778,7.18853333 10.5777778,6.84444444 L10.5777778,5.6 C10.5777778,4.22737778 11.6940444,3.11111111 13.0666667,3.11111111 L14.3111111,3.11111111 C15.6837333,3.11111111 16.8,4.22737778 16.8,5.6 L16.8,6.84444444 C16.8,7.18853333 16.5218667,7.46666667 16.1777778,7.46666667" id="Fill-1" sketch:type="MSShapeGroup"></path>
            <path d="M13.6895111,4.35555556 C13.664,4.35555556 13.6378667,4.35368889 13.6117333,4.35057778 C13.2713778,4.30826667 13.0299556,3.99902222 13.0710222,3.65866667 C13.0741333,3.62942222 13.1749333,2.6208 12.5657778,1.93822222 C12.1544889,1.47777778 11.4856,1.24444444 10.5777778,1.24444444 C10.2336889,1.24444444 9.95555556,0.966311111 9.95555556,0.622222222 C9.95555556,0.278133333 10.2336889,0 10.5777778,0 C11.8626667,0 12.8476444,0.377066667 13.5053333,1.12248889 C14.4896889,2.23813333 14.3142222,3.7464 14.3061333,3.81048889 C14.2669333,4.12533333 13.9987556,4.35555556 13.6895111,4.35555556" id="Fill-3" sketch:type="MSShapeGroup"></path>
            <path d="M5.6,16.1777778 C5.25591111,16.1777778 4.97777778,15.8996444 4.97777778,15.5555556 L4.97777778,10.5777778 C4.97777778,10.2336889 5.25591111,9.95555556 5.6,9.95555556 C5.94408889,9.95555556 6.22222222,10.2336889 6.22222222,10.5777778 L6.22222222,15.5555556 C6.22222222,15.8996444 5.94408889,16.1777778 5.6,16.1777778" id="Fill-5" sketch:type="MSShapeGroup"></path>
            <path d="M8.08888889,13.6888889 L3.11111111,13.6888889 C2.76702222,13.6888889 2.48888889,13.4107556 2.48888889,13.0666667 C2.48888889,12.7225778 2.76702222,12.4444444 3.11111111,12.4444444 L8.08888889,12.4444444 C8.43297778,12.4444444 8.71111111,12.7225778 8.71111111,13.0666667 C8.71111111,13.4107556 8.43297778,13.6888889 8.08888889,13.6888889" id="Fill-7" sketch:type="MSShapeGroup"></path>
            <path d="M21.7777778,11.2 C21.4336889,11.2 21.1555556,10.9218667 21.1555556,10.5777778 L21.1555556,9.95555556 C21.1555556,9.61146667 21.4336889,9.33333333 21.7777778,9.33333333 C22.1218667,9.33333333 22.4,9.61146667 22.4,9.95555556 L22.4,10.5777778 C22.4,10.9218667 22.1218667,11.2 21.7777778,11.2" id="Fill-9" sketch:type="MSShapeGroup"></path>
            <path d="M24.2666667,13.0666667 L23.6444444,13.0666667 C23.3003556,13.0666667 23.0222222,12.7885333 23.0222222,12.4444444 C23.0222222,12.1003556 23.3003556,11.8222222 23.6444444,11.8222222 L24.2666667,11.8222222 C24.6107556,11.8222222 24.8888889,12.1003556 24.8888889,12.4444444 C24.8888889,12.7885333 24.6107556,13.0666667 24.2666667,13.0666667" id="Fill-11" sketch:type="MSShapeGroup"></path>
            <path d="M21.7777778,15.5555556 C21.4336889,15.5555556 21.1555556,15.2774222 21.1555556,14.9333333 L21.1555556,14.3111111 C21.1555556,13.9670222 21.4336889,13.6888889 21.7777778,13.6888889 C22.1218667,13.6888889 22.4,13.9670222 22.4,14.3111111 L22.4,14.9333333 C22.4,15.2774222 22.1218667,15.5555556 21.7777778,15.5555556" id="Fill-13" sketch:type="MSShapeGroup"></path>
            <path d="M19.9111111,13.0666667 L19.2888889,13.0666667 C18.9448,13.0666667 18.6666667,12.7885333 18.6666667,12.4444444 C18.6666667,12.1003556 18.9448,11.8222222 19.2888889,11.8222222 L19.9111111,11.8222222 C20.2552,11.8222222 20.5333333,12.1003556 20.5333333,12.4444444 C20.5333333,12.7885333 20.2552,13.0666667 19.9111111,13.0666667" id="Fill-15" sketch:type="MSShapeGroup"></path>
            <path d="M11.6405333,17.4222222 L15.7372444,17.4222222 C17.0171556,17.4222222 18.1508444,18.1894222 18.6262222,19.3784889 L21.4206222,26.3648 C21.5152,26.6018667 21.7423111,26.7555556 21.9980444,26.7555556 L22.4,26.7555556 C24.4589333,26.7555556 26.1333333,25.0811556 26.1333333,23.0222222 L26.1333333,11.2 C26.1333333,9.14106667 24.4589333,7.46666667 22.4,7.46666667 L4.97777778,7.46666667 C2.91884444,7.46666667 1.24444444,9.14106667 1.24444444,11.2 L1.24444444,23.0222222 C1.24444444,25.0811556 2.91884444,26.7555556 4.97777778,26.7555556 L5.37911111,26.7555556 C5.63546667,26.7555556 5.86257778,26.6018667 5.95715556,26.3641778 L8.75155556,19.3784889 C9.22693333,18.1894222 10.3606222,17.4222222 11.6405333,17.4222222 M22.4,28 L21.9980444,28 C21.2302222,28 20.5501333,27.5395556 20.2645333,26.8271111 L17.4701333,19.8401778 C17.1851556,19.1271111 16.5044444,18.6666667 15.7372444,18.6666667 L11.6405333,18.6666667 C10.8733333,18.6666667 10.1926222,19.1271111 9.90764444,19.8401778 L7.11324444,26.8264889 C6.82764444,27.5395556 6.14755556,28 5.37911111,28 L4.97777778,28 C2.23315556,28 0,25.7668444 0,23.0222222 L0,11.2 C0,8.45537778 2.23315556,6.22222222 4.97777778,6.22222222 L22.4,6.22222222 C25.1446222,6.22222222 27.3777778,8.45537778 27.3777778,11.2 L27.3777778,23.0222222 C27.3777778,25.7668444 25.1446222,28 22.4,28" id="Fill-17" sketch:type="MSShapeGroup"></path>
        </g>
    </g>
</svg>