<?xml version="1.0" encoding="UTF-8"?>
<svg width="928px" height="390px" viewBox="0 0 928 390" version="1.1" xmlns="http://www.w3.org/2000/svg" xmlns:xlink="http://www.w3.org/1999/xlink">
    <!-- Generator: Sketch 43.2 (39069) - http://www.bohemiancoding.com/sketch -->
    <title>graph1</title>
    <desc>Created with Sketch.</desc>
    <defs></defs>
    <g id="Page-1" stroke="none" stroke-width="1" fill="none" fill-rule="evenodd">
        <g id="graph1">
            <g>
                <rect id="Rectangle" fill="#48C0EB" x="0" y="1.83907262" width="927.172099" height="53.9461302"></rect>
                <g id="Misc" transform="translate(39.004819, 11.885271)" font-size="18" font-family="Helvetica-Light, Helvetica" font-weight="300">
                    <text id="…" fill="#FFFFFF">
                        <tspan x="804.608749" y="18">…</tspan>
                    </text>
                    <text id="…" fill="#FFFFFF">
                        <tspan x="854.791903" y="18">…</tspan>
                    </text>
                    <text id="…" fill="#4A4A4A">
                        <tspan x="803.501606" y="62.4944596">…</tspan>
                    </text>
                    <text id="…" fill="#4A4A4A">
                        <tspan x="854.791903" y="62.4944596">…</tspan>
                    </text>
                    <text id="…" fill="#4A4A4A">
                        <tspan x="0" y="228.359785">…</tspan>
                    </text>
                    <text id="…" fill="#4A4A4A">
                        <tspan x="118.427674" y="228.359785">…</tspan>
                    </text>
                    <text id="…" fill="#4A4A4A">
                        <tspan x="215.031746" y="228.359785">…</tspan>
                    </text>
                    <text id="…" fill="#4A4A4A">
                        <tspan x="278.23408" y="228.359785">…</tspan>
                    </text>
                    <text id="…" fill="#4A4A4A">
                        <tspan x="375.425406" y="228.359785">…</tspan>
                    </text>
                    <text id="…" fill="#4A4A4A">
                        <tspan x="508.726285" y="228.359785">…</tspan>
                    </text>
                    <text id="…" fill="#4A4A4A">
                        <tspan x="626.31335" y="228.359785">…</tspan>
                    </text>
                    <text id="…" fill="#4A4A4A">
                        <tspan x="729.787273" y="228.359785">…</tspan>
                    </text>
                    <text id="…" fill="#4A4A4A">
                        <tspan x="804.608749" y="228.359785">…</tspan>
                    </text>
                    <text id="…" fill="#4A4A4A">
                        <tspan x="855.899046" y="228.359785">…</tspan>
                    </text>
                    <text id="…" fill="#4A4A4A">
                        <tspan x="0" y="197.359785">…</tspan>
                    </text>
                    <text id="…" fill="#4A4A4A">
                        <tspan x="118.427674" y="197.359785">…</tspan>
                    </text>
                    <text id="…" fill="#4A4A4A">
                        <tspan x="215.031746" y="197.359785">…</tspan>
                    </text>
                    <text id="…" fill="#4A4A4A">
                        <tspan x="278.23408" y="197.359785">…</tspan>
                    </text>
                    <text id="…" fill="#4A4A4A">
                        <tspan x="375.425406" y="197.359785">…</tspan>
                    </text>
                    <text id="…" fill="#4A4A4A">
                        <tspan x="508.726285" y="197.359785">…</tspan>
                    </text>
                    <text id="…" fill="#4A4A4A">
                        <tspan x="626.31335" y="197.359785">…</tspan>
                    </text>
                    <text id="…" fill="#4A4A4A">
                        <tspan x="729.787273" y="197.359785">…</tspan>
                    </text>
                    <text id="…" fill="#4A4A4A">
                        <tspan x="804.608749" y="197.359785">…</tspan>
                    </text>
                    <text id="…" fill="#4A4A4A">
                        <tspan x="855.899046" y="197.359785">…</tspan>
                    </text>
                    <text id="…" fill="#4A4A4A">
                        <tspan x="804.608749" y="164.145499">…</tspan>
                    </text>
                    <text id="…" fill="#4A4A4A">
                        <tspan x="855.899046" y="164.145499">…</tspan>
                    </text>
                    <text id="…" fill="#4A4A4A">
                        <tspan x="804.608749" y="130.931214">…</tspan>
                    </text>
                    <text id="…" fill="#4A4A4A">
                        <tspan x="855.899046" y="130.931214">…</tspan>
                    </text>
                    <text id="…" fill="#4A4A4A">
                        <tspan x="804.608749" y="97.7169281">…</tspan>
                    </text>
                    <text id="…" fill="#4A4A4A">
                        <tspan x="855.899046" y="97.7169281">…</tspan>
                    </text>
                </g>
                <g id="Lines">
                    <path d="M101.857143,55.6893994 L101.857143,93.5406282" id="Stroke-105" stroke="#E1E1E1" stroke-width="2"></path>
                    <path d="M101.857143,92.3145797 L101.857143,128.342932" id="Stroke-107" stroke="#E1E1E1" stroke-width="2"></path>
                    <path d="M101.857143,128.342932 L101.857143,160.079992" id="Stroke-109" stroke="#E1E1E1" stroke-width="2"></path>
                    <path d="M101.857143,160.079992 L101.857143,193.802392" id="Stroke-111" stroke="#E1E1E1" stroke-width="2"></path>
                    <path d="M101.857143,193.802392 L101.857143,220.612638" id="Stroke-113" stroke="#E1E1E1" stroke-width="2"></path>
                    <path d="M236.928571,55.6893994 L236.928571,195.028441" id="Stroke-119" stroke="#E1E1E1" stroke-width="2"></path>
                    <path d="M236.928571,193.802392 L236.928571,220.612638" id="Stroke-121" stroke="#E1E1E1" stroke-width="2"></path>
                    <path d="M292.285714,55.6893994 L292.285714,195.028441" id="Stroke-127" stroke="#E1E1E1" stroke-width="2"></path>
                    <path d="M292.285714,193.802392 L292.285714,220.612638" id="Stroke-129" stroke="#E1E1E1" stroke-width="2"></path>
                    <path d="M366.464286,55.6893994 L366.464286,195.028441" id="Stroke-135" stroke="#E1E1E1" stroke-width="2"></path>
                    <path d="M366.464286,193.802392 L366.464286,220.612638" id="Stroke-137" stroke="#E1E1E1" stroke-width="2"></path>
                    <path d="M494.892857,55.6893994 L494.892857,195.028441" id="Stroke-143" stroke="#E1E1E1" stroke-width="2"></path>
                    <path d="M494.892857,193.802392 L494.892857,220.612638" id="Stroke-145" stroke="#E1E1E1" stroke-width="2"></path>
                    <path d="M926.678571,54.463351 L926.678571,92.3145797" id="Stroke-195" stroke="#E1E1E1" stroke-width="2"></path>
                    <path d="M926.678571,92.3145797 L926.678571,128.342932" id="Stroke-197" stroke="#E1E1E1" stroke-width="2"></path>
                    <path d="M926.678571,128.342932 L926.678571,160.079992" id="Stroke-199" stroke="#E1E1E1" stroke-width="2"></path>
                    <path d="M926.678571,160.079992 L926.678571,193.802392" id="Stroke-201" stroke="#E1E1E1" stroke-width="2"></path>
                    <path d="M926.678571,193.802392 L926.678571,220.612638" id="Stroke-203" stroke="#E1E1E1" stroke-width="2"></path>
                    <path d="M0,91.8928571 L113.086954,91.8928571" id="Stroke-237" stroke="#E1E1E1" stroke-width="2"></path>
                    <path d="M113.086954,91.8928571 L706.754881,91.8928571" id="Stroke-239" stroke="#E1E1E1" stroke-width="2"></path>
                    <path d="M706.754881,91.8928571 L802.948219,91.8928571" id="Stroke-241" stroke="#E1E1E1" stroke-width="2"></path>
                    <path d="M802.948219,91.8928571 L863.178202,91.8928571" id="Stroke-243" stroke="#E1E1E1" stroke-width="2"></path>
                    <path d="M863.178202,91.8928571 L927.140805,91.8928571" id="Stroke-245" stroke="#E1E1E1" stroke-width="2"></path>
                    <path d="M0,127.321429 L113.086954,127.321429" id="Stroke-251" stroke="#E1E1E1" stroke-width="2"></path>
                    <path d="M113.086954,127.321429 L706.754881,127.321429" id="Stroke-253" stroke="#E1E1E1" stroke-width="2"></path>
                    <path d="M706.754881,127.321429 L802.948219,127.321429" id="Stroke-255" stroke="#E1E1E1" stroke-width="2"></path>
                    <path d="M802.948219,127.321429 L863.178202,127.321429" id="Stroke-257" stroke="#E1E1E1" stroke-width="2"></path>
                    <path d="M863.178202,127.321429 L927.140805,127.321429" id="Stroke-259" stroke="#E1E1E1" stroke-width="2"></path>
                    <path d="M0,159.428571 L113.086954,159.428571" id="Stroke-265" stroke="#E1E1E1" stroke-width="2"></path>
                    <path d="M113.086954,159.428571 L706.754881,159.428571" id="Stroke-267" stroke="#E1E1E1" stroke-width="2"></path>
                    <path d="M706.754881,159.428571 L802.948219,159.428571" id="Stroke-269" stroke="#E1E1E1" stroke-width="2"></path>
                    <path d="M802.948219,159.428571 L863.178202,159.428571" id="Stroke-271" stroke="#E1E1E1" stroke-width="2"></path>
                    <path d="M863.178202,159.428571 L927.140805,159.428571" id="Stroke-273" stroke="#E1E1E1" stroke-width="2"></path>
                    <path d="M0,193.75 L113.086954,193.75" id="Stroke-279" stroke="#E1E1E1" stroke-width="2"></path>
                    <path d="M113.086954,193.75 L237.947275,193.75" id="Stroke-281" stroke="#E1E1E1" stroke-width="2"></path>
                    <path d="M237.947275,193.75 L288.781403,193.75" id="Stroke-283" stroke="#E1E1E1" stroke-width="2"></path>
                    <path d="M288.781403,193.75 L364.524123,193.75" id="Stroke-285" stroke="#E1E1E1" stroke-width="2"></path>
                    <path d="M364.524123,193.75 L487.448612,193.75" id="Stroke-287" stroke="#E1E1E1" stroke-width="2"></path>
                    <path d="M487.448612,193.75 L611.063234,193.75" id="Stroke-289" stroke="#E1E1E1" stroke-width="2"></path>
                    <path d="M611.063234,193.75 L706.754881,193.75" id="Stroke-291" stroke="#E1E1E1" stroke-width="2"></path>
                    <path d="M706.754881,193.75 L802.948219,193.75" id="Stroke-293" stroke="#E1E1E1" stroke-width="2"></path>
                    <path d="M802.948219,193.75 L863.178202,193.75" id="Stroke-295" stroke="#E1E1E1" stroke-width="2"></path>
                    <path d="M863.178202,193.75 L927.140805,193.75" id="Stroke-297" stroke="#E1E1E1" stroke-width="2"></path>
                    <g id="Group-10" transform="translate(0.000000, 224.979884)" stroke="#E1E1E1" stroke-width="2">
                        <path d="M0,0 L113.086954,0" id="Stroke-303"></path>
                        <path d="M113.086954,0 L237.947275,0" id="Stroke-305"></path>
                        <path d="M237.947275,0 L288.781403,0" id="Stroke-307"></path>
                        <path d="M288.781403,0 L364.524123,0" id="Stroke-309"></path>
                        <path d="M364.524123,0 L487.448612,0" id="Stroke-311"></path>
                        <path d="M487.448612,0 L611.063234,0" id="Stroke-313"></path>
                        <path d="M611.063234,0 L706.754881,0" id="Stroke-315"></path>
                        <path d="M706.754881,0 L802.948219,0" id="Stroke-317"></path>
                        <path d="M802.948219,0 L863.178202,0" id="Stroke-319"></path>
                        <path d="M863.178202,0 L927.140805,0" id="Stroke-321"></path>
                    </g>
                    <path d="M1.10714286,55.6893994 L1.10714286,93.5406282" id="Stroke-329" stroke="#E1E1E1" stroke-width="2"></path>
                    <path d="M1.10714286,92.3145797 L1.10714286,128.342932" id="Stroke-331" stroke="#E1E1E1" stroke-width="2"></path>
                    <path d="M1.10714286,128.342932 L1.10714286,160.079992" id="Stroke-333" stroke="#E1E1E1" stroke-width="2"></path>
                    <path d="M1.10714286,160.079992 L1.10714286,220.612638" id="Stroke-335" stroke="#E1E1E1" stroke-width="2"></path>
                    <g id="Group-12" transform="translate(1.227230, 216.397545)" stroke="#E1E1E1" stroke-width="2">
                        <path d="M100.75,0.157379306 L100.75,39.4026613" id="Stroke-115"></path>
                        <path d="M235.821429,0.157379306 L235.821429,39.4026613" id="Stroke-123"></path>
                        <path d="M291.178571,0.157379306 L291.178571,39.4026613" id="Stroke-131"></path>
                        <path d="M365.357143,0.157379306 L365.357143,39.4026613" id="Stroke-139"></path>
                        <path d="M493.785714,0.157379306 L493.785714,39.4026613" id="Stroke-147"></path>
                        <path d="M925.571429,0.157379306 L925.571429,39.4026613" id="Stroke-205"></path>
                        <path d="M0,0.157379306 L0,39.4026613" id="Stroke-337"></path>
                    </g>
                    <g id="Group-13" transform="translate(802.608277, 1.226048)"></g>
                    <g id="Group-11" transform="translate(0.000000, 255.631094)" stroke="#E1E1E1" stroke-width="2">
                        <path d="M0,0 L113.086954,0" id="Stroke-367"></path>
                        <path d="M113.086954,0 L237.947275,0" id="Stroke-369"></path>
                        <path d="M237.947275,0 L288.781403,0" id="Stroke-371"></path>
                        <path d="M288.781403,0 L364.524123,0" id="Stroke-373"></path>
                        <path d="M364.524123,0 L487.448612,0" id="Stroke-375"></path>
                        <path d="M487.448612,0 L611.063234,0" id="Stroke-377"></path>
                        <path d="M611.063234,0 L706.754881,0" id="Stroke-379"></path>
                        <path d="M706.754881,0 L802.948219,0" id="Stroke-381"></path>
                        <path d="M802.948219,0 L863.178202,0" id="Stroke-383"></path>
                        <path d="M863.178202,0 L927.140805,0" id="Stroke-385"></path>
                    </g>
                    <g id="Group-14" transform="translate(878.696523, 55.172179)" stroke="#E1E1E1" stroke-width="2">
                        <path d="M0,0.517220784 L0,38.3684495" id="Stroke-181"></path>
                        <path d="M0,37.1424011 L0,73.1707533" id="Stroke-183"></path>
                        <path d="M0,73.1707533 L0,104.907813" id="Stroke-185"></path>
                        <path d="M0,104.907813 L0,138.630214" id="Stroke-187"></path>
                        <path d="M0,138.630214 L0,165.44046" id="Stroke-189"></path>
                        <path d="M0,161.382746 L0,200.628028" id="Stroke-191"></path>
                    </g>
                    <g id="Group-15" transform="translate(828.993717, 55.172179)" stroke="#E1E1E1" stroke-width="2">
                        <path d="M0,0.517220784 L0,38.3684495" id="Stroke-167"></path>
                        <path d="M0,37.1424011 L0,73.1707533" id="Stroke-169"></path>
                        <path d="M0,73.1707533 L0,104.907813" id="Stroke-171"></path>
                        <path d="M0,104.907813 L0,138.630214" id="Stroke-173"></path>
                        <path d="M0,138.630214 L0,165.44046" id="Stroke-175"></path>
                        <path d="M0,161.382746 L0,200.628028" id="Stroke-177"></path>
                    </g>
                    <g id="Group-16" transform="translate(726.520030, 55.172179)" stroke="#E1E1E1" stroke-width="2">
                        <path d="M0,0.517220784 L0,139.856262" id="Stroke-159"></path>
                        <path d="M0,138.630214 L0,165.44046" id="Stroke-161"></path>
                        <path d="M0,161.382746 L0,200.628028" id="Stroke-163"></path>
                    </g>
                    <g id="Group-17" transform="translate(627.728033, 55.172179)" stroke="#E1E1E1" stroke-width="2">
                        <path d="M0,0.517220784 L0,139.856262" id="Stroke-151"></path>
                        <path d="M0,138.630214 L0,165.44046" id="Stroke-153"></path>
                        <path d="M0,161.382746 L0,200.628028" id="Stroke-155"></path>
                    </g>
                    <g id="TopBar" stroke="#6ED9FF" stroke-width="2">
                        <path d="M101.857143,1.22604841 L101.857143,55.6871167" id="Stroke-103"></path>
                        <path d="M238.035714,1.22604841 L238.035714,55.6871167" id="Stroke-117"></path>
                        <path d="M292.285714,1.22604841 L292.285714,55.6871167" id="Stroke-125"></path>
                        <path d="M366.464286,1.22604841 L366.464286,55.6871167" id="Stroke-133"></path>
                        <path d="M496,1.22604841 L496,55.6871167" id="Stroke-141"></path>
                        <path d="M926.678571,0 L926.678571,55.6871167" id="Stroke-193"></path>
                        <path d="M1.10714286,1.22604841 L1.10714286,55.6871167" id="Stroke-327"></path>
                        <path d="M0,1.10714286 L113.086954,1.10714286" id="Stroke-353"></path>
                        <path d="M113.086954,1.10714286 L237.947275,1.10714286" id="Stroke-355"></path>
                        <path d="M237.947275,1.10714286 L802.948219,1.10714286" id="Stroke-357"></path>
                        <path d="M863.178202,1.10714286 L927.140805,1.10714286" id="Stroke-361"></path>
                        <path d="M802.948219,1.10714286 L863.178202,1.10714286" id="Stroke-359"></path>
                        <path d="M879.071429,1.22604841 L879.071429,55.6871167" id="Stroke-179"></path>
                        <path d="M829.25,1.22604841 L829.25,55.6871167" id="Stroke-165"></path>
                        <path d="M727.392857,1.22604841 L727.392857,55.6871167" id="Stroke-157"></path>
                        <path d="M627.75,1.22604841 L627.75,55.6871167" id="Stroke-149"></path>
                    </g>
                </g>
                <g id="Text-Boxes" transform="translate(12.885913, 63.635612)" font-size="15" font-family="AvenirNext-Regular, Avenir Next" fill="#4A4A4A" font-weight="normal">
                    <g id="Group-9" transform="translate(0.000000, 0.000000)">
                        <text id="Heather">
                            <tspan x="0" y="15">Heather</tspan>
                        </text>
                        <text id="Jose">
                            <tspan x="0" y="52.3944766">Jose</tspan>
                        </text>
                        <text id="Michael">
                            <tspan x="0" y="85.4977838">Michael</tspan>
                        </text>
                        <text id="Cynthia">
                            <tspan x="0" y="118.601091">Cynthia</tspan>
                        </text>
                    </g>
                    <g id="Group-8" transform="translate(100.632842, 0.000000)">
                        <text id="Tacoma,-WA">
                            <tspan x="0" y="15">Tacoma, WA</tspan>
                        </text>
                        <text id="Newark,-NJ">
                            <tspan x="0" y="52.3944766">Newark, NJ</tspan>
                        </text>
                        <text id="Atlanta,-GA">
                            <tspan x="0" y="85.4977838">Atlanta, GA</tspan>
                        </text>
                        <text id="St.-Louis,-MO">
                            <tspan x="0" y="118.601091">St. Louis, MO</tspan>
                        </text>
                    </g>
                    <g id="Group-7" transform="translate(240.537037, 0.000000)">
                        <text id="36">
                            <tspan x="0" y="15">36</tspan>
                        </text>
                        <text id="24">
                            <tspan x="0" y="52.3944766">24</tspan>
                        </text>
                        <text id="63">
                            <tspan x="0" y="85.4977838">63</tspan>
                        </text>
                        <text id="52">
                            <tspan x="0" y="118.601091">52</tspan>
                        </text>
                    </g>
                    <g id="Group-6" transform="translate(307.421060, 0.000000)">
                        <text id="F">
                            <tspan x="2.45445956" y="15">F</tspan>
                        </text>
                        <text id="M">
                            <tspan x="0" y="52.3944766">M</tspan>
                        </text>
                        <text id="M">
                            <tspan x="0" y="85.4977838">M</tspan>
                        </text>
                        <text id="F">
                            <tspan x="2.45445956" y="118.601091">F</tspan>
                        </text>
                    </g>
                    <g id="Group" transform="translate(363.873630, 0.000000)">
                        <g id="Group-5">
                            <text id="Frequent">
                                <tspan x="0" y="15">F</tspan>
                                <tspan x="7.8" y="15" letter-spacing="-0.54">r</tspan>
                                <tspan x="12.39" y="15">equent</tspan>
                            </text>
                            <text id="Casual">
                                <tspan x="0" y="52.3944766">Casual</tspan>
                            </text>
                            <text id="Rare">
                                <tspan x="0" y="85.4977838">Ra</tspan>
                                <tspan x="16.815" y="85.4977838" letter-spacing="-0.54">r</tspan>
                                <tspan x="21.405" y="85.4977838">e</tspan>
                            </text>
                            <text id="Casual">
                                <tspan x="0" y="118.601091">Casual</tspan>
                            </text>
                        </g>
                    </g>
                    <g id="Group-4" transform="translate(494.573602, 0.000000)">
                        <text id="Facebook">
                            <tspan x="0" y="15">Facebook</tspan>
                        </text>
                        <text id="Phone">
                            <tspan x="0" y="52.3944766">Phone</tspan>
                        </text>
                        <text id="Email">
                            <tspan x="0" y="85.4977838">Email</tspan>
                        </text>
                        <text id="In-Person">
                            <tspan x="0" y="118.601091">In-Person</tspan>
                        </text>
                    </g>
                    <g id="Group-2" transform="translate(629.568878, 0.000000)">
                        <text id="Fishing">
                            <tspan x="0" y="15">Fishing</tspan>
                        </text>
                        <text id="Tech">
                            <tspan x="0" y="52.3944766">Tech</tspan>
                        </text>
                        <text id="Fashion">
                            <tspan x="0" y="85.4977838">Fashion</tspan>
                        </text>
                        <text id="Football">
                            <tspan x="0" y="118.601091">Football</tspan>
                        </text>
                    </g>
                    <g id="Group-3" transform="translate(724.679186, 0.000000)">
                        <text id="20-30K">
                            <tspan x="0" y="15">20-30K</tspan>
                        </text>
                        <text id="50-60K">
                            <tspan x="0" y="52.3944766">50-60K</tspan>
                        </text>
                        <text id="100-120K">
                            <tspan x="0" y="85.4977838">100-120K</tspan>
                        </text>
                        <text id="&gt;150K">
                            <tspan x="0" y="118.601091">&gt;150K</tspan>
                        </text>
                    </g>
                </g>
                <g id="Group-391" transform="translate(17.181217, 8.444937)" font-weight="bold" font-family="AvenirNext-Bold, Avenir Next" fill="#FFFFFF" font-size="16">
                    <text id="Name" letter-spacing="0.000106666659">
                        <tspan x="0" y="23.4936925">Name</tspan>
                    </text>
                    <text id="Lives-in" letter-spacing="-0.000106666659">
                        <tspan x="98.1783825" y="23.4936925">Lives in</tspan>
                    </text>
                    <text id="Age" letter-spacing="0.000106666659">
                        <tspan x="228.878354" y="23.4936925">Age</tspan>
                    </text>
                    <text id="Gender" letter-spacing="-0.000106666659">
                        <tspan x="279.80839" y="23.4936925">Gender</tspan>
                    </text>
                    <text id="Engagement-Level" line-spacing="18" letter-spacing="-0.000106666659">
                        <tspan x="359.578326" y="16.8693317">Engagement </tspan>
                        <tspan x="359.578326" y="34.8693317">Level</tspan>
                    </text>
                    <text id="Engagement-Channel" line-spacing="18" letter-spacing="-0.000106666659">
                        <tspan x="490.278297" y="16.8693317">Engagement </tspan>
                        <tspan x="490.278297" y="34.8693317">Channel</tspan>
                    </text>
                    <text id="Interests" letter-spacing="-0.00320000015">
                        <tspan x="625.273573" y="23.4936925">Interests</tspan>
                    </text>
                    <text id="Income" letter-spacing="-0.000106666659">
                        <tspan x="720.383881" y="23.4936925">Income</tspan>
                    </text>
                </g>
            </g>
            <g id="Group-24" transform="translate(361.000000, 293.000000)">
                <text id="Increase-Conversion-Copy" font-family="AvenirNext-Regular, Avenir Next" font-size="12" font-weight="normal" line-spacing="16" fill="#7B7A7C">
                    <tspan x="132.795286" y="80">Increase </tspan>
                    <tspan x="124.353286" y="96">Conversion</tspan>
                </text>
                <text id="Expand-your-Audience-Copy" font-family="AvenirNext-Regular, Avenir Next" font-size="12" font-weight="normal" line-spacing="16" fill="#7B7A7C">
                    <tspan x="18.0712857" y="80">Expand your </tspan>
                    <tspan x="26.2312857" y="96">Audience</tspan>
                </text>
                <g id="Group-25" transform="translate(23.000000, 0.000000)">
                    <circle id="Oval-Copy-2" stroke="#48C0EB" stroke-width="2" cx="29.4590097" cy="28.8234578" r="28.8234578"></circle>
                    <g id="Page-1-Copy" transform="translate(16.689123, 16.053571)" fill="#4A4A4A">
                        <path d="M12.2146739,9.43861166 C10.0721091,9.43861166 8.32818676,11.182534 8.32818676,13.3250988 L8.32818676,23.8741354 C8.32818676,24.1806126 8.57692194,24.4293478 8.88339921,24.4293478 L15.5459486,24.4293478 C15.8524259,24.4293478 16.1011611,24.1806126 16.1011611,23.8741354 L16.1011611,13.3250988 C16.1011611,11.182534 14.3572388,9.43861166 12.2146739,9.43861166 M15.5459486,25.5397727 L8.88339921,25.5397727 C7.96507782,25.5397727 7.21776186,24.7924568 7.21776186,23.8741354 L7.21776186,13.3250988 C7.21776186,10.5695794 9.45915452,8.32818676 12.2146739,8.32818676 C14.9701933,8.32818676 17.211586,10.5695794 17.211586,13.3250988 L17.211586,23.8741354 C17.211586,24.7924568 16.46427,25.5397727 15.5459486,25.5397727" id="Fill-1"></path>
                        <path d="M22.7637105,25.5397727 L18.8772233,25.5397727 L18.8772233,24.4293478 L22.7637105,24.4293478 C23.0701877,24.4293478 23.3189229,24.1806126 23.3189229,23.8741354 L23.3189229,16.1011611 C23.3189229,13.9585962 21.5750006,12.2146739 19.4324358,12.2146739 L18.8772233,12.2146739 L18.8772233,11.104249 L19.4324358,11.104249 C22.1879552,11.104249 24.4293478,13.3456417 24.4293478,16.1011611 L24.4293478,23.8741354 C24.4293478,24.7924568 23.6820319,25.5397727 22.7637105,25.5397727" id="Fill-2"></path>
                        <path d="M5.55212451,25.5397727 L1.66563735,25.5397727 C0.747315958,25.5397727 0,24.7924568 0,23.8741354 L0,16.1011611 C0,13.3456417 2.24139266,11.104249 4.99691206,11.104249 L5.55212451,11.104249 L5.55212451,12.2146739 L4.99691206,12.2146739 C2.85434721,12.2146739 1.1104249,13.9585962 1.1104249,16.1011611 L1.1104249,23.8741354 C1.1104249,24.1806126 1.35916008,24.4293478 1.66563735,24.4293478 L5.55212451,24.4293478 L5.55212451,25.5397727 Z" id="Fill-3"></path>
                        <path d="M12.2146739,1.1104249 C10.6839532,1.1104249 9.43861166,2.35576643 9.43861166,3.88648715 C9.43861166,5.41720788 10.6839532,6.66254941 12.2146739,6.66254941 C13.7453946,6.66254941 14.9907362,5.41720788 14.9907362,3.88648715 C14.9907362,2.35576643 13.7453946,1.1104249 12.2146739,1.1104249 M12.2146739,7.77297431 C10.0721091,7.77297431 8.32818676,6.029052 8.32818676,3.88648715 C8.32818676,1.74392231 10.0721091,0 12.2146739,0 C14.3572388,0 16.1011611,1.74392231 16.1011611,3.88648715 C16.1011611,6.029052 14.3572388,7.77297431 12.2146739,7.77297431" id="Fill-4"></path>
                        <path d="M19.4324358,4.4416996 C18.2076371,4.4416996 17.211586,5.43775074 17.211586,6.66254941 C17.211586,7.88734807 18.2076371,8.88339921 19.4324358,8.88339921 C20.6572344,8.88339921 21.6532856,7.88734807 21.6532856,6.66254941 C21.6532856,5.43775074 20.6572344,4.4416996 19.4324358,4.4416996 M19.4324358,9.99382411 C17.5952378,9.99382411 16.1011611,8.49974741 16.1011611,6.66254941 C16.1011611,4.82535141 17.5952378,3.3312747 19.4324358,3.3312747 C21.2696338,3.3312747 22.7637105,4.82535141 22.7637105,6.66254941 C22.7637105,8.49974741 21.2696338,9.99382411 19.4324358,9.99382411" id="Fill-5"></path>
                        <path d="M4.99691206,4.4416996 C3.77211339,4.4416996 2.77606225,5.43775074 2.77606225,6.66254941 C2.77606225,7.88734807 3.77211339,8.88339921 4.99691206,8.88339921 C6.22171072,8.88339921 7.21776186,7.88734807 7.21776186,6.66254941 C7.21776186,5.43775074 6.22171072,4.4416996 4.99691206,4.4416996 M4.99691206,9.99382411 C3.15971406,9.99382411 1.66563735,8.49974741 1.66563735,6.66254941 C1.66563735,4.82535141 3.15971406,3.3312747 4.99691206,3.3312747 C6.83411005,3.3312747 8.32818676,4.82535141 8.32818676,6.66254941 C8.32818676,8.49974741 6.83411005,9.99382411 4.99691206,9.99382411" id="Fill-6"></path>
                    </g>
                </g>
                <g id="Group-26" transform="translate(126.000000, 0.000000)">
                    <circle id="Oval-Copy-3" stroke="#48C0EB" stroke-width="2" cx="29.317776" cy="28.8234578" r="28.8234578"></circle>
                    <g id="Page-1-Copy-2" transform="translate(17.277597, 16.783279)" fill="#4A4A4A">
                        <path d="M23.8741354,25.5397727 L1.1104249,25.5397727 C0.498025568,25.5397727 0,25.0417472 0,24.4293478 L0,1.66563735 C0,1.35860487 0.248735178,1.1104249 0.555212451,1.1104249 C0.861689723,1.1104249 1.1104249,1.35860487 1.1104249,1.66563735 L1.1104249,24.4293478 L23.8741354,24.4293478 C24.1806126,24.4293478 24.4293478,24.6775278 24.4293478,24.9845603 C24.4293478,25.2915928 24.1806126,25.5397727 23.8741354,25.5397727" id="Fill-1"></path>
                        <path d="M3.88648715,19.4324358 L3.88648715,21.6532856 L4.99746727,21.6532856 L4.99691206,19.4324358 L3.88648715,19.4324358 Z M4.99691206,22.7637105 L3.88648715,22.7637105 C3.27408782,22.7637105 2.77606225,22.2656849 2.77606225,21.6532856 L2.77606225,19.4324358 C2.77606225,18.8200364 3.27408782,18.3220109 3.88648715,18.3220109 L4.99691206,18.3220109 C5.60931139,18.3220109 6.10733696,18.8200364 6.10733696,19.4324358 L6.10733696,21.6532856 C6.10733696,22.2656849 5.60931139,22.7637105 4.99691206,22.7637105 L4.99691206,22.7637105 Z" id="Fill-2"></path>
                        <path d="M8.88339921,15.5459486 L8.88339921,21.6532856 L9.99437932,21.6532856 L9.99382411,15.5459486 L8.88339921,15.5459486 Z M9.99382411,22.7637105 L8.88339921,22.7637105 C8.27099988,22.7637105 7.77297431,22.2656849 7.77297431,21.6532856 L7.77297431,15.5459486 C7.77297431,14.9335493 8.27099988,14.4355237 8.88339921,14.4355237 L9.99382411,14.4355237 C10.6062234,14.4355237 11.104249,14.9335493 11.104249,15.5459486 L11.104249,21.6532856 C11.104249,22.2656849 10.6062234,22.7637105 9.99382411,22.7637105 L9.99382411,22.7637105 Z" id="Fill-3"></path>
                        <path d="M13.8803113,11.6594615 L13.8803113,21.6532856 L14.9912914,21.6532856 L14.9907362,11.6594615 L13.8803113,11.6594615 Z M14.9907362,22.7637105 L13.8803113,22.7637105 C13.2679119,22.7637105 12.7698864,22.2656849 12.7698864,21.6532856 L12.7698864,11.6594615 C12.7698864,11.0470621 13.2679119,10.5490366 13.8803113,10.5490366 L14.9907362,10.5490366 C15.6031355,10.5490366 16.1011611,11.0470621 16.1011611,11.6594615 L16.1011611,21.6532856 C16.1011611,22.2656849 15.6031355,22.7637105 14.9907362,22.7637105 L14.9907362,22.7637105 Z" id="Fill-4"></path>
                        <path d="M18.8772233,7.77297431 L18.8772233,21.6532856 L19.9882034,21.6532856 L19.9876482,7.77297431 L18.8772233,7.77297431 Z M19.9876482,22.7637105 L18.8772233,22.7637105 C18.264824,22.7637105 17.7667984,22.2656849 17.7667984,21.6532856 L17.7667984,7.77297431 C17.7667984,7.16057498 18.264824,6.66254941 18.8772233,6.66254941 L19.9876482,6.66254941 C20.6000476,6.66254941 21.0980731,7.16057498 21.0980731,7.77297431 L21.0980731,21.6532856 C21.0980731,22.2656849 20.6000476,22.7637105 19.9876482,22.7637105 L19.9876482,22.7637105 Z" id="Fill-5"></path>
                        <path d="M3.33071949,12.7698864 C3.06421751,12.7698864 2.82936265,12.5772276 2.78383523,12.3057288 C2.73386611,12.0036932 2.93818429,11.7172036 3.24021986,11.6672344 C3.31739439,11.6539093 11.0381787,10.2636574 19.5740149,0.740098197 C19.7783331,0.511350667 20.1297826,0.492473444 20.3579749,0.696791625 C20.5867225,0.90166502 20.6055997,1.25255929 20.4012815,1.48075161 C11.5811765,11.3224475 3.7504601,12.7082578 3.42177433,12.7621134 C3.39068244,12.7676655 3.36070096,12.7698864 3.33071949,12.7698864" id="Fill-6"></path>
                        <path d="M20.5428607,3.88648715 C20.2363834,3.88648715 19.9876482,3.63830719 19.9876482,3.3312747 L19.9876482,1.1104249 L17.7667984,1.1104249 C17.4603211,1.1104249 17.211586,0.862244936 17.211586,0.555212451 C17.211586,0.248179965 17.4603211,0 17.7667984,0 L20.5428607,0 C20.8493379,0 21.0980731,0.248179965 21.0980731,0.555212451 L21.0980731,3.3312747 C21.0980731,3.63830719 20.8493379,3.88648715 20.5428607,3.88648715" id="Fill-7"></path>
                    </g>
                </g>
            </g>
        </g>
    </g>
</svg>