<?xml version="1.0" encoding="UTF-8" standalone="no"?>
<svg width="30px" height="40px" viewBox="0 0 30 40" version="1.1" xmlns="http://www.w3.org/2000/svg" xmlns:xlink="http://www.w3.org/1999/xlink" xmlns:sketch="http://www.bohemiancoding.com/sketch/ns">
    <!-- Generator: Sketch 3.5.1 (25234) - http://www.bohemiancoding.com/sketch -->
    <title>health</title>
    <desc>Created with Sketch.</desc>
    <defs></defs>
    <g id="Page-1" stroke="none" stroke-width="1" fill="none" fill-rule="evenodd" sketch:type="MSPage">
        <g id="health" sketch:type="MSLayerGroup" fill="#48C0EB">
            <path d="M27.484472,36.5873907 C27.484472,37.0562199 27.0740373,37.4382603 26.568323,37.4382603 L14.6583851,37.4382603 L2.7484472,37.4382603 C2.24273292,37.4382603 1.83229814,37.0562199 1.83229814,36.5873907 L1.83229814,26.4901218 C1.83229814,20.7978045 6.81798137,16.1665215 12.9479348,16.1665215 L13.3629503,16.1665215 L10.1243634,19.1751962 C9.76614907,19.5070353 9.76614907,20.0456358 10.1243634,20.3783258 L12.5210093,22.6050514 L11.1623602,24.3901757 C11.013028,24.5858757 10.9598913,24.8292244 11.0148602,25.0632135 L13.7633075,36.7686259 C13.8549224,37.1591751 14.227795,37.4382603 14.6583851,37.4382603 C15.0889752,37.4382603 15.4618478,37.1591751 15.5534627,36.7686259 L18.3019099,25.0632135 C18.3568789,24.8292244 18.3028261,24.5858757 18.1544099,24.3901757 L16.7957609,22.6050514 L19.1924068,20.3783258 C19.5506211,20.0456358 19.5506211,19.5070353 19.1924068,19.1751962 L15.9538199,16.1665215 L16.3688354,16.1665215 C22.4987888,16.1665215 27.484472,20.7978045 27.484472,26.4901218 L27.484472,36.5873907 Z M8.24534161,7.65782597 C8.24534161,4.3734695 11.1229658,1.7017391 14.6583851,1.7017391 C18.1938043,1.7017391 21.0714286,4.3734695 21.0714286,7.65782597 C21.0714286,10.9421824 18.1938043,13.6139128 14.6583851,13.6139128 C11.1229658,13.6139128 8.24534161,10.9421824 8.24534161,7.65782597 L8.24534161,7.65782597 Z M14.8535248,23.0024075 L16.4256366,25.066617 L14.6583851,32.5942599 L12.8911335,25.066617 L14.4632453,23.0024075 C14.7206832,22.6637614 14.6785404,22.2017392 14.3633851,21.9090401 L12.0675155,19.776761 L14.6583851,17.369651 L17.2492547,19.776761 L14.9533851,21.9090401 C14.6373137,22.2017392 14.596087,22.6637614 14.8535248,23.0024075 L14.8535248,23.0024075 Z M18.1379193,14.5907111 C20.9477484,13.3688624 22.9037267,10.7243598 22.9037267,7.65782597 C22.9037267,3.43581125 19.2052329,0 14.6583851,0 C10.1115373,0 6.41304348,3.43581125 6.41304348,7.65782597 C6.41304348,10.7243598 8.36902174,13.3688624 11.1788509,14.5907111 C4.87574534,15.3956337 0,20.4183166 0,26.4901218 L0,36.5873907 C0,37.994729 1.23313665,39.1399994 2.7484472,39.1399994 L26.568323,39.1399994 C28.0836335,39.1399994 29.3167702,37.994729 29.3167702,36.5873907 L29.3167702,26.4901218 C29.3167702,20.4183166 24.4410248,15.3956337 18.1379193,14.5907111 L18.1379193,14.5907111 Z" id="Fill-1" sketch:type="MSShapeGroup"></path>
            <path d="M21.0714286,27.2278257 C20.5647981,27.2278257 20.1552795,27.6090152 20.1552795,28.0786952 C20.1552795,28.5483752 20.5647981,28.9295648 21.0714286,28.9295648 L23.8198758,28.9295648 C24.3265062,28.9295648 24.7360248,28.5483752 24.7360248,28.0786952 C24.7360248,27.6090152 24.3265062,27.2278257 23.8198758,27.2278257 L21.0714286,27.2278257 Z" id="Fill-3" sketch:type="MSShapeGroup"></path>
        </g>
    </g>
</svg>