<?xml version="1.0" encoding="UTF-8"?>
<svg width="43px" height="44px" viewBox="0 0 43 44" version="1.1" xmlns="http://www.w3.org/2000/svg" xmlns:xlink="http://www.w3.org/1999/xlink">
    <!-- Generator: Sketch 42 (36781) - http://www.bohemiancoding.com/sketch -->
    <title>launch</title>
    <desc>Created with Sketch.</desc>
    <defs></defs>
    <g id="Page-1" stroke="none" stroke-width="1" fill="none" fill-rule="evenodd">
        <g id="launch" fill-rule="nonzero" fill="#48C0EB">
            <g id="Page-1">
                <g>
                    <g id="launch">
                        <g id="Page-1">
                            <g id="Group">
                                <g>
                                    <path d="M31.3392857,41.4642857 C26.2883571,41.4642857 22.1785715,37.3545001 22.1785715,32.3035715 C22.1785715,27.2526428 26.2883571,23.1428571 31.3392857,23.1428571 C36.3902143,23.1428571 40.5,27.2526428 40.5,32.3035715 C40.5,37.3545001 36.3902143,41.4642857 31.3392857,41.4642857 L31.3392857,41.4642857 Z M2.89285714,41.4642857 C2.36153571,41.4642857 1.92857143,41.0322856 1.92857143,40.5 L1.92857143,6.75000001 C1.92857143,6.21771428 2.36153571,5.78571428 2.89285714,5.78571428 L7.71428572,5.78571428 L7.71428572,7.61303571 C7.71428572,9.20892857 9.01221428,10.5058929 10.6071429,10.5058929 C12.2020714,10.5058929 13.5,9.20892857 13.5,7.61303571 L13.5,5.78571428 L23.1428571,5.78571428 L23.1428571,7.61303571 C23.1428571,9.20892857 24.4407858,10.5058929 26.0357143,10.5058929 C27.6306429,10.5058929 28.9285714,9.20892857 28.9285714,7.61303571 L28.9285714,5.78571428 L35.6785715,5.78571428 C36.2098929,5.78571428 36.6428571,6.21771428 36.6428571,6.75000001 L36.6428571,22.5681429 C35.0662501,21.7060714 33.2591785,21.2142857 31.3392857,21.2142857 C25.7155714,21.2142857 21.0677143,25.4253214 20.3551071,30.8571428 L17.3571428,30.8571428 C16.8248572,30.8571428 16.3928572,31.2881786 16.3928572,31.8214286 L16.3928572,35.6785715 C16.3928572,36.2118215 16.8248572,36.6428571 17.3571428,36.6428571 C17.8894285,36.6428571 18.3214286,36.2118215 18.3214286,35.6785715 L18.3214286,32.7857143 L20.2741071,32.7857143 C20.4303214,36.3873215 22.3000714,39.5511429 25.1003571,41.4642857 L2.89285714,41.4642857 Z M9.64285715,2.89285714 C9.64285715,2.36057143 10.0758214,1.92857143 10.6071429,1.92857143 C11.1384643,1.92857143 11.5714286,2.36057143 11.5714286,2.89285714 L11.5714286,7.61303571 C11.5714286,8.14532142 11.1384643,8.57732142 10.6071429,8.57732142 C10.0758214,8.57732142 9.64285715,8.14532142 9.64285715,7.61303571 L9.64285715,2.89285714 Z M25.0714286,2.89285714 C25.0714286,2.36057143 25.5043929,1.92857143 26.0357143,1.92857143 C26.5670358,1.92857143 27,2.36057143 27,2.89285714 L27,7.61303571 C27,8.14532142 26.5670358,8.57732142 26.0357143,8.57732142 C25.5043929,8.57732142 25.0714286,8.14532142 25.0714286,7.61303571 L25.0714286,2.89285714 Z M38.5714285,23.9152501 L38.5714285,6.75000001 C38.5714285,5.15507143 37.2735,3.85714285 35.6785715,3.85714285 L28.9285714,3.85714285 L28.9285714,2.89285714 C28.9285714,1.29792857 27.6306429,0 26.0357143,0 C24.4407858,0 23.1428571,1.29792857 23.1428571,2.89285714 L23.1428571,3.85714285 L13.5,3.85714285 L13.5,2.89285714 C13.5,1.29792857 12.2020714,0 10.6071429,0 C9.01221428,0 7.71428572,1.29792857 7.71428572,2.89285714 L7.71428572,3.85714285 L2.89285714,3.85714285 C1.29792857,3.85714285 0,5.15507143 0,6.75000001 L0,40.5 C0,42.0949285 1.29792857,43.3928572 2.89285714,43.3928572 L29.8928572,43.3928572 C29.9979642,43.3928572 30.0953571,43.3639286 30.1898572,43.3330714 C30.5678571,43.3716429 30.9516429,43.3928572 31.3392857,43.3928572 C37.4538214,43.3928572 42.4285714,38.4181072 42.4285714,32.3035715 C42.4285714,28.9526785 40.9281428,25.9508571 38.5714285,23.9152501 L38.5714285,23.9152501 Z" id="Fill-1"></path>
                                    <path d="M12.5357143,12.5357143 L8.67857142,12.5357143 C8.14628571,12.5357143 7.71428572,12.96675 7.71428572,13.5 L7.71428572,17.3571428 C7.71428572,17.8903929 8.14628571,18.3214286 8.67857142,18.3214286 C9.21085715,18.3214286 9.64285715,17.8903929 9.64285715,17.3571428 L9.64285715,14.4642857 L12.5357143,14.4642857 C13.068,14.4642857 13.5,14.03325 13.5,13.5 C13.5,12.96675 13.068,12.5357143 12.5357143,12.5357143" id="Fill-3"></path>
                                    <path d="M17.3571428,18.3214286 C17.8894285,18.3214286 18.3214286,17.8903929 18.3214286,17.3571428 L18.3214286,14.4642857 L21.2142857,14.4642857 C21.7465715,14.4642857 22.1785715,14.03325 22.1785715,13.5 C22.1785715,12.96675 21.7465715,12.5357143 21.2142857,12.5357143 L17.3571428,12.5357143 C16.8248572,12.5357143 16.3928572,12.96675 16.3928572,13.5 L16.3928572,17.3571428 C16.3928572,17.8903929 16.8248572,18.3214286 17.3571428,18.3214286" id="Fill-5"></path>
                                    <path d="M26.0357143,18.3214286 C26.568,18.3214286 27,17.8903929 27,17.3571428 L27,14.4642857 L29.8928572,14.4642857 C30.4251428,14.4642857 30.8571428,14.03325 30.8571428,13.5 C30.8571428,12.96675 30.4251428,12.5357143 29.8928572,12.5357143 L26.0357143,12.5357143 C25.5034285,12.5357143 25.0714286,12.96675 25.0714286,13.5 L25.0714286,17.3571428 C25.0714286,17.8903929 25.5034285,18.3214286 26.0357143,18.3214286" id="Fill-7"></path>
                                    <path d="M12.5357143,21.2142857 L8.67857142,21.2142857 C8.14628571,21.2142857 7.71428572,21.6453215 7.71428572,22.1785715 L7.71428572,26.0357143 C7.71428572,26.5689642 8.14628571,27 8.67857142,27 C9.21085715,27 9.64285715,26.5689642 9.64285715,26.0357143 L9.64285715,23.1428571 L12.5357143,23.1428571 C13.068,23.1428571 13.5,22.7118215 13.5,22.1785715 C13.5,21.6453215 13.068,21.2142857 12.5357143,21.2142857" id="Fill-9"></path>
                                    <path d="M17.3571428,27 C17.8894285,27 18.3214286,26.5689642 18.3214286,26.0357143 L18.3214286,23.1428571 L21.2142857,23.1428571 C21.7465715,23.1428571 22.1785715,22.7118215 22.1785715,22.1785715 C22.1785715,21.6453215 21.7465715,21.2142857 21.2142857,21.2142857 L17.3571428,21.2142857 C16.8248572,21.2142857 16.3928572,21.6453215 16.3928572,22.1785715 L16.3928572,26.0357143 C16.3928572,26.5689642 16.8248572,27 17.3571428,27" id="Fill-11"></path>
                                    <path d="M12.5357143,30.8571428 L8.67857142,30.8571428 C8.14628571,30.8571428 7.71428572,31.2881786 7.71428572,31.8214286 L7.71428572,35.6785715 C7.71428572,36.2118215 8.14628571,36.6428571 8.67857142,36.6428571 C9.21085715,36.6428571 9.64285715,36.2118215 9.64285715,35.6785715 L9.64285715,32.7857143 L12.5357143,32.7857143 C13.068,32.7857143 13.5,32.3546786 13.5,31.8214286 C13.5,31.2881786 13.068,30.8571428 12.5357143,30.8571428" id="Fill-13"></path>
                                    <path d="M35.9611071,28.2468214 L28.9285714,35.2793571 L26.7174642,33.06825 C26.3404286,32.6912143 25.731,32.6912143 25.3539643,33.06825 C24.9769286,33.4452857 24.9769286,34.0547143 25.3539643,34.4317499 L28.2468214,37.3246071 C28.4348572,37.5126428 28.6817143,37.6071429 28.9285714,37.6071429 C29.1754285,37.6071429 29.4222857,37.5126428 29.6103214,37.3246071 L37.3246071,29.6103214 C37.7016428,29.2332857 37.7016428,28.6238571 37.3246071,28.2468214 C36.9475714,27.8697857 36.3381428,27.8697857 35.9611071,28.2468214" id="Fill-15"></path>
                                </g>
                            </g>
                        </g>
                    </g>
                </g>
            </g>
        </g>
    </g>
</svg>