<?xml version="1.0" encoding="UTF-8" standalone="no"?>
<svg width="389px" height="168px" viewBox="0 0 389 168" version="1.1" xmlns="http://www.w3.org/2000/svg" xmlns:xlink="http://www.w3.org/1999/xlink" xmlns:sketch="http://www.bohemiancoding.com/sketch/ns">
    <!-- Generator: Sketch 3.5.1 (25234) - http://www.bohemiancoding.com/sketch -->
    <title>medium</title>
    <desc>Created with Sketch.</desc>
    <defs></defs>
    <g id="Page-1" stroke="none" stroke-width="1" fill="none" fill-rule="evenodd" sketch:type="MSPage">
        <g id="medium" sketch:type="MSLayerGroup">
            <rect id="Rectangle-1-Copy" fill="#FFFFFF" sketch:type="MSShapeGroup" x="1.13686838e-13" y="0" width="388.419142" height="168"></rect>
            <g id="Group" transform="translate(94.000000, 14.000000)">
                <g id="Oval-22-copy-2-+-70%" transform="translate(0.000000, 14.641854)">
                    <path d="M41.0913931,82.1896067 C63.7855439,82.1896067 82.1827862,63.7908377 82.1827862,41.0948034 C82.1827862,18.398769 63.7855439,0 41.0913931,0 C18.3972422,0 0,18.398769 0,41.0948034 C0,63.7908377 18.3972422,82.1896067 41.0913931,82.1896067 Z" id="Oval-22-copy-2" fill-opacity="0.7" fill="#48C0EB" sketch:type="MSShapeGroup"></path>
                    <text id="70%" sketch:type="MSTextLayer" font-family="Helvetica Neue" font-size="23.5201845" font-weight="bold" letter-spacing="-1.94375753" fill="#FFFFFF">
                        <tspan x="16.0070985" y="49.7457865">70%</tspan>
                    </text>
                </g>
                <g id="Oval-22-copy-2-+-85%" transform="translate(87.648625, 48.415730)">
                    <path d="M45.2883762,90.5842697 C70.300457,90.5842697 90.5767524,70.3062914 90.5767524,45.2921348 C90.5767524,20.2779782 70.300457,0 45.2883762,0 C20.2762955,0 0,20.2779782 0,45.2921348 C0,70.3062914 20.2762955,90.5842697 45.2883762,90.5842697 Z" id="Oval-22-copy-2" fill-opacity="0.85" fill="#48C0EB" sketch:type="MSShapeGroup"></path>
                    <text id="85%" sketch:type="MSTextLayer" font-family="Helvetica Neue" font-size="27.8923289" font-weight="bold" letter-spacing="-1.94375753" fill="#FFFFFF">
                        <tspan x="14.4454303" y="55.1123596">85%</tspan>
                    </text>
                </g>
                <g id="Oval-22-copy-4-+-25%" transform="translate(177.834960, 58.372191)">
                    <path d="M21.08252,42.1685393 C32.7260748,42.1685393 42.1650399,32.7287908 42.1650399,21.0842697 C42.1650399,9.43974849 32.7260748,1.42108547e-14 21.08252,1.42108547e-14 C9.43896512,1.42108547e-14 0,9.43974849 0,21.0842697 C0,32.7287908 9.43896512,42.1685393 21.08252,42.1685393 Z" id="Oval-22-copy-4" fill-opacity="0.25" fill="#48C0EB" sketch:type="MSShapeGroup"></path>
                    <text id="25%" sketch:type="MSTextLayer" font-family="Helvetica Neue" font-size="14.5878287" font-weight="bold" letter-spacing="-1.20512903" fill="#FFFFFF">
                        <tspan x="7.41792369" y="26.1039326">25%</tspan>
                    </text>
                </g>
                <g id="Oval-22-copy-3-+-5%" transform="translate(109.121562, 0.390449)">
                    <path d="M12.9813665,25.9648876 C20.1507775,25.9648876 25.9627329,20.1524499 25.9627329,12.9824438 C25.9627329,5.81243773 20.1507775,0 12.9813665,0 C5.81195538,0 0,5.81243773 0,12.9824438 C0,20.1524499 5.81195538,25.9648876 12.9813665,25.9648876 Z" id="Oval-22-copy-3" fill-opacity="0.2" fill="#48C0EB" sketch:type="MSShapeGroup"></path>
                    <text id="5%" sketch:type="MSTextLayer" font-family="Helvetica Neue" font-size="10.6837131" font-weight="bold" letter-spacing="-1.20512903" fill="#FFFFFF">
                        <tspan x="4.88021295" y="16.6376404">5%</tspan>
                    </text>
                </g>
                <g id="Oval-22-copy-2-+-5%-copy" transform="translate(60.709849, 79.651685)">
                    <path d="M13.4693878,26.9410112 C20.9083256,26.9410112 26.9387755,20.9100608 26.9387755,13.4705056 C26.9387755,6.03095042 20.9083256,0 13.4693878,0 C6.03044994,0 0,6.03095042 0,13.4705056 C0,20.9100608 6.03044994,26.9410112 13.4693878,26.9410112 Z" id="Oval-22-copy-2" fill-opacity="0.2" fill="#48C0EB" sketch:type="MSShapeGroup"></path>
                    <text id="5%-copy" sketch:type="MSTextLayer" font-family="Helvetica Neue" font-size="10.6837131" font-weight="bold" letter-spacing="-1.20512903" fill="#FFFFFF">
                        <tspan x="7.22271517" y="16.4424157">5%</tspan>
                    </text>
                </g>
                <g id="Oval-22-copy-+-35%" transform="translate(70.665484, 18.155899)">
                    <path d="M25.8651287,51.7345506 C40.1500455,51.7345506 51.7302573,40.1533776 51.7302573,25.8672753 C51.7302573,11.5811729 40.1500455,0 25.8651287,0 C11.5802118,0 0,11.5811729 0,25.8672753 C0,40.1533776 11.5802118,51.7345506 25.8651287,51.7345506 Z" id="Oval-22-copy" fill-opacity="0.35" fill="#48C0EB" sketch:type="MSShapeGroup"></path>
                    <text id="35%" sketch:type="MSTextLayer" font-family="Helvetica Neue" font-size="16.8071569" font-weight="bold" letter-spacing="-1.20512903" fill="#FFFFFF">
                        <tspan x="9.76042591" y="31.8132022">35%</tspan>
                    </text>
                </g>
                <g id="Oval-22-+-45%" transform="translate(129.423248, 0.000000)">
                    <path d="M32.5998225,65.2050562 C50.6042083,65.2050562 65.1996451,50.6084081 65.1996451,32.6025281 C65.1996451,14.5966481 50.6042083,0 32.5998225,0 C14.5954368,0 0,14.5966481 0,32.6025281 C0,50.6084081 14.5954368,65.2050562 32.5998225,65.2050562 Z" id="Oval-22" fill-opacity="0.45" fill="#48C0EB" sketch:type="MSShapeGroup"></path>
                    <text id="45%" sketch:type="MSTextLayer" font-family="Helvetica Neue" font-size="20.2404221" font-weight="bold" letter-spacing="-1.67163098" fill="#FFFFFF">
                        <tspan x="14.6406389" y="40.1081461">45%</tspan>
                    </text>
                </g>
            </g>
            <g id="Group-2" transform="translate(267.000000, 138.000000)" font-weight="normal" font-family="Avenir Next" fill="#5F6974" font-size="10.316" sketch:alignment="middle" sketch:type="MSTextLayer">
                <text id="Online-Advertisement">
                    <tspan x="1.13637912" y="10">Online Advertisement</tspan>
                </text>
            </g>
            <g id="Group-2-Copy" transform="translate(12.000000, 101.000000)" font-weight="normal" font-family="Avenir Next" fill="#5F6974" font-size="10.316" sketch:alignment="middle" sketch:type="MSTextLayer">
                <text id="TV-Advertisement">
                    <tspan x="0.993317122" y="10">TV Advertisement</tspan>
                </text>
            </g>
            <g id="Group-2" transform="translate(293.000000, 14.000000)" font-weight="normal" font-family="Avenir Next" fill="#5F6974" font-size="10.3157895" sketch:alignment="middle" sketch:type="MSTextLayer">
                <text id="Email-Blast">
                    <tspan x="1.21058954" y="10">Email Blast</tspan>
                </text>
            </g>
        </g>
    </g>
</svg>