<?xml version="1.0" encoding="UTF-8"?>
<svg width="36px" height="30px" viewBox="0 0 36 30" version="1.1" xmlns="http://www.w3.org/2000/svg" xmlns:xlink="http://www.w3.org/1999/xlink">
    <!-- Generator: Sketch 41.1 (35376) - http://www.bohemiancoding.com/sketch -->
    <title>onlineoffline</title>
    <desc>Created with Sketch.</desc>
    <defs></defs>
    <g id="Page-1" stroke="none" stroke-width="1" fill="none" fill-rule="evenodd">
        <g id="A4" transform="translate(-280.000000, -801.000000)">
            <g id="onlineoffline" transform="translate(280.000000, 801.000000)">
                <g id="Computer">
                    <path d="M3.74641148,16.2463606 L23.7272727,16.2463606 L23.7272727,3.74916013 L3.74641148,3.74916013 L3.74641148,16.2463606 Z M24.3516746,17.4960806 L3.12200957,17.4960806 C2.77733971,17.4960806 2.49760766,17.2161433 2.49760766,16.8712206 L2.49760766,3.12430011 C2.49760766,2.77937738 2.77733971,2.49944009 3.12200957,2.49944009 L24.3516746,2.49944009 C24.6963445,2.49944009 24.9760766,2.77937738 24.9760766,3.12430011 L24.9760766,16.8712206 C24.9760766,17.2161433 24.6963445,17.4960806 24.3516746,17.4960806 L24.3516746,17.4960806 Z" id="Fill-1" fill="#48C0EB"></path>
                    <path d="M1.87320574,1.24972004 C1.52916029,1.24972004 1.24880383,1.53028219 1.24880383,1.87458007 L1.24880383,21.2452408 C1.24880383,21.5895386 1.52916029,21.8701008 1.87320574,21.8701008 L25.6004785,21.8701008 C25.9445239,21.8701008 26.2248804,21.5895386 26.2248804,21.2452408 L26.2248804,1.87458007 C26.2248804,1.53028219 25.9445239,1.24972004 25.6004785,1.24972004 L1.87320574,1.24972004 Z M25.6004785,23.1198208 L1.87320574,23.1198208 C0.840444976,23.1198208 0,22.2787592 0,21.2452408 L0,1.87458007 C0,0.84106159 0.840444976,0 1.87320574,0 L25.6004785,0 C26.6332392,0 27.4736842,0.84106159 27.4736842,1.87458007 L27.4736842,21.2452408 C27.4736842,22.2787592 26.6332392,23.1198208 25.6004785,23.1198208 L25.6004785,23.1198208 Z" id="Fill-2" fill="#48C0EB"></path>
                    <path d="M8.74162679,28.118701 L18.7320574,28.118701 L18.7320574,27.493841 C18.7320574,27.1495431 18.451701,26.868981 18.1076555,26.868981 L17.7086627,26.868981 C17.1573158,26.868981 16.6359402,26.6271601 16.2794067,26.2060045 C15.9228732,25.7848488 15.7698947,25.230598 15.8610574,24.6863449 L16.121433,23.1198208 L11.3522512,23.1198208 L11.6126268,24.6863449 C11.7037895,25.230598 11.550811,25.7848488 11.1942775,26.2060045 C10.837744,26.6271601 10.3163684,26.868981 9.76502153,26.868981 L9.36602871,26.868981 C9.02198325,26.868981 8.74162679,27.1495431 8.74162679,27.493841 L8.74162679,28.118701 Z M19.3564593,29.3684211 L8.11722488,29.3684211 C7.77255502,29.3684211 7.49282297,29.0884838 7.49282297,28.743561 L7.49282297,27.493841 C7.49282297,26.4603225 8.33326794,25.6192609 9.36602871,25.6192609 L9.76502153,25.6192609 C9.9517177,25.6192609 10.1209306,25.5411534 10.2414402,25.3980605 C10.3619498,25.2555924 10.4112775,25.0756327 10.3806818,24.8919239 L9.99917225,22.5980627 C9.96857656,22.4168533 10.0197775,22.2312699 10.1384139,22.0913012 C10.2570502,21.9507077 10.4312584,21.8701008 10.6148325,21.8701008 L16.8588517,21.8701008 C17.0424258,21.8701008 17.216634,21.9507077 17.3352703,22.0913012 C17.4539067,22.2312699 17.5051077,22.4168533 17.474512,22.5980627 L17.0930024,24.8919239 C17.0624067,25.0756327 17.1117344,25.2555924 17.232244,25.3980605 C17.3527536,25.5411534 17.5219665,25.6192609 17.7086627,25.6192609 L18.1076555,25.6192609 C19.1404163,25.6192609 19.9808612,26.4603225 19.9808612,27.493841 L19.9808612,28.743561 C19.9808612,29.0884838 19.7011292,29.3684211 19.3564593,29.3684211 L19.3564593,29.3684211 Z" id="Fill-3" fill="#48C0EB"></path>
                    <path d="M13.4246411,20.9328108 C12.7359258,20.9328108 12.1758373,20.3723113 12.1758373,19.6830907 C12.1758373,18.9938701 12.7359258,18.4333707 13.4246411,18.4333707 C14.1133565,18.4333707 14.673445,18.9938701 14.673445,19.6830907 C14.673445,20.3723113 14.1133565,20.9328108 13.4246411,20.9328108" id="Fill-4" fill="#FFCE38"></path>
                </g>
                <g id="Envelope" transform="translate(20.842105, 16.421053)">
                    <g id="Group-6" transform="translate(0.439359, 0.219015)" fill="#FFFFFF">
                        <rect id="Rectangle-2" x="0" y="4.3803056" width="14.4988558" height="8.54159593" rx="4.27079796"></rect>
                        <polygon id="Triangle" points="7.24942792 0 14.4988558 4.59932088 0 4.59932088"></polygon>
                    </g>
                    <path d="M13.8398169,12.9165609 L1.3180778,12.9165609 C0.954617849,12.9165609 0.659038902,12.6194805 0.659038902,12.2541744 L0.659038902,5.1835298 L14.4721648,12.4406362 C14.3920915,12.7155266 14.1386911,12.9165609 13.8398169,12.9165609 L13.8398169,12.9165609 Z M7.26326773,0.712089802 L14.128476,4.31216037 L7.42143707,7.98906778 L0.994489703,4.61255265 L7.26326773,0.712089802 Z M14.4988558,11.7073743 L8.12397254,8.35834825 L14.4988558,4.86359713 L14.4988558,11.7073743 Z M0.439359268,13.2408867 C0.169826412,12.9981662 0,12.64577 0,12.2541744 L0,4.63672976 C0,4.61453981 0.00428375286,4.59334344 0.00823798627,4.57214707 C0.00922654462,4.56751037 0.00889702517,4.56254247 0.010215103,4.55757457 C0.0191121281,4.52114331 0.0352585812,4.48769279 0.0556887872,4.45656063 C0.0606315789,4.44861199 0.0659038902,4.44198813 0.0715057208,4.43470188 C0.0942425629,4.40555687 0.1202746,4.3793926 0.152237986,4.35885862 C0.153885584,4.35786504 0.154544622,4.35620908 0.15619222,4.3552155 L7.07610069,0.0497033126 C7.17495652,-0.011898631 7.29885584,-0.0165353364 7.40199542,0.0374491625 L14.9809428,4.0117681 C14.9829199,4.01309287 14.984238,4.01508003 14.9862151,4.01640481 C14.9898398,4.01806077 14.9934645,4.01872316 14.9967597,4.02071032 C15.026746,4.03892595 15.0517895,4.06210948 15.0745263,4.08794255 C15.0804577,4.09489761 15.0850709,4.10218386 15.0906728,4.10947011 C15.1097849,4.13530318 15.1249428,4.16345461 15.1358169,4.19359319 C15.1381236,4.19988586 15.1414188,4.20551615 15.1433959,4.21180882 C15.1522929,4.24194741 15.1578947,4.27307957 15.1578947,4.30553651 L15.1578947,12.2541744 C15.1578947,12.64577 14.9880683,12.9981662 14.7185355,13.2408867 L14.7185355,13.2477298 L14.7108772,13.2477298 C14.4784718,13.4537916 14.173443,13.5789474 13.8398169,13.5789474 L1.3180778,13.5789474 C0.984451723,13.5789474 0.679422949,13.4537916 0.447017498,13.2477298 L0.439359268,13.2477298 L0.439359268,13.2408867 Z" id="Page-1" fill="#FFCE38"></path>
                </g>
            </g>
        </g>
    </g>
</svg>