<?xml version="1.0" encoding="UTF-8"?>
<svg width="38px" height="32px" viewBox="0 0 38 32" version="1.1" xmlns="http://www.w3.org/2000/svg" xmlns:xlink="http://www.w3.org/1999/xlink">
    <!-- Generator: Sketch 40.3 (33839) - http://www.bohemiancoding.com/sketch -->
    <title>personlevel</title>
    <desc>Created with Sketch.</desc>
    <defs></defs>
    <g id="Page-1" stroke="none" stroke-width="1" fill="none" fill-rule="evenodd">
        <g id="personlevel" fill="#48C0EB">
            <path d="M36.8944099,32 L0.819875776,32 C0.366484472,32 0,31.6332308 0,31.1794872 C0,30.7257436 0.366484472,30.3589744 0.819875776,30.3589744 L36.8944099,30.3589744 C37.3478012,30.3589744 37.7142857,30.7257436 37.7142857,31.1794872 C37.7142857,31.6332308 37.3478012,32 36.8944099,32" id="Fill-1"></path>
            <path d="M1.63975155,31.1794872 C1.18636025,31.1794872 0.819875776,30.8127179 0.819875776,30.3589744 L0.819875776,29.5384615 C0.819875776,29.0847179 1.18636025,28.7179487 1.63975155,28.7179487 C2.09314286,28.7179487 2.45962733,29.0847179 2.45962733,29.5384615 L2.45962733,30.3589744 C2.45962733,30.8127179 2.09314286,31.1794872 1.63975155,31.1794872" id="Fill-3"></path>
            <path d="M6.55900621,31.1794872 C6.10561491,31.1794872 5.73913043,30.8127179 5.73913043,30.3589744 L5.73913043,29.5384615 C5.73913043,29.0847179 6.10561491,28.7179487 6.55900621,28.7179487 C7.01239752,28.7179487 7.37888199,29.0847179 7.37888199,29.5384615 L7.37888199,30.3589744 C7.37888199,30.8127179 7.01239752,31.1794872 6.55900621,31.1794872" id="Fill-5"></path>
            <path d="M11.4782609,31.1794872 C11.0248696,31.1794872 10.6583851,30.8127179 10.6583851,30.3589744 L10.6583851,29.5384615 C10.6583851,29.0847179 11.0248696,28.7179487 11.4782609,28.7179487 C11.9316522,28.7179487 12.2981366,29.0847179 12.2981366,29.5384615 L12.2981366,30.3589744 C12.2981366,30.8127179 11.9316522,31.1794872 11.4782609,31.1794872" id="Fill-7"></path>
            <path d="M16.3975155,31.1794872 C15.9441242,31.1794872 15.5776398,30.8127179 15.5776398,30.3589744 L15.5776398,29.5384615 C15.5776398,29.0847179 15.9441242,28.7179487 16.3975155,28.7179487 C16.8509068,28.7179487 17.2173913,29.0847179 17.2173913,29.5384615 L17.2173913,30.3589744 C17.2173913,30.8127179 16.8509068,31.1794872 16.3975155,31.1794872" id="Fill-9"></path>
            <path d="M21.3167702,31.1794872 C20.8633789,31.1794872 20.4968944,30.8127179 20.4968944,30.3589744 L20.4968944,29.5384615 C20.4968944,29.0847179 20.8633789,28.7179487 21.3167702,28.7179487 C21.7701615,28.7179487 22.136646,29.0847179 22.136646,29.5384615 L22.136646,30.3589744 C22.136646,30.8127179 21.7701615,31.1794872 21.3167702,31.1794872" id="Fill-11"></path>
            <path d="M26.2360248,31.1794872 C25.7826335,31.1794872 25.4161491,30.8127179 25.4161491,30.3589744 L25.4161491,29.5384615 C25.4161491,29.0847179 25.7826335,28.7179487 26.2360248,28.7179487 C26.6894161,28.7179487 27.0559006,29.0847179 27.0559006,29.5384615 L27.0559006,30.3589744 C27.0559006,30.8127179 26.6894161,31.1794872 26.2360248,31.1794872" id="Fill-13"></path>
            <path d="M31.1552795,31.1794872 C30.7018882,31.1794872 30.3354037,30.8127179 30.3354037,30.3589744 L30.3354037,29.5384615 C30.3354037,29.0847179 30.7018882,28.7179487 31.1552795,28.7179487 C31.6086708,28.7179487 31.9751553,29.0847179 31.9751553,29.5384615 L31.9751553,30.3589744 C31.9751553,30.8127179 31.6086708,31.1794872 31.1552795,31.1794872" id="Fill-15"></path>
            <path d="M36.0745342,31.1794872 C35.6211429,31.1794872 35.2546584,30.8127179 35.2546584,30.3589744 L35.2546584,29.5384615 C35.2546584,29.0847179 35.6211429,28.7179487 36.0745342,28.7179487 C36.5279255,28.7179487 36.8944099,29.0847179 36.8944099,29.5384615 L36.8944099,30.3589744 C36.8944099,30.8127179 36.5279255,31.1794872 36.0745342,31.1794872" id="Fill-17"></path>
            <path d="M6.55900621,19.6923077 C5.65468323,19.6923077 4.91925466,20.4291282 4.91925466,21.3333333 C4.91925466,22.2375385 5.65468323,22.974359 6.55900621,22.974359 C7.46250932,22.974359 8.19875776,22.2375385 8.19875776,21.3333333 C8.19875776,20.4291282 7.46250932,19.6923077 6.55900621,19.6923077 M6.55900621,24.6153846 C4.75036025,24.6153846 3.27950311,23.1433846 3.27950311,21.3333333 C3.27950311,19.5232821 4.75036025,18.0512821 6.55900621,18.0512821 C8.36765217,18.0512821 9.83850932,19.5232821 9.83850932,21.3333333 C9.83850932,23.1433846 8.36765217,24.6153846 6.55900621,24.6153846" id="Fill-19"></path>
            <path d="M14.757764,9.84615385 C13.853441,9.84615385 13.1180124,10.5821538 13.1180124,11.4871795 C13.1180124,12.3913846 13.853441,13.1282051 14.757764,13.1282051 C15.6612671,13.1282051 16.3975155,12.3913846 16.3975155,11.4871795 C16.3975155,10.5821538 15.6612671,9.84615385 14.757764,9.84615385 M14.757764,14.7692308 C12.949118,14.7692308 11.4782609,13.2972308 11.4782609,11.4871795 C11.4782609,9.67712821 12.949118,8.20512821 14.757764,8.20512821 C16.5664099,8.20512821 18.0372671,9.67712821 18.0372671,11.4871795 C18.0372671,13.2972308 16.5664099,14.7692308 14.757764,14.7692308" id="Fill-21"></path>
            <path d="M26.2360248,13.1282051 C25.3317019,13.1282051 24.5962733,13.8642051 24.5962733,14.7692308 C24.5962733,15.6734359 25.3317019,16.4102564 26.2360248,16.4102564 C27.139528,16.4102564 27.8757764,15.6734359 27.8757764,14.7692308 C27.8757764,13.8642051 27.139528,13.1282051 26.2360248,13.1282051 M26.2360248,18.0512821 C24.4273789,18.0512821 22.9565217,16.5792821 22.9565217,14.7692308 C22.9565217,12.9591795 24.4273789,11.4871795 26.2360248,11.4871795 C28.0446708,11.4871795 29.515528,12.9591795 29.515528,14.7692308 C29.515528,16.5792821 28.0446708,18.0512821 26.2360248,18.0512821" id="Fill-23"></path>
            <path d="M31.9751553,1.64102564 C31.0708323,1.64102564 30.3354037,2.37702564 30.3354037,3.28205128 C30.3354037,4.18625641 31.0708323,4.92307692 31.9751553,4.92307692 C32.8786584,4.92307692 33.6149068,4.18625641 33.6149068,3.28205128 C33.6149068,2.37702564 32.8786584,1.64102564 31.9751553,1.64102564 M31.9751553,6.56410256 C30.1665093,6.56410256 28.6956522,5.09210256 28.6956522,3.28205128 C28.6956522,1.472 30.1665093,0 31.9751553,0 C33.7838012,0 35.2546584,1.472 35.2546584,3.28205128 C35.2546584,5.09210256 33.7838012,6.56410256 31.9751553,6.56410256" id="Fill-25"></path>
            <polygon id="Fill-27" points="7.99616646 20.2323692 6.76143354 19.1525744 12.500564 12.5884718 13.7352969 13.6682667"></polygon>
            <polygon id="Fill-29" points="23.5778236 14.7443692 17.0188174 13.1033436 17.4156373 11.5123692 23.9746435 13.1533949"></polygon>
            <path d="M27.1055031,13.1826872 C26.9726832,13.1826872 26.8472422,13.1203282 26.690646,13.0423795 L27.4211553,11.572841 L27.0563106,12.3080205 L26.4873168,11.729559 C26.8078882,11.3513026 28.9985963,7.75581538 30.4514161,5.32217436 L31.8591429,6.16484103 C28.3385963,12.0569436 27.6662981,13.1826872 27.1055031,13.1826872" id="Fill-31"></path>
        </g>
    </g>
</svg>