<?xml version="1.0" encoding="UTF-8"?>
<svg width="30px" height="30px" viewBox="0 0 30 30" version="1.1" xmlns="http://www.w3.org/2000/svg" xmlns:xlink="http://www.w3.org/1999/xlink">
    <!-- Generator: Sketch 41.1 (35376) - http://www.bohemiancoding.com/sketch -->
    <title>prespend</title>
    <desc>Created with Sketch.</desc>
    <defs></defs>
    <g id="Page-1" stroke="none" stroke-width="1" fill="none" fill-rule="evenodd">
        <g id="A4" transform="translate(-464.000000, -627.000000)">
            <g id="prespend" transform="translate(464.000000, 627.000000)">
                <path d="M15,1.27659574 C7.43297872,1.27659574 1.27659574,7.43297872 1.27659574,15 C1.27659574,22.5670213 7.43297872,28.7234043 15,28.7234043 C22.5670213,28.7234043 28.7234043,22.5670213 28.7234043,15 C28.7234043,7.43297872 22.5670213,1.27659574 15,1.27659574 M15,30 C6.72893617,30 0,23.2710638 0,15 C0,6.72893617 6.72893617,0 15,0 C23.2710638,0 30,6.72893617 30,15 C30,23.2710638 23.2710638,30 15,30" id="Fill-1" fill="#48C0EB"></path>
                <path d="M14.8684468,20.106383 C12.7512128,20.106383 11.7612128,18.9089362 11.3871702,18.4429787 L11.318234,18.3746809 C11.0922766,18.1046809 11.1292979,17.7102128 11.3999362,17.4848936 C11.6699362,17.2589362 12.0733404,17.2991489 12.2986596,17.5704255 L12.3822766,17.6412766 C12.7256809,18.0689362 13.3633404,18.8297872 14.8678085,18.8297872 L14.9067447,18.8297872 C15.7256809,18.8297872 16.4744043,18.1921277 16.611,17.3521277 C16.7948298,16.2197872 15.8163191,15.1870213 13.9939787,14.5608511 C12.0012128,13.8753191 11.5275957,12.2929787 11.7267447,11.1382979 C11.9527021,9.83234043 13.0901489,8.5193617 14.8729149,8.54553191 C16.9263191,8.56851064 17.7580213,10.2485106 17.7924894,10.32 C17.9456809,10.637234 17.8122766,11.0195745 17.4944043,11.172766 C17.1790851,11.3246809 16.7986596,11.1944681 16.6441915,10.8797872 C16.6167447,10.8255319 16.0978085,9.84 14.858234,9.82595745 C13.7878085,9.82340426 13.118234,10.5906383 12.9848298,11.3642553 C12.8297234,12.2604255 13.3627021,13.0104255 14.4088723,13.3697872 C18.0541915,14.6234043 17.9801489,16.883617 17.871,17.556383 C17.6341915,19.0161702 16.364617,20.106383 14.9188723,20.106383 L14.8684468,20.106383 Z" id="Fill-2" fill="#FFCE38"></path>
                <path d="M15,9.25531915 C14.6476596,9.25531915 14.3617021,8.9693617 14.3617021,8.61702128 L14.3617021,7.34042553 C14.3617021,6.98808511 14.6476596,6.70212766 15,6.70212766 C15.3523404,6.70212766 15.6382979,6.98808511 15.6382979,7.34042553 L15.6382979,8.61702128 C15.6382979,8.9693617 15.3523404,9.25531915 15,9.25531915" id="Fill-3" fill="#FFCE38"></path>
                <path d="M15,22.0212766 C14.6476596,22.0212766 14.3617021,21.7353191 14.3617021,21.3829787 L14.3617021,20.106383 C14.3617021,19.7540426 14.6476596,19.4680851 15,19.4680851 C15.3523404,19.4680851 15.6382979,19.7540426 15.6382979,20.106383 L15.6382979,21.3829787 C15.6382979,21.7353191 15.3523404,22.0212766 15,22.0212766" id="Fill-4" fill="#FFCE38"></path>
                <path d="M15,4.14893617 C14.6476596,4.14893617 14.3617021,3.86297872 14.3617021,3.5106383 L14.3617021,2.23404255 C14.3617021,1.88170213 14.6476596,1.59574468 15,1.59574468 C15.3523404,1.59574468 15.6382979,1.88170213 15.6382979,2.23404255 L15.6382979,3.5106383 C15.6382979,3.86297872 15.3523404,4.14893617 15,4.14893617" id="Fill-5" fill="#48C0EB"></path>
                <path d="M15,28.4042553 C14.6476596,28.4042553 14.3617021,28.1182979 14.3617021,27.7659574 L14.3617021,26.4893617 C14.3617021,26.1370213 14.6476596,25.8510638 15,25.8510638 C15.3523404,25.8510638 15.6382979,26.1370213 15.6382979,26.4893617 L15.6382979,27.7659574 C15.6382979,28.1182979 15.3523404,28.4042553 15,28.4042553" id="Fill-6" fill="#48C0EB"></path>
                <path d="M27.7659574,15.6382979 L26.4893617,15.6382979 C26.1370213,15.6382979 25.8510638,15.3523404 25.8510638,15 C25.8510638,14.6476596 26.1370213,14.3617021 26.4893617,14.3617021 L27.7659574,14.3617021 C28.1182979,14.3617021 28.4042553,14.6476596 28.4042553,15 C28.4042553,15.3523404 28.1182979,15.6382979 27.7659574,15.6382979" id="Fill-7" fill="#48C0EB"></path>
                <path d="M3.5106383,15.6382979 L2.23404255,15.6382979 C1.88170213,15.6382979 1.59574468,15.3523404 1.59574468,15 C1.59574468,14.6476596 1.88170213,14.3617021 2.23404255,14.3617021 L3.5106383,14.3617021 C3.86297872,14.3617021 4.14893617,14.6476596 4.14893617,15 C4.14893617,15.3523404 3.86297872,15.6382979 3.5106383,15.6382979" id="Fill-8" fill="#48C0EB"></path>
                <path d="M23.1242553,7.51404255 C22.9608511,7.51404255 22.7974468,7.45148936 22.6729787,7.32702128 C22.4234043,7.07744681 22.4234043,6.67404255 22.6729787,6.42446809 L23.5755319,5.52191489 C23.8251064,5.27234043 24.2285106,5.27234043 24.4780851,5.52191489 C24.7276596,5.77148936 24.7276596,6.17489362 24.4780851,6.42446809 L23.5755319,7.32702128 C23.4510638,7.45148936 23.2876596,7.51404255 23.1242553,7.51404255" id="Fill-9" fill="#48C0EB"></path>
                <path d="M5.97312766,24.6651702 C5.8097234,24.6651702 5.64631915,24.602617 5.52185106,24.4781489 C5.2722766,24.2285745 5.2722766,23.8251702 5.52185106,23.5755957 L6.42440426,22.6730426 C6.67397872,22.4234681 7.07738298,22.4234681 7.32695745,22.6730426 C7.57653191,22.922617 7.57653191,23.3260213 7.32695745,23.5755957 L6.42440426,24.4781489 C6.29993617,24.602617 6.13653191,24.6651702 5.97312766,24.6651702" id="Fill-10" fill="#48C0EB"></path>
                <path d="M24.0268723,24.6651702 C23.8634681,24.6651702 23.7000638,24.602617 23.5755957,24.4781489 L22.6730426,23.5755957 C22.4234681,23.3260213 22.4234681,22.922617 22.6730426,22.6730426 C22.922617,22.4234681 23.3260213,22.4234681 23.5755957,22.6730426 L24.4781489,23.5755957 C24.7277234,23.8251702 24.7277234,24.2285745 24.4781489,24.4781489 C24.3536809,24.602617 24.1902766,24.6651702 24.0268723,24.6651702" id="Fill-11" fill="#48C0EB"></path>
                <path d="M6.87574468,7.51404255 C6.71234043,7.51404255 6.54893617,7.45148936 6.42446809,7.32702128 L5.52191489,6.42446809 C5.27234043,6.17489362 5.27234043,5.77148936 5.52191489,5.52191489 C5.77148936,5.27234043 6.17489362,5.27234043 6.42446809,5.52191489 L7.32702128,6.42446809 C7.57659574,6.67404255 7.57659574,7.07744681 7.32702128,7.32702128 C7.20255319,7.45148936 7.03914894,7.51404255 6.87574468,7.51404255" id="Fill-12" fill="#48C0EB"></path>
                <path d="M11.1019787,4.83057447 C10.8402766,4.83057447 10.5951702,4.66844681 10.5013404,4.40865957 L10.0685745,3.20802128 C9.94921277,2.87546809 10.1209149,2.5103617 10.4521915,2.3903617 C10.7841064,2.2716383 11.1498511,2.44270213 11.2698511,2.77461702 L11.702617,3.97525532 C11.8219787,4.30717021 11.6502766,4.67291489 11.3183617,4.7922766 C11.2468723,4.81780851 11.1741064,4.83057447 11.1019787,4.83057447" id="Fill-13" fill="#48C0EB"></path>
                <path d="M19.3309787,27.6475532 C19.0692766,27.6475532 18.8241702,27.4854255 18.7303404,27.2256383 L18.2975745,26.025 C18.1782128,25.6924468 18.3499149,25.3273404 18.6811915,25.2073404 C19.0124681,25.088617 19.3788511,25.2596809 19.4988511,25.5915957 L19.931617,26.792234 C20.0509787,27.1241489 19.8792766,27.4898936 19.5473617,27.6092553 C19.4758723,27.6347872 19.4031064,27.6475532 19.3309787,27.6475532" id="Fill-14" fill="#48C0EB"></path>
                <path d="M25.8080426,11.7405957 C25.5463404,11.7405957 25.301234,11.5784681 25.2074043,11.3186809 C25.0880426,10.986766 25.2597447,10.6210213 25.5916596,10.5016596 L26.7922979,10.0682553 C27.1235745,9.94889362 27.4893191,10.1205957 27.6093191,10.4525106 C27.7286809,10.7837872 27.5569787,11.1501702 27.2257021,11.2695319 L26.0244255,11.7022979 C25.9529362,11.7278298 25.8801702,11.7405957 25.8080426,11.7405957" id="Fill-15" fill="#48C0EB"></path>
                <path d="M2.99106383,19.9695319 C2.7293617,19.9695319 2.48425532,19.8074043 2.39042553,19.547617 C2.27106383,19.2157021 2.44276596,18.8499574 2.77468085,18.7305957 L3.97531915,18.2971915 C4.30787234,18.1778298 4.67297872,18.3495319 4.79234043,18.6814468 C4.91170213,19.0133617 4.74,19.3791064 4.4087234,19.4984681 L3.20744681,19.931234 C3.13595745,19.956766 3.06319149,19.9695319 2.99106383,19.9695319" id="Fill-16" fill="#48C0EB"></path>
                <path d="M19.8857234,5.23978723 C19.7944468,5.23978723 19.7025319,5.2206383 19.6144468,5.17914894 C19.2952979,5.02914894 19.1580638,4.6493617 19.3080638,4.33021277 L19.8512553,3.17489362 C20.0012553,2.85510638 20.3804043,2.71851064 20.7001915,2.86851064 C21.0193404,3.01851064 21.1565745,3.39829787 21.0065745,3.71744681 L20.4640213,4.87276596 C20.3548723,5.10446809 20.1250851,5.23978723 19.8857234,5.23978723" id="Fill-17" fill="#48C0EB"></path>
                <path d="M9.57070213,27.1921915 C9.47942553,27.1921915 9.38751064,27.1730426 9.29942553,27.1315532 C8.9802766,26.9815532 8.84304255,26.601766 8.99304255,26.282617 L9.53623404,25.1272979 C9.68623404,24.8081489 10.0660213,24.6702766 10.3851702,24.8209149 C10.7043191,24.9709149 10.8415532,25.3507021 10.6915532,25.6698511 L10.149,26.8251702 C10.0398511,27.0568723 9.81006383,27.1921915 9.57070213,27.1921915" id="Fill-18" fill="#48C0EB"></path>
                <path d="M26.5535745,21.0672766 C26.4622979,21.0672766 26.370383,21.0481277 26.2822979,21.0066383 L25.1269787,20.4640851 C24.8078298,20.3134468 24.6705957,19.9336596 24.8205957,19.6145106 C24.9705957,19.2953617 25.3497447,19.158766 25.6701702,19.3081277 L26.8254894,19.8513191 C27.1446383,20.0013191 27.2818723,20.3811064 27.1318723,20.7002553 C27.0227234,20.9319574 26.7929362,21.0672766 26.5535745,21.0672766" id="Fill-19" fill="#48C0EB"></path>
                <path d="M4.60117021,10.7522553 C4.50989362,10.7522553 4.41797872,10.7331064 4.32989362,10.691617 L3.17457447,10.1490638 C2.85542553,9.99842553 2.71819149,9.6186383 2.86819149,9.29948936 C3.01819149,8.98034043 3.39797872,8.84310638 3.71776596,8.99310638 L4.87308511,9.53629787 C5.19223404,9.68629787 5.32946809,10.0660851 5.17946809,10.385234 C5.07031915,10.6169362 4.84053191,10.7522553 4.60117021,10.7522553" id="Fill-20" fill="#48C0EB"></path>
            </g>
        </g>
    </g>
</svg>