<?xml version="1.0" encoding="UTF-8"?>
<svg width="44px" height="44px" viewBox="0 0 44 44" version="1.1" xmlns="http://www.w3.org/2000/svg" xmlns:xlink="http://www.w3.org/1999/xlink">
    <!-- Generator: Sketch 42 (36781) - http://www.bohemiancoding.com/sketch -->
    <title>refine</title>
    <desc>Created with Sketch.</desc>
    <defs></defs>
    <g id="Page-1" stroke="none" stroke-width="1" fill="none" fill-rule="evenodd">
        <g id="refine" fill-rule="nonzero" fill="#48C0EB">
            <g id="Page-1">
                <g>
                    <g id="refine">
                        <g id="Page-1">
                            <g id="Group">
                                <path d="M42.0869566,41.4506305 L40.173913,41.4506305 L40.173913,39.537587 C40.173913,39.009587 39.7463477,38.5810653 39.2173913,38.5810653 C38.6884347,38.5810653 38.2608696,39.009587 38.2608696,39.537587 L38.2608696,41.4506305 L36.347826,41.4506305 L36.347826,39.537587 C36.347826,39.009587 35.9202609,38.5810653 35.3913043,38.5810653 C34.8623477,38.5810653 34.4347826,39.009587 34.4347826,39.537587 L34.4347826,41.4506305 L32.5217391,41.4506305 L32.5217391,39.537587 C32.5217391,39.009587 32.094174,38.5810653 31.5652174,38.5810653 C31.0362609,38.5810653 30.6086957,39.009587 30.6086957,39.537587 L30.6086957,41.4506305 L28.6956523,41.4506305 L28.6956523,36.6680219 C28.6956523,36.1400219 28.268087,35.7115002 27.7391304,35.7115002 C27.210174,35.7115002 26.7826087,36.1400219 26.7826087,36.6680219 L26.7826087,41.4506305 L24.8695653,41.4506305 L24.8695653,39.537587 C24.8695653,39.009587 24.442,38.5810653 23.9130434,38.5810653 C23.384087,38.5810653 22.9565217,39.009587 22.9565217,39.537587 L22.9565217,41.4506305 L21.0434783,41.4506305 L21.0434783,39.537587 C21.0434783,39.009587 20.615913,38.5810653 20.0869566,38.5810653 C19.558,38.5810653 19.1304347,39.009587 19.1304347,39.537587 L19.1304347,41.4506305 L17.2173913,41.4506305 L17.2173913,39.537587 C17.2173913,39.009587 16.789826,38.5810653 16.2608696,38.5810653 C15.731913,38.5810653 15.3043478,39.009587 15.3043478,39.537587 L15.3043478,41.4506305 L13.3913043,41.4506305 L13.3913043,39.537587 C13.3913043,39.009587 12.9637391,38.5810653 12.4347826,38.5810653 C11.9058261,38.5810653 11.4782609,39.009587 11.4782609,39.537587 L11.4782609,41.4506305 L9.5652174,41.4506305 L9.5652174,39.537587 C9.5652174,39.009587 9.13765217,38.5810653 8.60869566,38.5810653 C8.07973913,38.5810653 7.65217391,39.009587 7.65217391,39.537587 L7.65217391,41.4506305 L5.73913043,41.4506305 L5.73913043,39.537587 C5.73913043,39.009587 5.31156523,38.5810653 4.7826087,38.5810653 C4.25365217,38.5810653 3.82608696,39.009587 3.82608696,39.537587 L3.82608696,41.4506305 L1.91304347,41.4506305 L1.91304347,30.9288915 L9.71156523,30.9288915 L9.07165217,33.1040219 C8.97313043,33.4397609 9.06495653,33.8022826 9.31269566,34.0500219 C9.4953913,34.2327175 9.73930434,34.3302826 9.98895653,34.3302826 C10.0788696,34.3302826 10.1706957,34.3178479 10.2596522,34.2920219 L21.6948696,30.9288915 L42.0869566,30.9288915 L42.0869566,41.4506305 Z M30.2806087,6.3195001 L31.6331304,7.67202183 L16.0772174,23.2288915 L14.7246957,21.8763696 L30.2806087,6.3195001 Z M33.9813913,2.61871749 C34.9264347,1.67558706 36.4587826,1.6775001 37.401913,2.61871749 L40.745913,5.96271749 C41.688087,6.9048914 41.688087,8.43915227 40.745913,9.3822827 L38.3976523,11.7305436 L31.6331304,4.96697836 L33.9813913,2.61871749 Z M21.4882609,28.6399349 L20.1347826,27.2864566 L35.6916523,11.7295871 L37.044174,13.0830653 L21.4882609,28.6399349 Z M34.3391304,10.3770653 L18.7822609,25.9339349 L17.4297391,24.5814132 L32.9866087,9.02454359 L34.3391304,10.3770653 Z M16.5363477,30.451587 L12.912087,26.8273262 L13.8686087,23.6918479 L18.173913,27.9617609 L18.173913,28.0593262 L18.1069566,28.0593262 L19.6727826,29.5773262 L16.5363477,30.451587 Z M12.2970435,28.9173262 L14.4453913,31.0666305 L11.4017391,31.9619349 L12.2970435,28.9173262 Z M43.0434783,29.0158479 L23.8173913,29.0158479 L39.073913,13.7593262 L42.0984347,10.7348045 C43.7857391,9.04654359 43.7857391,6.29845663 42.0984347,4.61019576 L38.7544347,1.26619575 C37.0652174,-0.423021637 34.318087,-0.421108593 32.6288696,1.26619575 L29.6043477,4.29071749 L12.6949565,21.2001088 C12.6834783,21.211587 12.6796522,21.2278479 12.6681739,21.2402826 C12.6270435,21.2861958 12.5983478,21.3397609 12.5667826,21.3942826 C12.5323478,21.4507175 12.4969565,21.5042826 12.4749565,21.5664566 C12.4701739,21.5808045 12.4586957,21.5913262 12.453913,21.605674 L10.2749565,29.0158479 L0.95652174,29.0158479 C0.427565217,29.0158479 0,29.4443696 0,29.9723696 L0,42.4071523 C0,42.9351523 0.427565217,43.363674 0.95652174,43.363674 L43.0434783,43.363674 C43.5724347,43.363674 44,42.9351523 44,42.4071523 L44,29.9723696 C44,29.4443696 43.5724347,29.0158479 43.0434783,29.0158479 L43.0434783,29.0158479 Z" id="Page-1"></path>
                            </g>
                        </g>
                    </g>
                </g>
            </g>
        </g>
    </g>
</svg>