<?xml version="1.0" encoding="UTF-8" standalone="no"?>
<svg width="391px" height="168px" viewBox="0 0 391 168" version="1.1" xmlns="http://www.w3.org/2000/svg" xmlns:xlink="http://www.w3.org/1999/xlink" xmlns:sketch="http://www.bohemiancoding.com/sketch/ns">
    <!-- Generator: Sketch 3.5.1 (25234) - http://www.bohemiancoding.com/sketch -->
    <title>sol2</title>
    <desc>Created with Sketch.</desc>
    <defs></defs>
    <g id="Page-1" stroke="none" stroke-width="1" fill="none" fill-rule="evenodd" sketch:type="MSPage">
        <g id="sol2" sketch:type="MSLayerGroup">
            <g id="time-copy-2" sketch:type="MSShapeGroup">
                <rect id="Rectangle-1" fill="#FFFFFF" x="0.290429043" y="0" width="388.419142" height="168"></rect>
                <path d="M1.20408832,131.5 L389.62323,131.5" id="Line" stroke="#ECECEC" stroke-linecap="square"></path>
                <path d="M110,98.5 L134.056173,98.5" id="Line" stroke="#ECECEC" stroke-linecap="square"></path>
                <path d="M254,98.5 L278.056173,98.5" id="Line" stroke="#ECECEC" stroke-linecap="square"></path>
            </g>
            <g id="Group-19" transform="translate(282.000000, 76.000000)" fill="#0F2F43" sketch:type="MSShapeGroup">
                <rect id="Rectangle-17" x="0" y="40" width="24" height="5" rx="3"></rect>
                <rect id="Rectangle-17" x="0" y="30" width="24" height="5" rx="3"></rect>
                <rect id="Rectangle-17" x="0" y="20" width="24" height="5" rx="3"></rect>
                <rect id="Rectangle-17" x="0" y="10" width="24" height="5" rx="3"></rect>
                <rect id="Rectangle-17" x="0" y="0" width="24" height="5" rx="3"></rect>
                <rect id="Rectangle-17" x="30" y="0" width="24" height="5" rx="3"></rect>
                <rect id="Rectangle-17" x="60" y="0" width="24" height="5" rx="3"></rect>
                <rect id="Rectangle-17" x="30" y="10" width="24" height="5" rx="3"></rect>
                <rect id="Rectangle-17" x="60" y="10" width="24" height="5" rx="3"></rect>
                <rect id="Rectangle-17" x="30" y="20" width="24" height="5" rx="3"></rect>
                <rect id="Rectangle-17" x="60" y="20" width="24" height="5" rx="3"></rect>
                <rect id="Rectangle-17" x="30" y="30" width="24" height="5" rx="3"></rect>
                <rect id="Rectangle-17" x="60" y="30" width="24" height="5" rx="3"></rect>
                <rect id="Rectangle-17" x="30" y="40" width="24" height="5" rx="3"></rect>
                <rect id="Rectangle-17" x="60" y="40" width="24" height="5" rx="3"></rect>
            </g>
            <g id="Group-19" transform="translate(23.000000, 76.000000)" fill="#48C0EB" sketch:type="MSShapeGroup">
                <rect id="Rectangle-17" x="0" y="40" width="24" height="5" rx="3"></rect>
                <rect id="Rectangle-17" x="0" y="30" width="24" height="5" rx="3"></rect>
                <rect id="Rectangle-17" x="0" y="20" width="24" height="5" rx="3"></rect>
                <rect id="Rectangle-17" x="0" y="10" width="24" height="5" rx="3"></rect>
                <rect id="Rectangle-17" x="0" y="0" width="24" height="5" rx="3"></rect>
                <rect id="Rectangle-17" x="30" y="0" width="24" height="5" rx="3"></rect>
                <rect id="Rectangle-17" x="60" y="0" width="24" height="5" rx="3"></rect>
                <rect id="Rectangle-17" x="30" y="10" width="24" height="5" rx="3"></rect>
                <rect id="Rectangle-17" x="60" y="10" width="24" height="5" rx="3"></rect>
                <rect id="Rectangle-17" x="30" y="20" width="24" height="5" rx="3"></rect>
                <rect id="Rectangle-17" x="60" y="20" width="24" height="5" rx="3"></rect>
                <rect id="Rectangle-17" x="30" y="30" width="24" height="5" rx="3"></rect>
                <rect id="Rectangle-17" x="60" y="30" width="24" height="5" rx="3"></rect>
                <rect id="Rectangle-17" x="30" y="40" width="24" height="5" rx="3"></rect>
                <rect id="Rectangle-17" x="60" y="40" width="24" height="5" rx="3"></rect>
            </g>
            <g id="Group-20" transform="translate(132.000000, 23.000000)" sketch:type="MSShapeGroup">
                <rect id="Rectangle-83" stroke="#ECECEC" fill="#F5F8FA" x="0" y="0" width="127" height="101" rx="3"></rect>
                <g id="Group-19" transform="translate(6.000000, 8.000000)">
                    <rect id="Rectangle-17" fill="#48C0EB" x="0" y="80" width="24" height="5" rx="3"></rect>
                    <rect id="Rectangle-17" fill="#48C0EB" x="0" y="70" width="24" height="5" rx="3"></rect>
                    <rect id="Rectangle-17" fill="#48C0EB" x="0" y="60" width="24" height="5" rx="3"></rect>
                    <rect id="Rectangle-17" fill="#48C0EB" x="0" y="50" width="24" height="5" rx="3"></rect>
                    <rect id="Rectangle-17" fill="#48C0EB" x="0" y="40" width="24" height="5" rx="3"></rect>
                    <rect id="Rectangle-17" fill="#48C0EB" x="30" y="40" width="24" height="5" rx="3"></rect>
                    <g id="Group-21" fill="#0F2F43">
                        <rect id="Rectangle-17" x="0" y="30" width="24" height="5" rx="3"></rect>
                        <rect id="Rectangle-17" x="0" y="20" width="24" height="5" rx="3"></rect>
                        <rect id="Rectangle-17" x="0" y="10" width="24" height="5" rx="3"></rect>
                        <rect id="Rectangle-17" x="0" y="0" width="24" height="5" rx="3"></rect>
                        <rect id="Rectangle-17" x="30" y="0" width="24" height="5" rx="3"></rect>
                        <rect id="Rectangle-17" x="60" y="0" width="24" height="5" rx="3"></rect>
                        <rect id="Rectangle-17" x="90" y="0" width="24" height="5" rx="3"></rect>
                        <rect id="Rectangle-17" x="30" y="10" width="24" height="5" rx="3"></rect>
                        <rect id="Rectangle-17" x="60" y="10" width="24" height="5" rx="3"></rect>
                        <rect id="Rectangle-17" x="90" y="10" width="24" height="5" rx="3"></rect>
                        <rect id="Rectangle-17" x="30" y="20" width="24" height="5" rx="3"></rect>
                        <rect id="Rectangle-17" x="60" y="20" width="24" height="5" rx="3"></rect>
                        <rect id="Rectangle-17" x="90" y="20" width="24" height="5" rx="3"></rect>
                        <rect id="Rectangle-17" x="30" y="30" width="24" height="5" rx="3"></rect>
                        <rect id="Rectangle-17" x="60" y="30" width="24" height="5" rx="3"></rect>
                        <rect id="Rectangle-17" x="90" y="30" width="24" height="5" rx="3"></rect>
                        <rect id="Rectangle-17" x="60" y="40" width="24" height="5" rx="3"></rect>
                        <rect id="Rectangle-17" x="90" y="40" width="24" height="5" rx="3"></rect>
                    </g>
                    <rect id="Rectangle-17" fill="#48C0EB" x="90" y="50" width="24" height="5" rx="3"></rect>
                    <rect id="Rectangle-17" fill="#48C0EB" x="90" y="60" width="24" height="5" rx="3"></rect>
                    <rect id="Rectangle-17" fill="#48C0EB" x="90" y="70" width="24" height="5" rx="3"></rect>
                    <rect id="Rectangle-17" fill="#48C0EB" x="90" y="80" width="24" height="5" rx="3"></rect>
                    <rect id="Rectangle-17" fill="#48C0EB" x="30" y="50" width="24" height="5" rx="3"></rect>
                    <rect id="Rectangle-17" fill="#48C0EB" x="60" y="50" width="24" height="5" rx="3"></rect>
                    <rect id="Rectangle-17" fill="#48C0EB" x="30" y="60" width="24" height="5" rx="3"></rect>
                    <rect id="Rectangle-17" fill="#48C0EB" x="60" y="60" width="24" height="5" rx="3"></rect>
                    <rect id="Rectangle-17" fill="#48C0EB" x="30" y="70" width="24" height="5" rx="3"></rect>
                    <rect id="Rectangle-17" fill="#48C0EB" x="60" y="70" width="24" height="5" rx="3"></rect>
                    <rect id="Rectangle-17" fill="#48C0EB" x="30" y="80" width="24" height="5" rx="3"></rect>
                    <rect id="Rectangle-17" fill="#48C0EB" x="60" y="80" width="24" height="5" rx="3"></rect>
                </g>
            </g>
        </g>
    </g>
</svg>