<?xml version="1.0" encoding="UTF-8"?>
<svg width="32px" height="32px" viewBox="0 0 32 32" version="1.1" xmlns="http://www.w3.org/2000/svg" xmlns:xlink="http://www.w3.org/1999/xlink">
    <!-- Generator: Sketch 40.3 (33839) - http://www.bohemiancoding.com/sketch -->
    <title>Tailored</title>
    <desc>Created with Sketch.</desc>
    <defs></defs>
    <g id="Page-1" stroke="none" stroke-width="1" fill="none" fill-rule="evenodd">
        <g id="Tailored" fill="#48C0EB">
            <path d="M30.6086957,30.1459131 L29.2173913,30.1459131 L29.2173913,28.7546088 C29.2173913,28.3706088 28.9064348,28.0589566 28.5217391,28.0589566 C28.1370435,28.0589566 27.826087,28.3706088 27.826087,28.7546088 L27.826087,30.1459131 L26.4347826,30.1459131 L26.4347826,28.7546088 C26.4347826,28.3706088 26.1238261,28.0589566 25.7391304,28.0589566 C25.3544348,28.0589566 25.0434783,28.3706088 25.0434783,28.7546088 L25.0434783,30.1459131 L23.6521739,30.1459131 L23.6521739,28.7546088 C23.6521739,28.3706088 23.3412174,28.0589566 22.9565217,28.0589566 C22.5718261,28.0589566 22.2608696,28.3706088 22.2608696,28.7546088 L22.2608696,30.1459131 L20.8695652,30.1459131 L20.8695652,26.6676522 C20.8695652,26.2836522 20.5586087,25.9720001 20.173913,25.9720001 C19.7892174,25.9720001 19.4782609,26.2836522 19.4782609,26.6676522 L19.4782609,30.1459131 L18.0869565,30.1459131 L18.0869565,28.7546088 C18.0869565,28.3706088 17.776,28.0589566 17.3913043,28.0589566 C17.0066087,28.0589566 16.6956522,28.3706088 16.6956522,28.7546088 L16.6956522,30.1459131 L15.3043478,30.1459131 L15.3043478,28.7546088 C15.3043478,28.3706088 14.9933913,28.0589566 14.6086957,28.0589566 C14.224,28.0589566 13.9130435,28.3706088 13.9130435,28.7546088 L13.9130435,30.1459131 L12.5217391,30.1459131 L12.5217391,28.7546088 C12.5217391,28.3706088 12.2107826,28.0589566 11.826087,28.0589566 C11.4413913,28.0589566 11.1304348,28.3706088 11.1304348,28.7546088 L11.1304348,30.1459131 L9.73913043,30.1459131 L9.73913043,28.7546088 C9.73913043,28.3706088 9.42817391,28.0589566 9.04347826,28.0589566 C8.65878261,28.0589566 8.34782609,28.3706088 8.34782609,28.7546088 L8.34782609,30.1459131 L6.95652174,30.1459131 L6.95652174,28.7546088 C6.95652174,28.3706088 6.64556522,28.0589566 6.26086957,28.0589566 C5.87617391,28.0589566 5.56521739,28.3706088 5.56521739,28.7546088 L5.56521739,30.1459131 L4.17391304,30.1459131 L4.17391304,28.7546088 C4.17391304,28.3706088 3.86295652,28.0589566 3.47826087,28.0589566 C3.09356522,28.0589566 2.7826087,28.3706088 2.7826087,28.7546088 L2.7826087,30.1459131 L1.39130435,30.1459131 L1.39130435,22.4937392 L7.06295652,22.4937392 L6.59756522,24.0756522 C6.52591304,24.3198262 6.59269565,24.5834783 6.77286957,24.7636522 C6.90573913,24.8965218 7.08313043,24.9674783 7.26469565,24.9674783 C7.33008696,24.9674783 7.39686957,24.9584349 7.46156522,24.9396522 L15.778087,22.4937392 L30.6086957,22.4937392 L30.6086957,30.1459131 Z M22.0222609,4.59600007 L23.005913,5.57965225 L11.6925217,16.8937392 L10.7088696,15.910087 L22.0222609,4.59600007 Z M24.7137391,1.90452181 C25.4010435,1.21860877 26.5154783,1.22000007 27.2013913,1.90452181 L29.6333913,4.33652181 C30.3186087,5.0217392 30.3186087,6.13756529 29.6333913,6.82347833 L27.9255652,8.53130442 L23.005913,3.6123479 L24.7137391,1.90452181 Z M15.6278261,20.8290436 L14.6434783,19.8446957 L25.9575652,8.53060877 L26.9412174,9.5149566 L15.6278261,20.8290436 Z M24.973913,7.5469566 L13.6598261,18.8610436 L12.6761739,17.8773914 L23.9902609,6.56330442 L24.973913,7.5469566 Z M12.0264348,22.1466088 L9.3906087,19.5107827 L10.0862609,17.2304349 L13.2173913,20.3358262 L13.2173913,20.4067827 L13.1686957,20.4067827 L14.3074783,21.5107827 L12.0264348,22.1466088 Z M8.94330435,21.0307827 L10.5057391,22.5939131 L8.29217391,23.2450436 L8.94330435,21.0307827 Z M31.3043478,21.1024349 L17.3217391,21.1024349 L28.4173913,10.0067827 L30.6170435,7.80713051 C31.8441739,6.57930442 31.8441739,4.58069573 30.6170435,3.35286964 L28.1850435,0.920869639 C26.9565217,-0.3076521 24.9586087,-0.306260796 23.730087,0.920869639 L21.5304348,3.12052181 L9.23269565,15.4182609 C9.22434783,15.4266088 9.22156522,15.4384349 9.21321739,15.4474783 C9.18330435,15.4808696 9.16243478,15.5198262 9.13947826,15.5594783 C9.11443478,15.6005218 9.08869565,15.6394783 9.07269565,15.6846957 C9.06921739,15.6951305 9.06086957,15.7027827 9.0573913,15.7132175 L7.47269565,21.1024349 L0.695652174,21.1024349 C0.310956522,21.1024349 0,21.414087 0,21.798087 L0,30.8415653 C0,31.2255653 0.310956522,31.5372175 0.695652174,31.5372175 L31.3043478,31.5372175 C31.6890435,31.5372175 32,31.2255653 32,30.8415653 L32,21.798087 C32,21.414087 31.6890435,21.1024349 31.3043478,21.1024349 L31.3043478,21.1024349 Z" id="Page-1"></path>
        </g>
    </g>
</svg>