<?xml version="1.0" encoding="UTF-8"?>
<svg width="28px" height="32px" viewBox="0 0 28 32" version="1.1" xmlns="http://www.w3.org/2000/svg" xmlns:xlink="http://www.w3.org/1999/xlink">
    <!-- Generator: Sketch 40.3 (33839) - http://www.bohemiancoding.com/sketch -->
    <title>med</title>
    <desc>Created with Sketch.</desc>
    <defs>
        <rect id="path-1" x="0.581818182" y="0" width="10.4727273" height="17.4545455" rx="3"></rect>
        <mask id="mask-2" maskContentUnits="userSpaceOnUse" maskUnits="objectBoundingBox" x="0" y="0" width="10.4727273" height="17.4545455" fill="white">
            <use xlink:href="#path-1"></use>
        </mask>
    </defs>
    <g id="Page-1" stroke="none" stroke-width="1" fill="none" fill-rule="evenodd">
        <g id="med">
            <g id="Page-1" fill="#48C0EB">
                <path d="M3.78181818,17.6484848 L21.430303,17.6484848 L21.430303,3.78181818 L3.78181818,3.78181818 L3.78181818,17.6484848 Z M22.0606061,18.9090909 L3.15151515,18.9090909 C2.80358788,18.9090909 2.52121212,18.6267152 2.52121212,18.2787879 L2.52121212,3.15151515 C2.52121212,2.80358788 2.80358788,2.52121212 3.15151515,2.52121212 L22.0606061,2.52121212 C22.4085333,2.52121212 22.6909091,2.80358788 22.6909091,3.15151515 L22.6909091,18.2787879 C22.6909091,18.6267152 22.4085333,18.9090909 22.0606061,18.9090909 L22.0606061,18.9090909 Z" id="Fill-1"></path>
                <path d="M1.89090909,1.26060606 C1.54361212,1.26060606 1.26060606,1.54361212 1.26060606,1.89090909 L1.26060606,19.5393939 C1.26060606,19.8866909 1.54361212,20.169697 1.89090909,20.169697 L23.3212121,20.169697 C23.6685091,20.169697 23.9515152,19.8866909 23.9515152,19.5393939 L23.9515152,1.89090909 C23.9515152,1.54361212 23.6685091,1.26060606 23.3212121,1.26060606 L1.89090909,1.26060606 Z M23.3212121,21.430303 L1.89090909,21.430303 C0.848387879,21.430303 0,20.5819152 0,19.5393939 L0,1.89090909 C0,0.848387879 0.848387879,0 1.89090909,0 L23.3212121,0 C24.3637333,0 25.2121212,0.848387879 25.2121212,1.89090909 L25.2121212,19.5393939 C25.2121212,20.5819152 24.3637333,21.430303 23.3212121,21.430303 L23.3212121,21.430303 Z" id="Fill-3"></path>
                <path d="M5.78258909,28.3636364 L19.42928,28.3636364 C18.6987588,26.3870061 14.5053527,26.1575758 12.6062497,26.1575758 C10.7065164,26.1575758 6.5131103,26.3870061 5.78258909,28.3636364 M20.1824921,29.6242424 C20.1774497,29.6236121 20.1742982,29.6236121 20.1698861,29.6242424 L5.04261333,29.6242424 C4.69405576,29.6242424 4.4123103,29.3418667 4.4123103,28.9939394 C4.4123103,26.3523394 7.32178909,24.8969697 12.6062497,24.8969697 C17.7967952,24.8969697 20.6968194,26.3006545 20.7970376,28.8552727 C20.8071224,28.9000242 20.8127952,28.9460364 20.8127952,28.9939394 C20.8127952,29.3418667 20.5304194,29.6242424 20.1824921,29.6242424" id="Fill-4"></path>
                <path d="M11.3454545,25.8424242 C10.9975273,25.8424242 10.7151515,25.5600485 10.7151515,25.2121212 L10.7151515,20.8 C10.7151515,20.4520727 10.9975273,20.169697 11.3454545,20.169697 C11.6933818,20.169697 11.9757576,20.4520727 11.9757576,20.8 L11.9757576,25.2121212 C11.9757576,25.5600485 11.6933818,25.8424242 11.3454545,25.8424242" id="Fill-5"></path>
                <path d="M13.8666667,25.8424242 C13.5187394,25.8424242 13.2363636,25.5600485 13.2363636,25.2121212 L13.2363636,20.8 C13.2363636,20.4520727 13.5187394,20.169697 13.8666667,20.169697 C14.2145939,20.169697 14.4969697,20.4520727 14.4969697,20.8 L14.4969697,25.2121212 C14.4969697,25.5600485 14.2145939,25.8424242 13.8666667,25.8424242" id="Fill-6"></path>
            </g>
            <g id="Group-44" transform="translate(15.515152, 14.545455)">
                <use id="Rectangle-2" stroke="#FFFFFF" mask="url(#mask-2)" stroke-width="2" fill="#FFFFFF" xlink:href="#path-1"></use>
                <g id="Mobile" fill="#48C0EB">
                    <path d="M11.2727273,3.27272727 L0.727272727,3.27272727 C0.526545455,3.27272727 0.363636364,3.10981818 0.363636364,2.90909091 C0.363636364,2.70836364 0.526545455,2.54545455 0.727272727,2.54545455 L11.2727273,2.54545455 C11.4734545,2.54545455 11.6363636,2.70836364 11.6363636,2.90909091 C11.6363636,3.10981818 11.4734545,3.27272727 11.2727273,3.27272727" id="Fill-1"></path>
                    <path d="M11.2727273,13.8181818 L0.727272727,13.8181818 C0.526545455,13.8181818 0.363636364,13.6552727 0.363636364,13.4545455 C0.363636364,13.2538182 0.526545455,13.0909091 0.727272727,13.0909091 L11.2727273,13.0909091 C11.4734545,13.0909091 11.6363636,13.2538182 11.6363636,13.4545455 C11.6363636,13.6552727 11.4734545,13.8181818 11.2727273,13.8181818" id="Fill-3"></path>
                    <path d="M1.81818182,0.727272727 C1.21672727,0.727272727 0.727272727,1.21672727 0.727272727,1.81818182 L0.727272727,15.6363636 C0.727272727,16.2378182 1.21672727,16.7272727 1.81818182,16.7272727 L9.81818182,16.7272727 C10.4196364,16.7272727 10.9090909,16.2378182 10.9090909,15.6363636 L10.9090909,1.81818182 C10.9090909,1.21672727 10.4196364,0.727272727 9.81818182,0.727272727 L1.81818182,0.727272727 Z M9.81818182,17.4545455 L1.81818182,17.4545455 C0.815636364,17.4545455 0,16.6389091 0,15.6363636 L0,1.81818182 C0,0.815636364 0.815636364,0 1.81818182,0 L9.81818182,0 C10.8207273,0 11.6363636,0.815636364 11.6363636,1.81818182 L11.6363636,15.6363636 C11.6363636,16.6389091 10.8207273,17.4545455 9.81818182,17.4545455 L9.81818182,17.4545455 Z" id="Fill-5"></path>
                    <path d="M5.81818182,16 C5.41709091,16 5.09090909,15.6738182 5.09090909,15.2727273 C5.09090909,14.8716364 5.41709091,14.5454545 5.81818182,14.5454545 C6.21927273,14.5454545 6.54545455,14.8716364 6.54545455,15.2727273 C6.54545455,15.6738182 6.21927273,16 5.81818182,16" id="Fill-7"></path>
                </g>
            </g>
        </g>
    </g>
</svg>