<?xml version="1.0" encoding="UTF-8"?>
<svg width="32px" height="32px" viewBox="0 0 32 32" version="1.1" xmlns="http://www.w3.org/2000/svg" xmlns:xlink="http://www.w3.org/1999/xlink">
    <!-- Generator: Sketch 40.3 (33839) - http://www.bohemiancoding.com/sketch -->
    <title>tailored</title>
    <desc>Created with Sketch.</desc>
    <defs></defs>
    <g id="Page-1" stroke="none" stroke-width="1" fill="none" fill-rule="evenodd">
        <g id="tailored" fill="#48C0EB">
            <path d="M1.45454545,1.45454545 L1.45454545,4.36363636 L30.5469091,4.36363636 L30.5454545,1.45454545 L1.45454545,1.45454545 Z M30.5454545,5.81818182 L1.45454545,5.81818182 C0.652363636,5.81818182 0,5.16509091 0,4.36363636 L0,1.45454545 C0,0.652363636 0.652363636,0 1.45454545,0 L30.5454545,0 C31.3469091,0 32,0.652363636 32,1.45454545 L32,4.36363636 C32,5.16509091 31.3469091,5.81818182 30.5454545,5.81818182 L30.5454545,5.81818182 Z" id="Fill-1"></path>
            <path d="M1.45454545,10.1818182 L1.45454545,13.0909091 L30.5469091,13.0909091 L30.5454545,10.1818182 L1.45454545,10.1818182 Z M30.5454545,14.5454545 L1.45454545,14.5454545 C0.652363636,14.5454545 0,13.8923636 0,13.0909091 L0,10.1818182 C0,9.37963636 0.652363636,8.72727273 1.45454545,8.72727273 L30.5454545,8.72727273 C31.3469091,8.72727273 32,9.37963636 32,10.1818182 L32,13.0909091 C32,13.8923636 31.3469091,14.5454545 30.5454545,14.5454545 L30.5454545,14.5454545 Z" id="Fill-3"></path>
            <path d="M1.45454545,18.9090909 L1.45454545,21.8181818 L30.5469091,21.8181818 L30.5454545,18.9090909 L1.45454545,18.9090909 Z M30.5454545,23.2727273 L1.45454545,23.2727273 C0.652363636,23.2727273 0,22.6196364 0,21.8181818 L0,18.9090909 C0,18.1069091 0.652363636,17.4545455 1.45454545,17.4545455 L30.5454545,17.4545455 C31.3469091,17.4545455 32,18.1069091 32,18.9090909 L32,21.8181818 C32,22.6196364 31.3469091,23.2727273 30.5454545,23.2727273 L30.5454545,23.2727273 Z" id="Fill-5"></path>
            <path d="M1.45454545,27.6363636 L1.45454545,30.5454545 L30.5469091,30.5454545 L30.5454545,27.6363636 L1.45454545,27.6363636 Z M30.5454545,32 L1.45454545,32 C0.652363636,32 0,31.3469091 0,30.5454545 L0,27.6363636 C0,26.8349091 0.652363636,26.1818182 1.45454545,26.1818182 L30.5454545,26.1818182 C31.3469091,26.1818182 32,26.8349091 32,27.6363636 L32,30.5454545 C32,31.3469091 31.3469091,32 30.5454545,32 L30.5454545,32 Z" id="Fill-7"></path>
            <path d="M18.1818182,5.09090909 C17.7796364,5.09090909 17.4545455,4.76581818 17.4545455,4.36363636 L17.4545455,0.727272727 C17.4545455,0.325090909 17.7796364,0 18.1818182,0 C18.584,0 18.9090909,0.325090909 18.9090909,0.727272727 L18.9090909,4.36363636 C18.9090909,4.76581818 18.584,5.09090909 18.1818182,5.09090909" id="Fill-9"></path>
            <path d="M25.4545455,13.8181818 C25.0523636,13.8181818 24.7272727,13.4930909 24.7272727,13.0909091 L24.7272727,9.45454545 C24.7272727,9.05236364 25.0523636,8.72727273 25.4545455,8.72727273 C25.8567273,8.72727273 26.1818182,9.05236364 26.1818182,9.45454545 L26.1818182,13.0909091 C26.1818182,13.4930909 25.8567273,13.8181818 25.4545455,13.8181818" id="Fill-11"></path>
            <path d="M13.0909091,23.2727273 C12.6887273,23.2727273 12.3636364,22.9476364 12.3636364,22.5454545 L12.3636364,18.9090909 C12.3636364,18.5069091 12.6887273,18.1818182 13.0909091,18.1818182 C13.4930909,18.1818182 13.8181818,18.5069091 13.8181818,18.9090909 L13.8181818,22.5454545 C13.8181818,22.9476364 13.4930909,23.2727273 13.0909091,23.2727273" id="Fill-13"></path>
            <path d="M18.9090909,31.2727273 C18.5069091,31.2727273 18.1818182,30.9476364 18.1818182,30.5454545 L18.1818182,26.9090909 C18.1818182,26.5069091 18.5069091,26.1818182 18.9090909,26.1818182 C19.3112727,26.1818182 19.6363636,26.5069091 19.6363636,26.9090909 L19.6363636,30.5454545 C19.6363636,30.9476364 19.3112727,31.2727273 18.9090909,31.2727273" id="Fill-15"></path>
            <path d="M18.1818182,3.63636364 L0.727272727,3.63636364 C0.325090909,3.63636364 0,3.31127273 0,2.90909091 C0,2.50690909 0.325090909,2.18181818 0.727272727,2.18181818 L18.1818182,2.18181818 C18.584,2.18181818 18.9090909,2.50690909 18.9090909,2.90909091 C18.9090909,3.31127273 18.584,3.63636364 18.1818182,3.63636364" id="Fill-17"></path>
            <path d="M25.4545455,12.3636364 L1.45454545,12.3636364 C1.05236364,12.3636364 0.727272727,12.0385455 0.727272727,11.6363636 C0.727272727,11.2341818 1.05236364,10.9090909 1.45454545,10.9090909 L25.4545455,10.9090909 C25.8567273,10.9090909 26.1818182,11.2341818 26.1818182,11.6363636 C26.1818182,12.0385455 25.8567273,12.3636364 25.4545455,12.3636364" id="Fill-19"></path>
            <path d="M13.0909091,21.0909091 L0.727272727,21.0909091 C0.325090909,21.0909091 0,20.7658182 0,20.3636364 C0,19.9614545 0.325090909,19.6363636 0.727272727,19.6363636 L13.0909091,19.6363636 C13.4930909,19.6363636 13.8181818,19.9614545 13.8181818,20.3636364 C13.8181818,20.7658182 13.4930909,21.0909091 13.0909091,21.0909091" id="Fill-21"></path>
            <path d="M18.1818182,29.8181818 L0.727272727,29.8181818 C0.325090909,29.8181818 0,29.4930909 0,29.0909091 C0,28.6887273 0.325090909,28.3636364 0.727272727,28.3636364 L18.1818182,28.3636364 C18.584,28.3636364 18.9090909,28.6887273 18.9090909,29.0909091 C18.9090909,29.4930909 18.584,29.8181818 18.1818182,29.8181818" id="Fill-23"></path>
        </g>
    </g>
</svg>