<?xml version="1.0" encoding="UTF-8"?>
<svg width="36px" height="31px" viewBox="0 0 36 31" version="1.1" xmlns="http://www.w3.org/2000/svg" xmlns:xlink="http://www.w3.org/1999/xlink">
    <!-- Generator: Sketch 40.3 (33839) - http://www.bohemiancoding.com/sketch -->
    <title>experience copy</title>
    <desc>Created with Sketch.</desc>
    <defs>
        <polyline id="path-1" points="0 0.165898618 35.7891244 0.165898618 35.7891244 30.9677419 0 30.9677419"></polyline>
        <polyline id="path-3" points="0 0.165898618 35.7891244 0.165898618 35.7891244 30.9677419 0 30.9677419"></polyline>
    </defs>
    <g id="Page-1" stroke="none" stroke-width="1" fill="none" fill-rule="evenodd">
        <g id="experience-copy">
            <g id="Group-3">
                <mask id="mask-2" fill="white">
                    <use xlink:href="#path-1"></use>
                </mask>
                <g id="Clip-2"></g>
                <path d="M28.3682949,27.2813272 C28.0342857,27.2813272 27.7356682,27.0468571 27.6656221,26.7069493 C27.5867281,26.3191152 27.836682,25.9393917 28.2252535,25.8604977 C31.4739171,25.1954286 33.11447,23.4686083 34.198341,22.2063041 C33.436682,20.9764424 31.719447,18.981235 29.3010138,18.1480553 C26.5124424,17.1880553 25.91447,16.8208664 25.91447,15.1132166 C25.91447,14.7954286 26.123871,14.5152442 26.4291244,14.4252903 C26.883318,14.2910968 27.4517972,14.2874101 28.1094931,14.2837235 C29.0879263,14.2778249 30.3059908,14.2711889 30.7048848,13.7403134 C31.0418433,13.2898065 30.9010138,12.9668571 30.1968664,11.8881475 C30.0243318,11.6241843 29.842212,11.344 29.6682028,11.0446452 C28.3107834,8.70436866 28.2090323,7.66842396 28.0910599,6.46879263 L28.0674654,6.23358525 C27.7717972,3.36169585 26.2396313,1.8037235 23.5129954,1.60317051 C21.1292166,1.77791705 19.6530876,2.99893088 19.124424,5.23229493 C19.0329954,5.61865438 18.6458986,5.85607373 18.2602765,5.76538249 C17.8746544,5.67395392 17.6357604,5.28685714 17.7271889,4.90123502 C18.4025806,2.05220276 20.4398157,0.370359447 23.4650691,0.166857143 C23.4967742,0.165382488 23.5292166,0.165382488 23.5609217,0.166857143 C27.0189862,0.400589862 29.1270046,2.50197235 29.4949309,6.08611982 L29.5192627,6.32796313 C29.6291244,7.44648848 29.7087558,8.25386175 30.9098618,10.3235392 C31.0713364,10.6015115 31.2401843,10.859576 31.3987097,11.1036313 C32.0704147,12.1322028 32.8305991,13.2979171 31.8529032,14.6015115 C31.0270968,15.702341 29.4138249,15.7111889 28.1176037,15.7192995 C27.8905069,15.7207742 27.6597235,15.7222488 27.4517972,15.7303594 C27.6420276,16.0311889 28.1913364,16.2479631 29.7692166,16.7906359 C32.9058065,17.8708203 34.9784332,20.547318 35.7091244,21.9578249 C35.8425806,22.2173641 35.8071889,22.5322028 35.6176959,22.7534009 L35.5093088,22.8816959 C34.3723502,24.21847 32.4707834,26.4569954 28.5128111,27.2665806 C28.4641475,27.2761659 28.4162212,27.2813272 28.3682949,27.2813272" id="Fill-1" fill="#48C0EB" mask="url(#mask-2)"></path>
            </g>
            <g id="Group-11">
                <path d="M11.5351152,12.052129 C11.5380645,12.052129 11.3913364,12.1317604 11.324977,12.3433733 C11.2188018,12.6803318 11.3478341,13.2134194 11.6884793,13.8430968 C11.8787097,13.9640184 12.1316129,14.1247558 12.2768664,14.4757235 C12.2879263,14.50153 12.2967742,14.5273364 12.3041475,14.5546175 C12.5614747,15.4467834 14.2927189,18.7713917 16.6160369,18.7713917 C18.9386175,18.7713917 20.6705991,15.4467834 20.9271889,14.5546175 C21.0178802,14.1970138 21.2988018,14.019318 21.4329954,13.9345253 C21.5067281,13.8873364 21.5074654,13.8851244 21.5163134,13.8689032 C22.0258065,12.8742488 21.9513364,12.412682 21.8960369,12.2600553 C21.844424,12.1184885 21.7507834,12.0720369 21.7323502,12.0646636 C21.4064516,11.9673364 21.2206452,11.6687189 21.238341,11.3295484 C21.2390783,11.3155392 21.3054378,9.98392627 20.9832258,8.76733641 C20.9522581,8.65968664 20.1478341,5.96180645 16.6160369,5.96180645 C13.0842396,5.96180645 12.2790783,8.65968664 12.2466359,8.775447 C11.9266359,9.98392627 11.9929954,11.3155392 11.9937327,11.3295484 C12.0099539,11.6429124 11.8263594,11.9334194 11.5351152,12.052129 L11.5351152,12.052129 Z M16.6160369,20.2460461 C13.3083871,20.2460461 11.3352995,16.2482581 10.9364055,15.1120369 C10.7653456,15.0007005 10.5529954,14.8436498 10.3915207,14.5442949 C9.8237788,13.4950783 9.67336406,12.5785806 9.94470046,11.8206083 C10.0840553,11.4342488 10.3074654,11.1651244 10.5124424,10.9866912 C10.5131797,10.4263226 10.5574194,9.39406452 10.8235945,8.38982488 C11.1878341,7.03756682 12.8659908,4.48715207 16.6160369,4.48715207 C20.3660829,4.48715207 22.0442396,7.03756682 22.4077419,8.38687558 C22.6694931,9.37563134 22.7174194,10.3916682 22.7196313,10.9586728 C22.921659,11.1245714 23.1148387,11.3560922 23.2431336,11.657659 C23.563871,12.4082581 23.4245161,13.3785806 22.8287558,14.5413456 C22.6613825,14.8687189 22.4357604,15.0405161 22.2846083,15.1400553 C21.8451613,16.3514839 19.8809217,20.2460461 16.6160369,20.2460461 L16.6160369,20.2460461 Z" id="Fill-4" fill="#48C0EB"></path>
                <path d="M26.4292719,30.9677419 L7.44014747,30.9677419 C6.87756682,30.9677419 6.33784332,30.7236866 5.92051613,30.280553 C5.45010138,29.7821198 5.19277419,29.0868203 5.23185253,28.4217512 C5.41397235,25.3176037 6.18669124,21.5410138 10.5848479,19.876129 C12.4252166,19.1808295 13.4169217,18.244424 13.4265069,18.2348387 C13.7207005,17.9546544 14.1874286,17.962765 14.4683502,18.2554839 C14.7500092,18.5474654 14.7433733,19.0119816 14.4513917,19.2951152 C14.4034654,19.3408295 13.2524977,20.443871 11.1061382,21.2556682 C8.25563134,22.3343779 6.93876498,24.5035945 6.7035576,28.5080184 C6.68881106,28.7682949 6.80235945,29.0669124 6.99332719,29.2696774 C7.0722212,29.3529954 7.23517051,29.4930876 7.44014747,29.4930876 L26.4292719,29.4930876 C26.6394101,29.4930876 26.8075207,29.3478341 26.8893641,29.2615668 C27.0751705,29.0632258 27.1820829,28.7896774 27.1673364,28.5470968 C26.9210691,24.4991705 25.5636498,22.2230415 22.7654931,21.1635023 C20.6390415,20.3590783 19.4268756,19.3209217 19.376,19.2774194 C19.0692719,19.0097696 19.0360922,18.5445161 19.3022673,18.2363134 C19.5684424,17.9303226 20.0344332,17.8964055 20.3418986,18.1618433 C20.3684424,18.1847005 21.4375668,19.084977 23.2867834,19.7839631 C27.7136959,21.4591705 28.4613456,25.5365899 28.6390415,28.4578802 C28.6788571,29.1015668 28.4259539,29.7799078 27.9629124,30.2717051 C27.540424,30.7207373 26.9955392,30.9677419 26.4292719,30.9677419" id="Fill-6" fill="#48C0EB"></path>
                <g id="Group-10">
                    <mask id="mask-4" fill="white">
                        <use xlink:href="#path-3"></use>
                    </mask>
                    <g id="Clip-9"></g>
                    <path d="M6.53905991,25.8064516 L2.21979724,25.8064516 C1.05924424,25.8064516 0.0255115207,24.7004608 0.00707834101,23.4396313 C-0.0290506912,21.0241475 -0.0784516129,17.7142857 3.94882949,16.1894931 C5.0282765,15.7810138 6.0398894,15.2471889 6.72412903,14.8534562 C5.56947465,13.7681106 4.57924424,12.1725346 4.30053456,11.443318 C4.12357604,11.323871 3.91786175,11.1697696 3.75564977,10.8689401 C3.18790783,9.82046083 3.03749309,8.90396313 3.30809217,8.14599078 C3.44670968,7.75668203 3.67159447,7.48608295 3.87657143,7.30691244 C3.87730876,6.74580645 3.92154839,5.71059908 4.18698618,4.70635945 C4.55196313,3.35410138 6.23011982,0.802211982 9.97942857,0.802211982 C13.7361106,0.802211982 15.4127926,3.479447 15.7740829,4.89511521 C15.8750968,5.28958525 15.6369401,5.69069124 15.24247,5.79096774 C14.8472627,5.89419355 14.4461567,5.65382488 14.3451429,5.25935484 C14.3134378,5.14138249 13.5075392,2.27686636 9.97942857,2.27686636 C6.44836866,2.27686636 5.6439447,4.9762212 5.61076498,5.09050691 C5.29076498,6.30046083 5.3563871,7.63502304 5.35712442,7.64829493 C5.37408295,7.96092166 5.19122581,8.25069124 4.90145622,8.37013825 C4.90440553,8.37013825 4.75546544,8.45198157 4.68910599,8.66506912 C4.58293088,9.00497696 4.71196313,9.53806452 5.05187097,10.1677419 C5.07399078,10.1898618 5.09758525,10.2023963 5.11896774,10.2156682 C5.25168664,10.3048848 5.49869124,10.4678341 5.64099539,10.8121659 C5.6520553,10.8379724 5.66090323,10.8637788 5.6682765,10.8903226 C5.81574194,11.400553 7.15694009,13.5410138 8.39933641,14.3026728 C8.61389862,14.4346544 8.74661751,14.6669124 8.75104147,14.9176037 C8.75546544,15.1697696 8.63159447,15.4064516 8.42219355,15.5458065 C8.34698618,15.5952074 6.55306912,16.7815668 4.47011982,17.5690323 C1.62403687,18.6462673 1.43896774,20.5839631 1.48173272,23.4182488 C1.48836866,23.8621198 1.86735484,24.3317972 2.21979724,24.3317972 L6.53905991,24.3317972 C6.94606452,24.3317972 7.2763871,24.6613825 7.2763871,25.0691244 C7.2763871,25.4768664 6.94606452,25.8064516 6.53905991,25.8064516" id="Fill-8" fill="#48C0EB" mask="url(#mask-4)"></path>
                </g>
            </g>
        </g>
    </g>
</svg>