<?xml version="1.0" encoding="UTF-8"?>
<svg width="30px" height="30px" viewBox="0 0 30 30" version="1.1" xmlns="http://www.w3.org/2000/svg" xmlns:xlink="http://www.w3.org/1999/xlink">
    <!-- Generator: Sketch 41.1 (35376) - http://www.bohemiancoding.com/sketch -->
    <title>fastagile</title>
    <desc>Created with Sketch.</desc>
    <defs></defs>
    <g id="Page-1" stroke="none" stroke-width="1" fill="none" fill-rule="evenodd">
        <g id="A4" transform="translate(-99.000000, -801.000000)">
            <g id="fastagile" transform="translate(99.000000, 801.000000)">
                <path d="M15,1.83673469 C7.74183673,1.83673469 1.83673469,7.74183673 1.83673469,15 C1.83673469,22.2581633 7.74183673,28.1632653 15,28.1632653 C22.2581633,28.1632653 28.1632653,22.2581633 28.1632653,15 C28.1632653,7.74183673 22.2581633,1.83673469 15,1.83673469 M15,30 C6.72893617,30 0,23.2710638 0,15 C0,6.72893617 6.72893617,0 15,0 C23.2710638,0 30,6.72893617 30,15 C30,23.2710638 23.2710638,30 15,30" id="Fill-1" fill="#FFCE38"></path>
                <path d="M14.8645714,4.263 L14.5345714,4.34871429 C14.4849796,4.36095918 14.4182449,4.37320408 14.3686531,4.37320408 C14.1488571,4.37320408 13.9590612,4.18953061 13.9590612,3.96973469 C13.9590612,3.77932653 14.0815102,3.6207551 14.2713061,3.56565306 L14.8768163,3.38810204 C15.0543673,3.33912245 15.1890612,3.3085102 15.3176327,3.3085102 L15.3298776,3.3085102 C15.5870204,3.3085102 15.7951837,3.51667347 15.7951837,3.77381633 L15.7951837,7.22442857 C15.7951837,7.48157143 15.5870204,7.68973469 15.3298776,7.68973469 C15.0727347,7.68973469 14.8645714,7.48157143 14.8645714,7.22442857 L14.8645714,4.263 Z" id="Fill-3" fill="#48C0EB"></path>
                <path d="M23.4426122,17.0328367 C23.356898,16.9593673 23.2834286,16.8307959 23.2834286,16.696102 C23.2834286,16.4518163 23.4915918,16.2436531 23.7364898,16.2436531 C23.8711837,16.2436531 23.9630204,16.2987551 24.0358776,16.3599796 C24.2807755,16.5675306 24.5379184,16.6777347 24.8746531,16.6777347 C25.2291429,16.6777347 25.4801633,16.4756939 25.4801633,16.1579388 L25.4801633,16.1456939 C25.4801633,15.7967143 25.1679184,15.6007959 24.642,15.6007959 L24.4950612,15.6007959 C24.2746531,15.6007959 24.0915918,15.4171224 24.0915918,15.1973265 C24.0915918,15.0687551 24.1460816,14.958551 24.2930204,14.8116122 L25.1256735,13.973449 L23.8099592,13.973449 C23.589551,13.973449 23.4058776,13.7897755 23.4058776,13.5693673 C23.4058776,13.3489592 23.589551,13.165898 23.8099592,13.165898 L25.8964898,13.165898 C26.172,13.165898 26.3740408,13.3244694 26.3740408,13.5816122 C26.3740408,13.8142653 26.2632245,13.9428367 26.0924082,14.1081429 L25.2536327,14.9095714 C25.8352653,15.0075306 26.4040408,15.3130408 26.4040408,16.1089592 L26.4040408,16.1212041 C26.4040408,16.9287551 25.816898,17.5226327 24.8624082,17.5226327 C24.2501633,17.5226327 23.7915918,17.3328367 23.4426122,17.0328367" id="Fill-5" fill="#48C0EB"></path>
                <path d="M5.51467347,13.9545918 L5.51467347,13.9423469 C5.51467347,13.5627551 5.23365306,13.2878571 4.76222449,13.2878571 C4.29691837,13.2878571 4.03426531,13.5572449 4.03426531,13.9362245 L4.03426531,13.9484694 C4.03426531,14.3280612 4.31589796,14.5913265 4.78059184,14.5913265 C5.24589796,14.5913265 5.51467347,14.3219388 5.51467347,13.9545918 M3.471,16.6043878 C3.34242857,16.5247959 3.25059184,16.390102 3.25059184,16.2186735 C3.25059184,15.9737755 3.45263265,15.7907143 3.69753061,15.7907143 C3.78936735,15.7907143 3.86895918,15.8207143 3.94242857,15.8635714 C4.16283673,15.9921429 4.35814286,16.0533673 4.62753061,16.0533673 C5.15406122,16.0533673 5.43508163,15.6560204 5.49630612,15.0805102 C5.28814286,15.2580612 5.001,15.3743878 4.62753061,15.3743878 C3.69753061,15.3743878 3.09753061,14.8607143 3.09753061,13.9913265 L3.09753061,13.9790816 C3.09753061,13.1164286 3.76487755,12.4796939 4.73161224,12.4796939 C5.3065102,12.4796939 5.6432449,12.6205102 5.96773469,12.945 C6.27385714,13.2511224 6.47528571,13.7158163 6.47528571,14.5607143 L6.47528571,14.5729592 C6.47528571,15.9615306 5.82079592,16.9105102 4.60304082,16.9105102 C4.1254898,16.9105102 3.78936735,16.7996939 3.471,16.6043878" id="Fill-7" fill="#48C0EB"></path>
                <path d="M15.9350816,25.2679592 L15.9350816,25.2557143 C15.9350816,24.895102 15.6540612,24.6318367 15.1887551,24.6318367 C14.723449,24.6318367 14.4546735,24.8883673 14.4546735,25.2495918 L14.4546735,25.2618367 C14.4546735,25.6230612 14.7356939,25.8985714 15.201,25.8985714 C15.6663061,25.8985714 15.9350816,25.6353061 15.9350816,25.2679592 M14.0016122,26.2469388 C13.6893673,25.9353061 13.493449,25.4761224 13.493449,24.6257143 L13.493449,24.6134694 C13.493449,23.2916327 14.093449,22.2759184 15.3724286,22.2759184 C15.8003878,22.2759184 16.1493673,22.38 16.4065102,22.5330612 C16.553449,22.6181633 16.6514082,22.7467347 16.6514082,22.9365306 C16.6514082,23.1814286 16.4493673,23.3712245 16.2044694,23.3712245 C16.1248776,23.3712245 16.0391633,23.3406122 15.9718163,23.3038776 C15.775898,23.1936735 15.5989592,23.132449 15.3418163,23.132449 C14.8091633,23.132449 14.5397755,23.5610204 14.4791633,24.1236735 C14.6928367,23.9828571 14.9438571,23.8487755 15.3663061,23.8487755 C16.2167143,23.8487755 16.8712041,24.3195918 16.8712041,25.2128571 L16.8712041,25.225102 C16.8712041,26.1 16.1677347,26.7061224 15.2377347,26.7061224 C14.6805918,26.7061224 14.3016122,26.5469388 14.0016122,26.2469388" id="Fill-9" fill="#48C0EB"></path>
                <path d="M22.7797959,7.22020408 C22.5404082,6.98081633 22.1534694,6.98081633 21.9140816,7.22020408 L15.7867347,13.347551 C15.5473469,13.232449 15.2828571,13.1632653 15,13.1632653 C14.7171429,13.1632653 14.4526531,13.232449 14.2132653,13.347551 L9.92265306,9.05693878 C9.68326531,8.81755102 9.29632653,8.81755102 9.05693878,9.05693878 C8.81755102,9.29632653 8.81755102,9.68326531 9.05693878,9.92265306 L13.347551,14.2132653 C13.232449,14.4526531 13.1632653,14.7171429 13.1632653,15 C13.1632653,16.0126531 13.9873469,16.8367347 15,16.8367347 C16.0126531,16.8367347 16.8367347,16.0126531 16.8367347,15 C16.8367347,14.7171429 16.767551,14.4526531 16.652449,14.2132653 L22.7797959,8.08591837 C23.0191837,7.84653061 23.0191837,7.45959184 22.7797959,7.22020408" id="Fill-11" fill="#FFCE38"></path>
            </g>
        </g>
    </g>
</svg>