<?xml version="1.0" encoding="UTF-8"?>
<svg width="30px" height="30px" viewBox="0 0 30 30" version="1.1" xmlns="http://www.w3.org/2000/svg" xmlns:xlink="http://www.w3.org/1999/xlink">
    <!-- Generator: Sketch 41.1 (35376) - http://www.bohemiancoding.com/sketch -->
    <title>geareduplift</title>
    <desc>Created with Sketch.</desc>
    <defs></defs>
    <g id="Page-1" stroke="none" stroke-width="1" fill="none" fill-rule="evenodd">
        <g id="A4" transform="translate(-283.000000, -627.000000)">
            <g id="geareduplift" transform="translate(283.000000, 627.000000)">
                <path d="M0.681136364,24.5454545 C0.564545455,24.5454545 0.445909091,24.5154545 0.338181818,24.4520455 C0.0136363636,24.2631818 -0.0968181818,23.8452273 0.0934090909,23.52 L4.095,16.6609091 C4.38818182,16.1570455 4.88454545,15.8018182 5.45590909,15.6865909 C6.02727273,15.57 6.6225,15.7056818 7.08818182,16.0554545 L10.0820455,18.3006818 C10.2415909,18.42 10.4372727,18.4629545 10.6302273,18.4227273 C10.8238636,18.3825 10.9847727,18.2652273 11.0836364,18.0934091 L15.0054545,11.2302273 C15.2965909,10.7215909 15.7922727,10.3609091 16.3663636,10.2415909 C16.9404545,10.1243182 17.5397727,10.2572727 18.0081818,10.6090909 L20.9911364,12.8461364 C21.15,12.9654545 21.3477273,13.0084091 21.5393182,12.9681818 C21.7329545,12.9279545 21.8938636,12.8106818 21.9927273,12.6388636 L26.6809091,4.43454545 C26.8663636,4.10727273 27.2836364,3.99136364 27.6109091,4.18090909 C27.9381818,4.36704545 28.0520455,4.78431818 27.8645455,5.11090909 L23.1763636,13.3152273 C22.8852273,13.8238636 22.3895455,14.1845455 21.8154545,14.3038636 C21.24,14.4204545 20.6420455,14.2881818 20.1736364,13.9363636 L17.1906818,11.6993182 C17.0304545,11.58 16.8340909,11.5370455 16.6425,11.5772727 C16.4488636,11.6175 16.2879545,11.7347727 16.1890909,11.9065909 L12.2672727,18.7697727 C11.9761364,19.2784091 11.4804545,19.6390909 10.9063636,19.7584091 C10.3315909,19.875 9.73295455,19.7427273 9.26454545,19.3909091 L6.27,17.1456818 C6.11181818,17.0277273 5.9175,16.9840909 5.72590909,17.0229545 C5.53295455,17.0618182 5.37204545,17.1770455 5.2725,17.3475 L1.27022727,24.2072727 C1.14409091,24.4240909 0.915681818,24.5454545 0.681136364,24.5454545" id="Fill-2" fill="#FFCE38"></path>
                <path d="M27.9545455,8.18181818 C27.5775,8.18181818 27.2727273,7.87704545 27.2727273,7.5 L27.2727273,4.77272727 L24.5454545,4.77272727 C24.1684091,4.77272727 23.8636364,4.46795455 23.8636364,4.09090909 C23.8636364,3.71386364 24.1684091,3.40909091 24.5454545,3.40909091 L27.9545455,3.40909091 C28.3315909,3.40909091 28.6363636,3.71386364 28.6363636,4.09090909 L28.6363636,7.5 C28.6363636,7.87704545 28.3315909,8.18181818 27.9545455,8.18181818" id="Fill-3" fill="#FFCE38"></path>
                <path d="M29.3181818,30 L1.36363636,30 C0.611590909,30 0,29.3884091 0,28.6363636 L0,0.681818182 C0,0.304772727 0.304772727,0 0.681818182,0 C1.05886364,0 1.36363636,0.304772727 1.36363636,0.681818182 L1.36363636,28.6363636 L29.3181818,28.6363636 C29.6952273,28.6363636 30,28.9411364 30,29.3181818 C30,29.6952273 29.6952273,30 29.3181818,30" id="Fill-1" fill="#48C0EB"></path>
            </g>
        </g>
    </g>
</svg>