<?xml version="1.0" encoding="UTF-8" standalone="no"?>
<svg width="28px" height="28px" viewBox="0 0 28 28" version="1.1" xmlns="http://www.w3.org/2000/svg" xmlns:xlink="http://www.w3.org/1999/xlink" xmlns:sketch="http://www.bohemiancoding.com/sketch/ns">
    <!-- Generator: Sketch 3.5.1 (25234) - http://www.bohemiancoding.com/sketch -->
    <title>globeicon</title>
    <desc>Created with Sketch.</desc>
    <defs>
        <path id="path-1" d="M0,0.595148936 L28,0.595148936 L28,28 L0,28"></path>
    </defs>
    <g id="Page-1" stroke="none" stroke-width="1" fill="none" fill-rule="evenodd" sketch:type="MSPage">
        <g id="globeicon" sketch:type="MSLayerGroup">
            <path d="M14,27.9997021 C13.6633913,27.9997021 13.3913043,27.7328085 13.3913043,27.4039574 L13.3913043,1.19119149 C13.3913043,0.862340426 13.6633913,0.595446809 14,0.595446809 C14.3366087,0.595446809 14.6086957,0.862340426 14.6086957,1.19119149 L14.6086957,27.4039574 C14.6086957,27.7328085 14.3366087,27.9997021 14,27.9997021" id="Fill-1" fill="#48C0EB" sketch:type="MSShapeGroup"></path>
            <path d="M14,8.93587234 L2.43478261,8.93587234 C2.09817391,8.93587234 1.82608696,8.66897872 1.82608696,8.34012766 C1.82608696,8.0112766 2.09817391,7.74438298 2.43478261,7.74438298 L14,7.74438298 C14.3366087,7.74438298 14.6086957,8.0112766 14.6086957,8.34012766 C14.6086957,8.66897872 14.3366087,8.93587234 14,8.93587234" id="Fill-3" fill="#48C0EB" sketch:type="MSShapeGroup"></path>
            <path d="M25.5652174,20.850766 L2.43478261,20.850766 C2.09817391,20.850766 1.82608696,20.5838723 1.82608696,20.2550213 C1.82608696,19.9261702 2.09817391,19.6592766 2.43478261,19.6592766 L25.5652174,19.6592766 C25.9018261,19.6592766 26.173913,19.9261702 26.173913,20.2550213 C26.173913,20.5838723 25.9018261,20.850766 25.5652174,20.850766" id="Fill-5" fill="#48C0EB" sketch:type="MSShapeGroup"></path>
            <path d="M14.0808348,28 C13.9676174,28 13.8544,27.969617 13.7521391,27.9052766 C8.99457391,24.9122553 6.1544,19.8251915 6.1544,14.2972766 C6.1544,8.76995745 8.99457391,3.68289362 13.7521391,0.68987234 C14.0364,0.512340426 14.4119652,0.592170213 14.5933565,0.868595745 C14.7753565,1.14561702 14.6931826,1.51438298 14.4107478,1.69191489 C10.0031826,4.46451064 7.3717913,9.17685106 7.3717913,14.2972766 C7.3717913,19.4182979 10.0031826,24.1306383 14.4107478,26.903234 C14.6931826,27.0813617 14.7753565,27.4495319 14.5933565,27.7259574 C14.4770957,27.9034894 14.2810957,28 14.0808348,28" id="Fill-7" fill="#48C0EB" sketch:type="MSShapeGroup"></path>
            <path d="M15.5294696,3.34582128 C15.3839913,3.34582128 15.2379043,3.29518298 15.1210348,3.19211915 C14.4879913,2.6315234 13.8239043,2.13109787 13.1482522,1.70454468 C12.9248609,1.56394894 12.8207739,1.29765106 12.8907739,1.04684255 C12.9613826,0.795438298 13.1896435,0.618502128 13.4550348,0.608374468 C14.6164261,0.566076596 15.7991217,0.6608 16.9501652,0.90267234 C17.2788609,0.971778723 17.4882522,1.28871489 17.4176435,1.61041702 C17.3464261,1.93211915 17.0268609,2.13765106 16.694513,2.06794894 C16.2720783,1.97918298 15.8447739,1.91126809 15.4162522,1.86420426 C15.5921652,2.00777872 15.7656435,2.15611915 15.9379043,2.30803404 C16.1868609,2.52845957 16.2063391,2.90556596 15.9811217,3.14922553 C15.8612087,3.27969362 15.6956435,3.34582128 15.5294696,3.34582128" id="Fill-9" fill="#48C0EB" sketch:type="MSShapeGroup"></path>
            <path d="M14,27.9997021 C13.8173913,27.9997021 13.636,27.9931489 13.4546087,27.9865957 C13.1192174,27.9740851 12.8568696,27.6976596 12.8702609,27.3688085 C12.8824348,27.0399574 13.1453913,26.7849787 13.5014783,26.7957021 C13.6670435,26.8016596 13.8332174,26.8082128 14,26.8082128 C21.048087,26.8082128 26.7826087,21.1962979 26.7826087,14.2975745 C26.7826087,13.9687234 27.0546957,13.7018298 27.3913043,13.7018298 C27.727913,13.7018298 28,13.9687234 28,14.2975745 C28,21.8528085 21.720087,27.9997021 14,27.9997021" id="Fill-11" fill="#48C0EB" sketch:type="MSShapeGroup"></path>
            <g id="Group-15">
                <mask id="mask-2" sketch:name="Clip 14" fill="white">
                    <use xlink:href="#path-1"></use>
                </mask>
                <g id="Clip-14"></g>
                <path d="M13.4781043,27.9997021 L13.4549739,27.9997021 C5.90958261,27.9997021 -0.000243478261,21.6967234 -0.000243478261,14.3041277 C-0.000243478261,6.91212766 5.90958261,0.895702128 13.4549739,0.61212766 C13.5809739,0.606170213 13.702713,0.63893617 13.8080174,0.70506383 C14.5390609,1.16617021 15.2554957,1.70531915 15.9378435,2.30880851 C16.1868,2.52982979 16.2062783,2.90574468 15.9810609,3.15 C15.7558435,3.39485106 15.3699304,3.4127234 15.1209739,3.19229787 C14.5378435,2.67638298 13.9291478,2.21170213 13.3094957,1.80778723 C6.5134087,2.16106383 1.21714783,7.61153191 1.21714783,14.2975745 C1.21714783,20.9848085 6.5134087,26.4352766 13.3094957,26.7873617 C16.3639304,24.8065106 18.5893217,21.8271915 19.5863652,18.3790213 C19.6770609,18.0620851 20.0173217,17.8791915 20.3381043,17.9679574 C20.6613217,18.0573191 20.8488,18.386766 20.7574957,18.7031064 C19.6630609,22.4914468 17.1948,25.7608936 13.8080174,27.8984255 C13.7094087,27.960383 13.5949739,27.9997021 13.4781043,27.9997021" id="Fill-13" fill="#48C0EB" sketch:type="MSShapeGroup" mask="url(#mask-2)"></path>
            </g>
            <path d="M21.6086957,1.88320851 C18.9237391,1.88320851 16.7391304,4.02133617 16.7391304,6.64916596 C16.7391304,8.95410213 18.668087,11.651634 20.2184348,13.8201447 C20.7723478,14.5952085 21.2526087,15.2666128 21.6038261,15.8534213 C21.958087,15.2570809 22.4468696,14.573166 23.0111304,13.7838043 C24.556,11.6212511 26.4782609,8.93027234 26.4782609,6.64916596 C26.4782609,4.02133617 24.2936522,1.88320851 21.6086957,1.88320851 L21.6086957,1.88320851 Z M21.608087,17.8718043 C21.2757391,17.8718043 21.3043478,17.8318894 20.6956522,17.5054213 L20.6956522,17.4923149 C20.6956522,16.9793787 19.9390435,15.7205702 19.0686087,14.5034638 C17.4202609,12.1979319 15.4456522,9.32942128 15.4456522,6.64916596 C15.4456522,3.36422979 18.2146087,0.691719149 21.5703478,0.691719149 C24.9266957,0.691719149 27.6767826,3.36422979 27.6767826,6.64916596 C27.6767826,9.30618723 25.641913,12.1669532 23.9990435,14.4665277 C23.1602609,15.6407404 22.2137391,16.8638043 22.2125217,17.3773362 C22.2131304,17.7032085 21.9501739,17.8718043 21.6166087,17.8718043 L21.608087,17.8718043 Z" id="Fill-16" fill="#48C0EB" sketch:type="MSShapeGroup"></path>
            <path d="M21.6086957,4.9870383 C20.601913,4.9870383 19.7826087,5.78891064 19.7826087,6.77427234 C19.7826087,7.75963404 20.601913,8.56150638 21.6086957,8.56150638 C22.6154783,8.56150638 23.4347826,7.75963404 23.4347826,6.77427234 C23.4347826,5.78891064 22.6154783,4.9870383 21.6086957,4.9870383 M21.6086957,9.75299574 C19.9305217,9.75299574 18.5652174,8.41674043 18.5652174,6.77427234 C18.5652174,5.13180426 19.9305217,3.79554894 21.6086957,3.79554894 C23.2868696,3.79554894 24.6521739,5.13180426 24.6521739,6.77427234 C24.6521739,8.41674043 23.2868696,9.75299574 21.6086957,9.75299574" id="Fill-18" fill="#48C0EB" sketch:type="MSShapeGroup"></path>
        </g>
    </g>
</svg>