<?xml version="1.0" encoding="UTF-8"?>
<svg width="929px" height="257px" viewBox="0 0 929 257" version="1.1" xmlns="http://www.w3.org/2000/svg" xmlns:xlink="http://www.w3.org/1999/xlink">
    <!-- Generator: Sketch 43.2 (39069) - http://www.bohemiancoding.com/sketch -->
    <title>grapha</title>
    <desc>Created with Sketch.</desc>
    <defs></defs>
    <g id="Page-1" stroke="none" stroke-width="1" fill="none" fill-rule="evenodd">
        <g id="grapha">
            <g>
                <rect id="Rectangle" fill="#48C0EB" x="0" y="1.83907262" width="432.892857" height="53.9461302"></rect>
                <g id="Lines" stroke-width="2">
                    <path d="M432.892857,55.6893994 L432.892857,255.772258" id="Stroke-143" stroke="#E1E1E1"></path>
                    <path d="M0,91.8928571 L113.086954,91.8928571" id="Stroke-237" stroke="#E1E1E1"></path>
                    <path d="M49.9798111,91.8928571 L433.350156,91.8928571" id="Stroke-239" stroke="#E1E1E1"></path>
                    <path d="M0,127.321429 L113.086954,127.321429" id="Stroke-251" stroke="#E1E1E1"></path>
                    <path d="M49.9798111,127.321429 L433.350156,127.321429" id="Stroke-253" stroke="#E1E1E1"></path>
                    <path d="M0,159.428571 L113.086954,159.428571" id="Stroke-265" stroke="#E1E1E1"></path>
                    <path d="M49.9798111,159.428571 L433.350156,159.428571" id="Stroke-267" stroke="#E1E1E1"></path>
                    <path d="M0,193.75 L113.086954,193.75" id="Stroke-279" stroke="#E1E1E1"></path>
                    <path d="M113.086954,193.75 L237.947275,193.75" id="Stroke-281" stroke="#E1E1E1"></path>
                    <path d="M237.947275,193.75 L288.781403,193.75" id="Stroke-283" stroke="#E1E1E1"></path>
                    <path d="M288.781403,193.75 L364.524123,193.75" id="Stroke-285" stroke="#E1E1E1"></path>
                    <path d="M301.41698,193.75 L432.059837,193.75" id="Stroke-287" stroke="#E1E1E1"></path>
                    <g id="Group-10" transform="translate(0.000000, 223.872741)" stroke="#E1E1E1">
                        <path d="M0,1.10714286 L113.086954,1.10714286" id="Stroke-303"></path>
                        <path d="M113.086954,1.10714286 L237.947275,1.10714286" id="Stroke-305"></path>
                        <path d="M237.947275,1.10714286 L288.781403,1.10714286" id="Stroke-307"></path>
                        <path d="M288.781403,1.10714286 L364.524123,1.10714286" id="Stroke-309"></path>
                        <path d="M301.41698,1.10714286 L432.059837,1.10714286" id="Stroke-311"></path>
                    </g>
                    <path d="M1.10714286,55.6893994 L1.10714286,93.5406282" id="Stroke-329" stroke="#E1E1E1"></path>
                    <path d="M1.10714286,92.3145797 L1.10714286,128.342932" id="Stroke-331" stroke="#E1E1E1"></path>
                    <path d="M1.10714286,128.342932 L1.10714286,160.079992" id="Stroke-333" stroke="#E1E1E1"></path>
                    <path d="M1.10714286,160.079992 L1.10714286,220.612638" id="Stroke-335" stroke="#E1E1E1"></path>
                    <g id="Group-12" transform="translate(1.227230, 216.397545)" stroke="#E1E1E1">
                        <path d="M0,0.157379306 L0,39.4026613" id="Stroke-337"></path>
                    </g>
                    <g id="Group-11" transform="translate(0.000000, 254.523952)" stroke="#E1E1E1">
                        <path d="M1.10714286,1.10714286 L204.73299,1.10714286" id="Stroke-369"></path>
                        <path d="M204.73299,1.10714286 L255.567118,1.10714286" id="Stroke-371"></path>
                        <path d="M255.567118,1.10714286 L331.309837,1.10714286" id="Stroke-373"></path>
                        <path d="M301.41698,1.10714286 L432.059837,1.10714286" id="Stroke-375"></path>
                    </g>
                    <g id="TopBar" stroke="#48C0EB">
                        <path d="M432.892857,1.22604841 L432.892857,55.6871167" id="Stroke-141"></path>
                        <path d="M1.10714286,1.22604841 L1.10714286,55.6871167" id="Stroke-327"></path>
                        <path d="M0,1.10714286 L113.086954,1.10714286" id="Stroke-353"></path>
                        <path d="M113.086954,1.10714286 L237.947275,1.10714286" id="Stroke-355"></path>
                        <path d="M237.947275,1.10714286 L434.003126,1.10714286" id="Stroke-357"></path>
                    </g>
                    <g id="Group-19" transform="translate(172.714286, 55.357143)" stroke="#E1E1E1">
                        <path d="M0,0.332256584 L0,139.671298" id="Stroke-119"></path>
                        <path d="M0,138.44525 L0,165.255495" id="Stroke-121"></path>
                        <path d="M0.120086924,161.197782 L0.120086924,200.443064" id="Stroke-123"></path>
                    </g>
                    <g id="Group-20" transform="translate(86.357143, 55.357143)" stroke="#E1E1E1">
                        <path d="M0,0.332256584 L0,38.1834853" id="Stroke-105"></path>
                        <path d="M0,36.9574369 L0,72.9857891" id="Stroke-107"></path>
                        <path d="M0,72.9857891 L0,104.722849" id="Stroke-109"></path>
                        <path d="M0,104.722849 L0,138.44525" id="Stroke-111"></path>
                        <path d="M0,138.44525 L0,165.255495" id="Stroke-113"></path>
                        <path d="M0.120086924,161.197782 L0.120086924,200.443064" id="Stroke-115"></path>
                    </g>
                    <g id="Group-21" transform="translate(259.071429, 55.357143)" stroke="#E1E1E1">
                        <path d="M0,0.332256584 L0,139.671298" id="Stroke-127"></path>
                        <path d="M0,138.44525 L0,165.255495" id="Stroke-129"></path>
                        <path d="M0.120086924,161.197782 L0.120086924,200.443064" id="Stroke-131"></path>
                    </g>
                    <g id="Group-23" transform="translate(345.428571, 55.357143)" stroke="#E1E1E1">
                        <g id="Group-22">
                            <path d="M0,0.332256584 L0,139.671298" id="Stroke-135"></path>
                            <path d="M0,138.44525 L0,165.255495" id="Stroke-137"></path>
                            <path d="M0.120086924,161.197782 L0.120086924,200.443064" id="Stroke-139"></path>
                        </g>
                    </g>
                </g>
                <g id="Group-391" transform="translate(17.181217, 17.302080)" font-size="16" font-family="AvenirNext-Bold, Avenir Next" letter-spacing="0.000106666659" fill="#FFFFFF" font-weight="bold">
                    <text id="Our-Data">
                        <tspan x="164.806859" y="16.8508353">Our Data</tspan>
                    </text>
                </g>
            </g>
            <g id="graphb" transform="translate(494.892857, 0.000000)">
                <rect id="Rectangle" fill="#B7BBC0" x="0" y="1.83907262" width="432.892857" height="53.9461302"></rect>
                <g id="Lines" stroke-width="2">
                    <path d="M432.892857,55.6893994 L432.892857,255.772258" id="Stroke-143" stroke="#E1E1E1"></path>
                    <path d="M0,91.8928571 L113.086954,91.8928571" id="Stroke-237" stroke="#E1E1E1"></path>
                    <path d="M49.9798111,91.8928571 L433.350156,91.8928571" id="Stroke-239" stroke="#E1E1E1"></path>
                    <path d="M0,127.321429 L113.086954,127.321429" id="Stroke-251" stroke="#E1E1E1"></path>
                    <path d="M49.9798111,127.321429 L433.350156,127.321429" id="Stroke-253" stroke="#E1E1E1"></path>
                    <path d="M0,159.428571 L113.086954,159.428571" id="Stroke-265" stroke="#E1E1E1"></path>
                    <path d="M49.9798111,159.428571 L433.350156,159.428571" id="Stroke-267" stroke="#E1E1E1"></path>
                    <path d="M0,193.75 L113.086954,193.75" id="Stroke-279" stroke="#E1E1E1"></path>
                    <path d="M113.086954,193.75 L237.947275,193.75" id="Stroke-281" stroke="#E1E1E1"></path>
                    <path d="M237.947275,193.75 L288.781403,193.75" id="Stroke-283" stroke="#E1E1E1"></path>
                    <path d="M288.781403,193.75 L364.524123,193.75" id="Stroke-285" stroke="#E1E1E1"></path>
                    <path d="M301.41698,193.75 L432.059837,193.75" id="Stroke-287" stroke="#E1E1E1"></path>
                    <g id="Group-10" transform="translate(0.000000, 223.872741)" stroke="#E1E1E1">
                        <path d="M0,1.10714286 L113.086954,1.10714286" id="Stroke-303"></path>
                        <path d="M113.086954,1.10714286 L237.947275,1.10714286" id="Stroke-305"></path>
                        <path d="M237.947275,1.10714286 L288.781403,1.10714286" id="Stroke-307"></path>
                        <path d="M288.781403,1.10714286 L364.524123,1.10714286" id="Stroke-309"></path>
                        <path d="M301.41698,1.10714286 L432.059837,1.10714286" id="Stroke-311"></path>
                    </g>
                    <path d="M1.10714286,55.6893994 L1.10714286,93.5406282" id="Stroke-329" stroke="#E1E1E1"></path>
                    <path d="M1.10714286,92.3145797 L1.10714286,128.342932" id="Stroke-331" stroke="#E1E1E1"></path>
                    <path d="M1.10714286,128.342932 L1.10714286,160.079992" id="Stroke-333" stroke="#E1E1E1"></path>
                    <path d="M1.10714286,160.079992 L1.10714286,220.612638" id="Stroke-335" stroke="#E1E1E1"></path>
                    <g id="Group-12" transform="translate(1.227230, 216.397545)" stroke="#E1E1E1">
                        <path d="M0,0.157379306 L0,39.4026613" id="Stroke-337"></path>
                    </g>
                    <g id="Group-11" transform="translate(0.000000, 254.523952)" stroke="#E1E1E1">
                        <path d="M1.10714286,1.10714286 L204.73299,1.10714286" id="Stroke-369"></path>
                        <path d="M204.73299,1.10714286 L255.567118,1.10714286" id="Stroke-371"></path>
                        <path d="M255.567118,1.10714286 L331.309837,1.10714286" id="Stroke-373"></path>
                        <path d="M301.41698,1.10714286 L432.059837,1.10714286" id="Stroke-375"></path>
                    </g>
                    <g id="TopBar" stroke="#B7BBC0">
                        <path d="M432.892857,1.22604841 L432.892857,55.6871167" id="Stroke-141"></path>
                        <path d="M1.10714286,1.22604841 L1.10714286,55.6871167" id="Stroke-327"></path>
                        <path d="M0,1.10714286 L113.086954,1.10714286" id="Stroke-353"></path>
                        <path d="M113.086954,1.10714286 L237.947275,1.10714286" id="Stroke-355"></path>
                        <path d="M237.947275,1.10714286 L434.003126,1.10714286" id="Stroke-357"></path>
                    </g>
                    <g id="Group-19" transform="translate(172.714286, 55.357143)" stroke="#E1E1E1">
                        <path d="M0,0.332256584 L0,139.671298" id="Stroke-119"></path>
                        <path d="M0,138.44525 L0,165.255495" id="Stroke-121"></path>
                        <path d="M0.120086924,161.197782 L0.120086924,200.443064" id="Stroke-123"></path>
                    </g>
                    <g id="Group-20" transform="translate(86.357143, 55.357143)" stroke="#E1E1E1">
                        <path d="M0,0.332256584 L0,38.1834853" id="Stroke-105"></path>
                        <path d="M0,36.9574369 L0,72.9857891" id="Stroke-107"></path>
                        <path d="M0,72.9857891 L0,104.722849" id="Stroke-109"></path>
                        <path d="M0,104.722849 L0,138.44525" id="Stroke-111"></path>
                        <path d="M0,138.44525 L0,165.255495" id="Stroke-113"></path>
                        <path d="M0.120086924,161.197782 L0.120086924,200.443064" id="Stroke-115"></path>
                    </g>
                    <g id="Group-21" transform="translate(259.071429, 55.357143)" stroke="#E1E1E1">
                        <path d="M0,0.332256584 L0,139.671298" id="Stroke-127"></path>
                        <path d="M0,138.44525 L0,165.255495" id="Stroke-129"></path>
                        <path d="M0.120086924,161.197782 L0.120086924,200.443064" id="Stroke-131"></path>
                    </g>
                    <g id="Group-23" transform="translate(345.428571, 55.357143)" stroke="#E1E1E1">
                        <g id="Group-22">
                            <path d="M0,0.332256584 L0,139.671298" id="Stroke-135"></path>
                            <path d="M0,138.44525 L0,165.255495" id="Stroke-137"></path>
                            <path d="M0.120086924,161.197782 L0.120086924,200.443064" id="Stroke-139"></path>
                        </g>
                    </g>
                </g>
                <g id="Group-391" transform="translate(17.181217, 16.194937)" font-size="16" font-family="AvenirNext-Bold, Avenir Next" letter-spacing="0.000106666659" fill="#FFFFFF" font-weight="bold">
                    <text id="Your-Data">
                        <tspan x="162.022806" y="16.8508353">Your Data</tspan>
                    </text>
                </g>
            </g>
        </g>
    </g>
</svg>