<?xml version="1.0" encoding="UTF-8"?>
<svg width="30px" height="33px" viewBox="0 0 30 33" version="1.1" xmlns="http://www.w3.org/2000/svg" xmlns:xlink="http://www.w3.org/1999/xlink">
    <!-- Generator: Sketch 41.1 (35376) - http://www.bohemiancoding.com/sketch -->
    <title>person</title>
    <desc>Created with Sketch.</desc>
    <defs></defs>
    <g id="Page-1" stroke="none" stroke-width="1" fill="none" fill-rule="evenodd">
        <g id="A4" transform="translate(-99.000000, -624.000000)">
            <g id="person" transform="translate(99.000000, 624.000000)">
                <path d="M15,1.45964282 C13.2584211,1.45964282 11.8421053,2.76894243 11.8421053,4.37892846 C11.8421053,5.98891449 13.2584211,7.29821409 15,7.29821409 C16.7415789,7.29821409 18.1578947,5.98891449 18.1578947,4.37892846 C18.1578947,2.76894243 16.7415789,1.45964282 15,1.45964282 M15,8.75785691 C12.3876316,8.75785691 10.2631579,6.7939075 10.2631579,4.37892846 C10.2631579,1.96394941 12.3876316,0 15,0 C17.6123684,0 19.7368421,1.96394941 19.7368421,4.37892846 C19.7368421,6.7939075 17.6123684,8.75785691 15,8.75785691" id="Fill-1" fill="#FFCE38"></path>
                <path d="M15,8.56579684 L10.2031579,8.99227748 C9.37263158,9.06620079 8.75684211,9.64684629 8.80026316,10.3146834 L9.34973684,18.6673858 C9.405,19.5045515 10.125,20.2033479 11.1410526,20.406795 L12.0339474,20.5849691 C12.3165789,20.6418332 12.5368421,20.8187437 12.6078947,21.0449364 L14.7844737,28.013946 C14.8342105,28.1725337 15.1657895,28.1725337 15.2147368,28.013946 L17.3921053,21.0449364 C17.4631579,20.8187437 17.6834211,20.6418332 17.9660526,20.5849691 L18.8589474,20.406795 C19.875,20.2033479 20.595,19.5045515 20.6502632,18.6673858 L21.1989474,10.3146834 C21.2431579,9.64684629 20.6273684,9.06620079 19.7968421,8.99227748 L15,8.56579684 Z M15,29.4121707 C14.1726316,29.4121707 13.4534211,28.9629445 13.2528947,28.3203803 L11.1907895,21.7190917 L10.7573684,21.632532 C9.06394737,21.2938747 7.86473684,20.1287928 7.77315789,18.7337272 L7.22368421,10.3810248 C7.13605263,9.04535063 8.36842105,7.88405963 10.0286842,7.736213 L14.9131579,7.30215048 C14.9707895,7.29646407 15.0292105,7.29646407 15.0868421,7.30215048 L19.9713158,7.73684483 C21.6315789,7.88405963 22.8639474,9.04535063 22.7763158,10.3810248 L22.2268421,18.7337272 C22.1352632,20.1287928 20.9360526,21.2938747 19.2418421,21.632532 L18.8092105,21.7190917 L16.7471053,28.3203803 C16.5457895,28.9629445 15.8273684,29.4121707 15,29.4121707 L15,29.4121707 Z" id="Fill-3" fill="#FFCE38"></path>
                <path d="M15,32.4599991 C9.42868421,32.4599991 0,31.6914971 0,28.810892 C0,26.5039266 5.91473684,25.6347093 9.43973684,25.3208861 C9.88026316,25.2836652 10.26,25.5770534 10.3010526,25.9777253 C10.3428947,26.3791271 10.0247368,26.7352799 9.59052632,26.7746903 C3.77447368,27.290674 1.68157895,28.4561988 1.57736842,28.8225692 C1.81105263,29.566987 6.62763158,31.0003563 15,31.0003563 C23.3723684,31.0003563 28.1889474,29.566987 28.4226316,28.7977553 C28.2971053,28.4109499 26.1173684,27.3395721 20.4607895,26.8484023 C20.0273684,26.8104516 19.7084211,26.4542987 19.7494737,26.0528969 C19.7897368,25.6514952 20.1718421,25.3544578 20.6092105,25.394598 C24.1160526,25.6996634 30,26.5491755 30,28.810892 C30,31.6914971 20.5713158,32.4599991 15,32.4599991" id="Fill-5" fill="#48C0EB"></path>
            </g>
        </g>
    </g>
</svg>