<?xml version="1.0" encoding="UTF-8"?>
<svg width="36px" height="43px" viewBox="0 0 36 43" version="1.1" xmlns="http://www.w3.org/2000/svg" xmlns:xlink="http://www.w3.org/1999/xlink">
    <!-- Generator: Sketch 42 (36781) - http://www.bohemiancoding.com/sketch -->
    <title>research</title>
    <desc>Created with Sketch.</desc>
    <defs></defs>
    <g id="Page-1" stroke="none" stroke-width="1" fill="none" fill-rule="evenodd">
        <g id="research" fill-rule="nonzero" fill="#48C0EB">
            <g id="Page-1">
                <g>
                    <g id="research">
                        <g id="Page-1">
                            <g id="Desktop-HD-Copy">
                                <g id="Page-1">
                                    <path d="M33.9811287,40.6607143 L1.78848045,40.6607143 L1.78848045,7.07142857 L7.99987307,7.07142857 L7.40430908,8.83928571 L4.47120113,8.83928571 C3.97668629,8.83928571 3.57696091,9.23528571 3.57696091,9.72321429 L3.57696091,38.0089286 C3.57696091,38.4968571 3.97668629,38.8928571 4.47120113,38.8928571 L31.298408,38.8928571 C31.7929227,38.8928571 32.1926481,38.4968571 32.1926481,38.0089286 L32.1926481,9.72321429 C32.1926481,9.23528571 31.7929227,8.83928571 31.298408,8.83928571 L27.4710598,8.83928571 L26.8754957,7.07142857 L33.9811287,7.07142857 L33.9811287,40.6607143 Z M26.8272068,10.6071429 L30.4041677,10.6071429 L30.4041677,37.125 L5.36544135,37.125 L5.36544135,10.6071429 L8.04816205,10.6071429 L26.8272068,10.6071429 Z M10.4813897,5.30357143 L15.0268127,5.30357143 C15.2745173,5.30357143 15.5123852,5.20103571 15.6813966,5.02159821 C15.8513022,4.84127679 15.936255,4.60084821 15.9183703,4.35511607 C15.917476,4.3374375 15.902274,4.2260625 15.8995912,4.20838393 C15.8995912,3.0628125 16.8430147,2.13026786 18.0019501,2.13026786 C19.1608854,2.13026786 20.1034146,3.0628125 20.0998375,4.21191964 C20.0980491,4.23136607 20.0855297,4.33566964 20.0846355,4.35511607 C20.0658565,4.60084821 20.1517035,4.84127679 20.3216092,5.02159821 C20.4906205,5.20103571 20.7284885,5.30357143 20.9761931,5.30357143 L24.3939792,5.30357143 L25.5860014,8.83928571 L9.2893675,8.83928571 L10.4813897,5.30357143 Z M34.8753688,5.30357143 L26.2790376,5.30357143 L25.8864661,4.14032143 C25.7648495,3.77879464 25.424144,3.53571429 25.0387263,3.53571429 L21.8328751,3.53571429 C21.5100543,1.73426786 19.9147298,0.362410714 18.0019501,0.362410714 C16.088276,0.362410714 14.4938456,1.73426786 14.1710249,3.53571429 L9.83664247,3.53571429 C9.45122497,3.53571429 9.10962517,3.77879464 8.98890275,4.14032143 L8.59633131,5.30357143 L0.894240226,5.30357143 C0.399725381,5.30357143 0,5.69957143 0,6.1875 L0,41.5446429 C0,42.0325714 0.399725381,42.4285714 0.894240226,42.4285714 L34.8753688,42.4285714 C35.3698837,42.4285714 35.7696091,42.0325714 35.7696091,41.5446429 L35.7696091,6.1875 C35.7696091,5.69957143 35.3698837,5.30357143 34.8753688,5.30357143 L34.8753688,5.30357143 Z" id="Fill-1"></path>
                                    <path d="M16.9905643,19.4464286 L25.0387263,19.4464286 C25.5332412,19.4464286 25.9329666,19.0504286 25.9329666,18.5625 C25.9329666,18.0745714 25.5332412,17.6785714 25.0387263,17.6785714 L16.9905643,17.6785714 C16.4960494,17.6785714 16.096324,18.0745714 16.096324,18.5625 C16.096324,19.0504286 16.4960494,19.4464286 16.9905643,19.4464286" id="Fill-3"></path>
                                    <path d="M10.7308827,22.9821429 L25.0387263,22.9821429 C25.5332412,22.9821429 25.9329666,22.5861429 25.9329666,22.0982143 C25.9329666,21.6102857 25.5332412,21.2142857 25.0387263,21.2142857 L10.7308827,21.2142857 C10.2363679,21.2142857 9.83664247,21.6102857 9.83664247,22.0982143 C9.83664247,22.5861429 10.2363679,22.9821429 10.7308827,22.9821429" id="Fill-5"></path>
                                    <path d="M10.7308827,26.5178571 L25.0387263,26.5178571 C25.5332412,26.5178571 25.9329666,26.1218571 25.9329666,25.6339286 C25.9329666,25.146 25.5332412,24.75 25.0387263,24.75 L10.7308827,24.75 C10.2363679,24.75 9.83664247,25.146 9.83664247,25.6339286 C9.83664247,26.1218571 10.2363679,26.5178571 10.7308827,26.5178571" id="Fill-7"></path>
                                    <path d="M10.7308827,30.0535714 L25.0387263,30.0535714 C25.5332412,30.0535714 25.9329666,29.6575714 25.9329666,29.1696429 C25.9329666,28.6817143 25.5332412,28.2857143 25.0387263,28.2857143 L10.7308827,28.2857143 C10.2363679,28.2857143 9.83664247,28.6817143 9.83664247,29.1696429 C9.83664247,29.6575714 10.2363679,30.0535714 10.7308827,30.0535714" id="Fill-9"></path>
                                    <path d="M10.7308827,33.5892857 L25.0387263,33.5892857 C25.5332412,33.5892857 25.9329666,33.1932857 25.9329666,32.7053571 C25.9329666,32.2174286 25.5332412,31.8214286 25.0387263,31.8214286 L10.7308827,31.8214286 C10.2363679,31.8214286 9.83664247,32.2174286 9.83664247,32.7053571 C9.83664247,33.1932857 10.2363679,33.5892857 10.7308827,33.5892857" id="Fill-11"></path>
                                </g>
                            </g>
                        </g>
                    </g>
                </g>
            </g>
        </g>
    </g>
</svg>