<?xml version="1.0" encoding="UTF-8" standalone="no"?>
<svg width="389px" height="168px" viewBox="0 0 389 168" version="1.1" xmlns="http://www.w3.org/2000/svg" xmlns:xlink="http://www.w3.org/1999/xlink" xmlns:sketch="http://www.bohemiancoding.com/sketch/ns">
    <!-- Generator: Sketch 3.5.1 (25234) - http://www.bohemiancoding.com/sketch -->
    <title>sol1</title>
    <desc>Created with Sketch.</desc>
    <defs>
        <path id="path-1" d="M368.134512,76.7708851 C368.134513,66.2802022 369.197906,48.9242707 368.134511,39.8153229 C367.39918,33.5165417 366.388085,34.2815191 360.266439,31.1937087 C345.292008,23.6404781 314.547033,28.0623999 287.494536,8.51437059 C260.44204,-11.0336588 227.587369,10.2732716 212.573331,28.5259869 C197.559293,46.7787023 174.844694,72.3619124 149.91347,72.3619133 C124.982247,72.3619142 83.1409014,41.3053383 51.4199208,17.6149098 C19.6989403,-6.07551862 0.102692485,22.8167581 0.102692485,22.8167581 L0,115.678237 L368.134511,115.275236"></path>
        <path id="path-3" d="M147.178172,76.7708851 C147.178172,63.2171714 147.178173,48.1780769 147.746581,38.4744696 C148.314989,28.7708623 151.509403,32.9777222 155.046246,31.1937087 C170.020676,23.6404781 200.765652,28.0623999 227.818148,8.51437059 C254.870645,-11.0336588 287.725316,10.2732716 302.739354,28.5259869 C317.753392,46.7787023 340.467991,72.3619124 365.399214,72.3619133 C372.48298,72.3619136 363.500053,71.7832732 364.098172,76.7708851 C365.605125,89.3371109 364.098166,115.512701 364.098166,115.512701 L147.178173,115.275236"></path>
        <path id="path-5" d="M147.178172,79.8501173 C147.178172,66.2964036 147.746581,50.1956658 147.746581,41.5537018 C147.746581,32.9117378 147.746581,34.6992897 155.614653,31.1937087 C171.460342,24.1337395 201.33406,28.0623999 228.386556,8.51437059 C255.439052,-11.0336588 288.293723,10.2732716 303.307761,28.5259869 C318.321799,46.7787023 341.036398,72.3619124 365.967622,72.3619133 C373.051387,72.3619136 364.068461,71.7832732 364.66658,76.7708851 C366.173533,89.3371109 364.666573,115.512701 364.666573,115.512701 L147.746581,115.275236"></path>
    </defs>
    <g id="Page-1" stroke="none" stroke-width="1" fill="none" fill-rule="evenodd" sketch:type="MSPage">
        <g id="sol1" sketch:type="MSLayerGroup">
            <g id="sol5">
                <rect id="Rectangle-1-Copy-5" fill="#FFFFFF" sketch:type="MSShapeGroup" x="0" y="0" width="388.419142" height="168"></rect>
                <g id="Graph-no" transform="translate(6.500352, 144.848729)" font-weight="normal" font-family="Avenir Next" fill="#5F6974" font-size="11.1749109" sketch:type="MSTextLayer">
                    <g id="Group" transform="translate(0.056400, 0.656953)">
                        <text id="Past-Data">
                            <tspan x="0" y="11">Past Data</tspan>
                        </text>
                        <text id="Predictions">
                            <tspan x="151.959289" y="11">Predictions</tspan>
                        </text>
                    </g>
                </g>
                <g id="graph-line" transform="translate(6.556752, 23.602337)">
                    <mask id="mask-2" sketch:name="Mask" fill="white">
                        <use xlink:href="#path-1"></use>
                    </mask>
                    <use id="Mask" opacity="0.05" fill="#48C0EB" sketch:type="MSShapeGroup" xlink:href="#path-1"></use>
                    <mask id="mask-4" sketch:name="Mask" fill="white">
                        <use xlink:href="#path-3"></use>
                    </mask>
                    <use id="Mask" opacity="0.05" fill="#48C0EB" sketch:type="MSShapeGroup" transform="translate(257.656342, 58.125796) scale(-1, 1) translate(-257.656342, -58.125796) " xlink:href="#path-3"></use>
                    <mask id="mask-6" sketch:name="Mask" fill="white">
                        <use xlink:href="#path-5"></use>
                    </mask>
                    <use id="Mask" opacity="0.05" fill="#48C0EB" sketch:type="MSShapeGroup" transform="translate(257.940546, 58.125796) scale(-1, 1) translate(-257.940546, -58.125796) " xlink:href="#path-5"></use>
                </g>
                <path d="M28.7840617,42.683432 L28.7840617,139.274967" id="Line" stroke="#EEEEEE" stroke-linecap="square" sketch:type="MSShapeGroup"></path>
                <path d="M50.4807198,37.2634835 L50.4807198,139.274967" id="Line" stroke="#EEEEEE" stroke-linecap="square" sketch:type="MSShapeGroup"></path>
                <path d="M72.1773779,52.4289941 L72.1773779,139.274967" id="Line" stroke="#EEEEEE" stroke-linecap="square" sketch:type="MSShapeGroup"></path>
                <path d="M93.874036,67.5887574 L93.874036,139.274967" id="Line" stroke="#EEEEEE" stroke-linecap="square" sketch:type="MSShapeGroup"></path>
                <path d="M115.570694,81.6555047 L115.570694,139.274967" id="Line" stroke="#EEEEEE" stroke-linecap="square" sketch:type="MSShapeGroup"></path>
                <path d="M137.267352,92.4940828 L137.267352,139.274967" id="Line" stroke="#EEEEEE" stroke-linecap="square" sketch:type="MSShapeGroup"></path>
                <path d="M157.879177,96.4777716 L157.879177,139.274967" id="Line" stroke="#EEEEEE" stroke-linecap="square" sketch:type="MSShapeGroup"></path>
                <path d="M179.575835,90.3164261 L179.575835,139.274967" id="Line" stroke="#EEEEEE" stroke-linecap="square" sketch:type="MSShapeGroup"></path>
                <path d="M201.272494,74.0498352 L201.272494,139.274967" id="Line" stroke="#EEEEEE" stroke-linecap="square" sketch:type="MSShapeGroup"></path>
                <path d="M222.969152,49.1804734 L222.969152,139.274967" id="Line" stroke="#EEEEEE" stroke-linecap="square" sketch:type="MSShapeGroup"></path>
                <path d="M244.66581,32.9323567 L244.66581,139.274967" id="Line" stroke="#EEEEEE" stroke-linecap="square" sketch:type="MSShapeGroup"></path>
                <path d="M266.362468,25.3528418 L266.362468,139.274967" id="Line" stroke="#EEEEEE" stroke-linecap="square" sketch:type="MSShapeGroup"></path>
                <path d="M288.059126,29.6679516 L288.059126,139.274967" id="Line" stroke="#EEEEEE" stroke-linecap="square" sketch:type="MSShapeGroup"></path>
                <path d="M309.755784,41.6005917 L309.755784,139.274967" id="Line" stroke="#EEEEEE" stroke-linecap="square" sketch:type="MSShapeGroup"></path>
                <path d="M331.452442,48.0976331 L331.452442,139.274967" id="Line" stroke="#EEEEEE" stroke-linecap="square" sketch:type="MSShapeGroup"></path>
                <path d="M353.1491,51.3461538 L353.1491,139.274967" id="Line" stroke="#EEEEEE" stroke-linecap="square" sketch:type="MSShapeGroup"></path>
                <path d="M374.845758,59.4992507 L374.845758,139.274967" id="Line" stroke="#EEEEEE" stroke-linecap="square" sketch:type="MSShapeGroup"></path>
                <path d="M7.0874036,48.0976331 L7.0874036,139.274967" id="Line" stroke="#EEEEEE" stroke-linecap="square" sketch:type="MSShapeGroup"></path>
                <path d="M374.809324,59.7012213 C372.051733,57.8367817 369.916927,56.8049678 367.487363,55.579475 C352.512932,48.0262445 321.767956,52.4481663 294.71546,32.900137 C267.662964,13.3521076 234.808293,34.659038 219.794255,52.9117533 C204.780217,71.1644687 182.065618,96.7476788 157.134394,96.7476797 C132.20317,96.7476806 90.3618252,65.6911047 58.6408446,42.0006762 C26.919864,18.3102478 7.14769121,47.3628542 7.14769121,47.3628542" id="Path-296-Copy-5" stroke="#48C0EB" stroke-linecap="round" stroke-linejoin="round" sketch:type="MSShapeGroup"></path>
                <g id="Group-27" transform="translate(257.141388, 7.491124)" sketch:type="MSShapeGroup">
                    <ellipse id="Oval-83" stroke="#FCFCFC" stroke-width="2" fill="#48C0EB" cx="13.2900832" cy="13.3406823" rx="12.4755784" ry="12.4526627"></ellipse>
                    <polygon id="Star-1" fill="#FFFFFF" points="13.5604113 15.9718935 10.6909918 17.4776657 11.2390022 14.288389 8.917593 12.0297308 12.1257015 11.5644216 13.5604113 8.66272189 14.9951211 11.5644216 18.2032296 12.0297308 15.8818205 14.288389 16.4298308 17.4776657 "></polygon>
                </g>
                <g id="Group-26" transform="translate(21.732648, 17.236686)">
                    <ellipse id="Oval-83-Copy" stroke="#FCFCFC" stroke-width="2" fill="#48C0EB" sketch:type="MSShapeGroup" cx="13.3503178" cy="13.3406823" rx="12.4755784" ry="12.4526627"></ellipse>
                    <text id="+" sketch:type="MSTextLayer" font-family="Montserrat" font-size="12.9940828" font-weight="526" fill="#FFFFFF">
                        <tspan x="10.6664355" y="17.6077344">+</tspan>
                    </text>
                </g>
                <path d="M7.08580197,139.381065 L374.477311,139.381065" id="Line" stroke="#ECECEC" stroke-linecap="square" sketch:type="MSShapeGroup"></path>
            </g>
        </g>
    </g>
</svg>