<?xml version="1.0" encoding="UTF-8" standalone="no"?>
<svg width="389px" height="168px" viewBox="0 0 389 168" version="1.1" xmlns="http://www.w3.org/2000/svg" xmlns:xlink="http://www.w3.org/1999/xlink" xmlns:sketch="http://www.bohemiancoding.com/sketch/ns">
    <!-- Generator: Sketch 3.5.1 (25234) - http://www.bohemiancoding.com/sketch -->
    <title>sol4</title>
    <desc>Created with Sketch.</desc>
    <defs>
        <path id="path-1" d="M0,0.247263158 L18,0.247263158 L18,22.2631579 L0,22.2631579"></path>
    </defs>
    <g id="Page-1" stroke="none" stroke-width="1" fill="none" fill-rule="evenodd" sketch:type="MSPage">
        <g id="sol4" sketch:type="MSLayerGroup">
            <g id="messaging-copy">
                <rect id="Rectangle-1-Copy-2" fill="#FFFFFF" sketch:type="MSShapeGroup" x="1.13686838e-13" y="0" width="388.419142" height="168"></rect>
                <g id="Group-24" transform="translate(196.000000, 36.000000)" stroke-width="16" sketch:type="MSShapeGroup">
                    <path d="M53.5,107 C83.0472356,107 107,83.0472356 107,53.5 C107,23.9527644 83.0472356,0 53.5,0 C23.9527644,0 0,23.9527644 0,53.5 C0,83.0472356 23.9527644,107 53.5,107 Z" id="Oval-3" stroke="#0F2F43"></path>
                    <path d="M88.728407,13.2347854 C79.317281,4.99420451 66.9918706,0 53.5,0 C37.8706501,0 23.8066348,6.70198975 14.0250467,17.3888764 C5.31457464,26.9055151 0,39.5821143 0,53.5 C0,69.4955962 7.01976859,83.8516366 18.1466911,93.6555065 C27.5735384,101.96145 39.9483606,107 53.5,107 C68.4811069,107 82.0240342,100.842425 91.735943,90.9201126" id="Oval-3" stroke="#48C0EB"></path>
                    <path d="M14.0250467,17.3888764 C5.31457464,26.9055151 0,39.5821143 0,53.5 C0,69.4955962 7.01976859,83.8516366 18.1466911,93.6555065 C27.5735384,101.96145 39.9483606,107 53.5,107 C68.4811069,107 82.0240342,100.842425 91.735943,90.9201126" id="Oval-3" stroke="#E4F2FB"></path>
                </g>
                <path d="M368.555534,134.5 L287.5,134.5" id="Line" stroke="#ECECEC" stroke-linecap="square" sketch:type="MSShapeGroup"></path>
                <path d="M368.555534,44.5 L287.5,44.5" id="Line" stroke="#ECECEC" stroke-linecap="square" sketch:type="MSShapeGroup"></path>
                <path d="M367.503372,90.5 L217.503372,90.5" id="Line" stroke="#ECECEC" stroke-linecap="square" sketch:type="MSShapeGroup"></path>
                <text id="Internet-Ad" sketch:type="MSTextLayer" font-family="Avenir Next" font-size="10" font-weight="normal" fill="#5F6974">
                    <tspan x="317" y="85">Internet Ad</tspan>
                </text>
                <text id="Radio" sketch:type="MSTextLayer" font-family="Avenir Next" font-size="10" font-weight="normal" fill="#5F6974">
                    <tspan x="343" y="128">Radio</tspan>
                </text>
                <text id="Email" sketch:type="MSTextLayer" font-family="Avenir Next" font-size="10" font-weight="normal" fill="#5F6974">
                    <tspan x="343" y="39">Email</tspan>
                </text>
                <text id="Age-Group:-20-35-Inc" sketch:type="MSTextLayer" font-family="Avenir Next" font-size="8" font-weight="normal" line-spacing="14" fill="#5F6974">
                    <tspan x="19" y="93">Age Group: 20-35</tspan>
                    <tspan x="19" y="107">Income Level: 35k-55k</tspan>
                    <tspan x="19" y="121">Location: Washington D.C</tspan>
                    <tspan x="19" y="135">Best Contact Method: Internet Ad</tspan>
                </text>
                <text id="User-A" sketch:type="MSTextLayer" font-family="Montserrat" font-size="10" font-weight="bold" fill="#0F2F43">
                    <tspan x="18" y="79">User A</tspan>
                </text>
            </g>
            <g id="Page-1" transform="translate(19.000000, 29.000000)">
                <g id="Group-3">
                    <mask id="mask-2" sketch:name="Clip 2" fill="white">
                        <use xlink:href="#path-1"></use>
                    </mask>
                    <g id="Clip-2"></g>
                    <path d="M8.95836316,1.19439474 C6.45731053,1.19439474 4.26320526,3.29281579 4.26320526,5.68444737 C4.26320526,8.71034211 6.67662632,11.9115 8.95836316,11.9115 C11.2358368,11.9115 13.7368895,8.65207895 13.7368895,5.68444737 C13.7368895,3.3345 11.4594158,1.19439474 8.95836316,1.19439474 M8.95836316,12.8588684 C5.83252105,12.8588684 3.31583684,8.93392105 3.31583684,5.68444737 C3.31583684,2.78786842 5.95236316,0.247026316 8.95836316,0.247026316 C12.0084158,0.247026316 14.6842579,2.78786842 14.6842579,5.68444737 C14.6842579,8.91402632 12.0420474,12.8588684 8.95836316,12.8588684" id="Fill-1" fill="#0F2F43" sketch:type="MSShapeGroup" mask="url(#mask-2)"></path>
                </g>
                <path d="M13.7373158,6.63157895 C13.7240526,6.63157895 13.7103158,6.63110526 13.6965789,6.62968421 C11.9496316,6.48142105 10.9563158,5.36684211 10.4404737,4.49715789 C8.94978947,6.52121053 4.38536842,6.62636842 3.79326316,6.63157895 L3.78947368,6.63157895 C3.52989474,6.63157895 3.31815789,6.42221053 3.31578947,6.16215789 C3.31342105,5.90068421 3.52373684,5.68657895 3.78521053,5.68421053 C5.41894737,5.66952632 9.71194737,5.20389474 9.95068421,3.258 C9.97815789,3.03442105 10.1591053,2.86105263 10.3836316,2.84352632 C10.6038947,2.82410526 10.8142105,2.96857895 10.8762632,3.18505263 C10.9037368,3.27836842 11.5801579,5.499 13.7771053,5.68610526 C14.0376316,5.70836842 14.2308947,5.93715789 14.2091053,6.19815789 C14.1877895,6.44494737 13.9807895,6.63157895 13.7373158,6.63157895" id="Fill-4" fill="#0F2F43" sketch:type="MSShapeGroup"></path>
                <path d="M16.5789474,22.2631579 L1.42105263,22.2631579 C0.637578947,22.2631579 0,21.6255789 0,20.8421053 L0,19.4210526 C0,16.0242632 5.30289474,14.5269474 6.35589474,14.2631053 C6.59415789,13.9258421 7.20710526,12.9183158 6.70073684,12.0884211 C6.56478947,11.8657895 6.63536842,11.5744737 6.85847368,11.4375789 C7.08110526,11.3006842 7.37336842,11.3717368 7.50978947,11.5953158 C8.48084211,13.1868947 7.05552632,14.9158421 6.99442105,14.9892632 C6.92763158,15.0683684 6.83668421,15.1237895 6.73578947,15.1465263 C6.67752632,15.1593158 0.947368421,16.4851579 0.947368421,19.4210526 L0.947368421,20.8421053 C0.947368421,21.1035789 1.16005263,21.3157895 1.42105263,21.3157895 L16.5789474,21.3157895 C16.8399474,21.3157895 17.0526316,21.1035789 17.0526316,20.8421053 L17.0526316,19.4210526 C17.0526316,16.4865789 11.2211053,15.1597895 11.1623684,15.147 C11.0572105,15.1237895 10.9634211,15.0650526 10.8956842,14.9812105 C10.8369474,14.9087368 9.47084211,13.1807368 10.4385789,11.5953158 C10.575,11.3717368 10.8663158,11.3006842 11.0898947,11.4375789 C11.313,11.5744737 11.3835789,11.8657895 11.2471579,12.0884211 C10.7412632,12.9173684 11.3139474,13.9187368 11.5455789,14.2635789 C12.6255789,14.5307368 18,16.0275789 18,19.4210526 L18,20.8421053 C18,21.6255789 17.3624211,22.2631579 16.5789474,22.2631579" id="Fill-6" fill="#0F2F43" sketch:type="MSShapeGroup"></path>
                <path d="M9,18.4736842 C7.17157895,18.4736842 5.68421053,16.9858421 5.68421053,15.1578947 C5.68421053,14.8959474 5.89642105,14.6842105 6.15789474,14.6842105 C6.41936842,14.6842105 6.63157895,14.8959474 6.63157895,15.1578947 C6.63157895,16.4638421 7.69405263,17.5263158 9,17.5263158 C10.3059474,17.5263158 11.3684211,16.4638421 11.3684211,15.1578947 C11.3684211,14.8959474 11.5806316,14.6842105 11.8421053,14.6842105 C12.1035789,14.6842105 12.3157895,14.8959474 12.3157895,15.1578947 C12.3157895,16.9858421 10.8284211,18.4736842 9,18.4736842" id="Fill-8" fill="#0F2F43" sketch:type="MSShapeGroup"></path>
                <path d="M1.89473684,17.0526316 C1.77915789,17.0526316 1.66310526,17.0104737 1.57168421,16.9252105 C1.38031579,16.7471053 1.36989474,16.4477368 1.54847368,16.2558947 C4.57342105,13.0087895 3.33805263,6.78931579 3.32526316,6.72678947 C3.27268421,6.47052632 3.438,6.22042105 3.69426316,6.16736842 C3.95052632,6.11526316 4.20063158,6.28010526 4.25321053,6.53636842 C4.31005263,6.81063158 5.59610526,13.3005789 2.241,16.902 C2.14815789,17.0019474 2.02168421,17.0526316 1.89473684,17.0526316" id="Fill-10" fill="#0F2F43" sketch:type="MSShapeGroup"></path>
                <path d="M16.5789474,17.5263158 C16.452,17.5263158 16.3255263,17.4761053 16.2326842,17.3756842 C12.8974737,13.7955789 13.5104211,7.33121053 13.5378947,7.05742105 C13.5644211,6.79736842 13.7979474,6.60931579 14.0570526,6.63394737 C14.3171053,6.66047368 14.5070526,6.89257895 14.4805263,7.15310526 C14.4743684,7.21515789 13.8851053,13.4663684 16.9252105,16.7295789 C17.1037895,16.9214211 17.0933684,17.2207895 16.902,17.3988947 C16.8105789,17.4841579 16.6945263,17.5263158 16.5789474,17.5263158" id="Fill-12" fill="#0F2F43" sketch:type="MSShapeGroup"></path>
            </g>
        </g>
    </g>
</svg>