<?xml version="1.0" encoding="UTF-8" standalone="no"?>
<svg width="389px" height="168px" viewBox="0 0 389 168" version="1.1" xmlns="http://www.w3.org/2000/svg" xmlns:xlink="http://www.w3.org/1999/xlink" xmlns:sketch="http://www.bohemiancoding.com/sketch/ns">
    <!-- Generator: Sketch 3.5.1 (25234) - http://www.bohemiancoding.com/sketch -->
    <title>sol6</title>
    <desc>Created with Sketch.</desc>
    <defs></defs>
    <g id="Page-1" stroke="none" stroke-width="1" fill="none" fill-rule="evenodd" sketch:type="MSPage">
        <g id="sol6" sketch:type="MSLayerGroup">
            <rect id="Rectangle-1-Copy-5" fill="#FFFFFF" sketch:type="MSShapeGroup" x="0" y="0" width="388.419142" height="168"></rect>
            <g id="Page-1" transform="translate(46.000000, 15.000000)" sketch:type="MSShapeGroup">
                <path d="M26,3 L2,3 C0.895,3 0,3.895 0,5 L0,30.999 C0,32.105 0.895,33 2,33 L26,33 C27.104,33 28,32.105 28,30.999 L28,5 C28,3.895 27.104,3 26,3" id="Fill-1" fill="#9B9B9B"></path>
                <path d="M25,5 L3,5 C2.447,5 2,5.447 2,6 L2,29.999 C2,30.552 2.447,30.999 3,30.999 L25,30.999 C25.552,30.999 26,30.552 26,29.999 L26,6 C26,5.447 25.552,5 25,5" id="Fill-3" fill="#FFFFFF"></path>
                <path d="M21,18.999 L7,18.999 C6.447,18.999 6,19.447 6,20 C6,20.552 6.447,20.999 7,20.999 L21,20.999 C21.552,20.999 22,20.552 22,20 C22,19.447 21.552,18.999 21,18.999 M15,22.999 L7,22.999 C6.447,22.999 6,23.447 6,23.999 C6,24.552 6.447,24.999 7,24.999 L15,24.999 C15.552,24.999 16,24.552 16,23.999 C16,23.447 15.552,22.999 15,22.999 M7,12.999 L21,12.999 C21.552,12.999 22,12.552 22,11.999 C22,11.447 21.552,10.999 21,10.999 L7,10.999 C6.447,10.999 6,11.447 6,11.999 C6,12.552 6.447,12.999 7,12.999 M7,16.999 L15,16.999 C15.552,16.999 16,16.552 16,15.999 C16,15.447 15.552,15 15,15 L7,15 C6.447,15 6,15.447 6,15.999 C6,16.552 6.447,16.999 7,16.999" id="Fill-5" fill="#9B9B9B"></path>
                <path d="M22,0.999 C21.447,0.999 21,1.447 21,2 L21,6 C21,6.552 21.447,7 22,7 C22.552,7 23,6.552 23,6 L23,2 C23,1.447 22.552,0.999 22,0.999 M18,0.999 C17.447,0.999 17,1.447 17,2 L17,6 C17,6.552 17.447,7 18,7 C18.552,7 19,6.552 19,6 L19,2 C19,1.447 18.552,0.999 18,0.999 M14,0.999 C13.447,0.999 13,1.447 13,2 L13,6 C13,6.552 13.447,7 14,7 C14.552,7 15,6.552 15,6 L15,2 C15,1.447 14.552,0.999 14,0.999 M10,0.999 C9.447,0.999 9,1.447 9,2 L9,6 C9,6.552 9.447,7 10,7 C10.552,7 11,6.552 11,6 L11,2 C11,1.447 10.552,0.999 10,0.999 M6,0.999 C5.447,0.999 5,1.447 5,2 L5,6 C5,6.552 5.447,7 6,7 C6.552,7 7,6.552 7,6 L7,2 C7,1.447 6.552,0.999 6,0.999" id="Fill-7" fill="#9B9B9B"></path>
            </g>
            <g id="Page-1" transform="translate(156.000000, 25.000000)" sketch:type="MSShapeGroup">
                <path d="M26,3 L2,3 C0.895,3 0,3.895 0,5 L0,30.999 C0,32.105 0.895,33 2,33 L26,33 C27.104,33 28,32.105 28,30.999 L28,5 C28,3.895 27.104,3 26,3" id="Fill-1" fill="#B7BCC0"></path>
                <path d="M25,5 L3,5 C2.447,5 2,5.447 2,6 L2,29.999 C2,30.552 2.447,30.999 3,30.999 L25,30.999 C25.552,30.999 26,30.552 26,29.999 L26,6 C26,5.447 25.552,5 25,5" id="Fill-3" fill="#FFFFFF"></path>
                <path d="M21,18.999 L7,18.999 C6.447,18.999 6,19.447 6,20 C6,20.552 6.447,20.999 7,20.999 L21,20.999 C21.552,20.999 22,20.552 22,20 C22,19.447 21.552,18.999 21,18.999 M15,22.999 L7,22.999 C6.447,22.999 6,23.447 6,23.999 C6,24.552 6.447,24.999 7,24.999 L15,24.999 C15.552,24.999 16,24.552 16,23.999 C16,23.447 15.552,22.999 15,22.999 M7,12.999 L21,12.999 C21.552,12.999 22,12.552 22,11.999 C22,11.447 21.552,10.999 21,10.999 L7,10.999 C6.447,10.999 6,11.447 6,11.999 C6,12.552 6.447,12.999 7,12.999 M7,16.999 L15,16.999 C15.552,16.999 16,16.552 16,15.999 C16,15.447 15.552,15 15,15 L7,15 C6.447,15 6,15.447 6,15.999 C6,16.552 6.447,16.999 7,16.999" id="Fill-5" fill="#CCCCCC"></path>
                <path d="M22,0.999 C21.447,0.999 21,1.447 21,2 L21,6 C21,6.552 21.447,7 22,7 C22.552,7 23,6.552 23,6 L23,2 C23,1.447 22.552,0.999 22,0.999 M18,0.999 C17.447,0.999 17,1.447 17,2 L17,6 C17,6.552 17.447,7 18,7 C18.552,7 19,6.552 19,6 L19,2 C19,1.447 18.552,0.999 18,0.999 M14,0.999 C13.447,0.999 13,1.447 13,2 L13,6 C13,6.552 13.447,7 14,7 C14.552,7 15,6.552 15,6 L15,2 C15,1.447 14.552,0.999 14,0.999 M10,0.999 C9.447,0.999 9,1.447 9,2 L9,6 C9,6.552 9.447,7 10,7 C10.552,7 11,6.552 11,6 L11,2 C11,1.447 10.552,0.999 10,0.999 M6,0.999 C5.447,0.999 5,1.447 5,2 L5,6 C5,6.552 5.447,7 6,7 C6.552,7 7,6.552 7,6 L7,2 C7,1.447 6.552,0.999 6,0.999" id="Fill-7" fill="#B7BCC0"></path>
            </g>
            <g id="Page-1" transform="translate(312.000000, 67.000000)" sketch:type="MSShapeGroup">
                <path d="M37.1428571,3.45238095 L2.85714286,3.45238095 C1.27857143,3.45238095 0,4.73095238 0,6.30952381 L0,43.4509524 C0,45.0309524 1.27857143,46.3095238 2.85714286,46.3095238 L37.1428571,46.3095238 C38.72,46.3095238 40,45.0309524 40,43.4509524 L40,6.30952381 C40,4.73095238 38.72,3.45238095 37.1428571,3.45238095" id="Fill-1" fill="#48C0EB"></path>
                <path d="M35.7142857,6.30952381 L4.28571429,6.30952381 C3.49571429,6.30952381 2.85714286,6.94809524 2.85714286,7.73809524 L2.85714286,42.022381 C2.85714286,42.812381 3.49571429,43.4509524 4.28571429,43.4509524 L35.7142857,43.4509524 C36.5028571,43.4509524 37.1428571,42.812381 37.1428571,42.022381 L37.1428571,7.73809524 C37.1428571,6.94809524 36.5028571,6.30952381 35.7142857,6.30952381" id="Fill-3" fill="#FFFFFF"></path>
                <path d="M30,26.3080952 L10,26.3080952 C9.21,26.3080952 8.57142857,26.9480952 8.57142857,27.7380952 C8.57142857,28.5266667 9.21,29.1652381 10,29.1652381 L30,29.1652381 C30.7885714,29.1652381 31.4285714,28.5266667 31.4285714,27.7380952 C31.4285714,26.9480952 30.7885714,26.3080952 30,26.3080952 M21.4285714,32.022381 L10,32.022381 C9.21,32.022381 8.57142857,32.662381 8.57142857,33.4509524 C8.57142857,34.2409524 9.21,34.8795238 10,34.8795238 L21.4285714,34.8795238 C22.2171429,34.8795238 22.8571429,34.2409524 22.8571429,33.4509524 C22.8571429,32.662381 22.2171429,32.022381 21.4285714,32.022381 M10,17.7366667 L30,17.7366667 C30.7885714,17.7366667 31.4285714,17.0980952 31.4285714,16.3080952 C31.4285714,15.5195238 30.7885714,14.8795238 30,14.8795238 L10,14.8795238 C9.21,14.8795238 8.57142857,15.5195238 8.57142857,16.3080952 C8.57142857,17.0980952 9.21,17.7366667 10,17.7366667 M10,23.4509524 L21.4285714,23.4509524 C22.2171429,23.4509524 22.8571429,22.812381 22.8571429,22.022381 C22.8571429,21.2338095 22.2171429,20.5952381 21.4285714,20.5952381 L10,20.5952381 C9.21,20.5952381 8.57142857,21.2338095 8.57142857,22.022381 C8.57142857,22.812381 9.21,23.4509524 10,23.4509524" id="Fill-5" fill="#CCCCCC"></path>
                <path d="M31.4285714,0.593809524 C30.6385714,0.593809524 30,1.23380952 30,2.02380952 L30,7.73809524 C30,8.52666667 30.6385714,9.16666667 31.4285714,9.16666667 C32.2171429,9.16666667 32.8571429,8.52666667 32.8571429,7.73809524 L32.8571429,2.02380952 C32.8571429,1.23380952 32.2171429,0.593809524 31.4285714,0.593809524 M25.7142857,0.593809524 C24.9242857,0.593809524 24.2857143,1.23380952 24.2857143,2.02380952 L24.2857143,7.73809524 C24.2857143,8.52666667 24.9242857,9.16666667 25.7142857,9.16666667 C26.5028571,9.16666667 27.1428571,8.52666667 27.1428571,7.73809524 L27.1428571,2.02380952 C27.1428571,1.23380952 26.5028571,0.593809524 25.7142857,0.593809524 M20,0.593809524 C19.21,0.593809524 18.5714286,1.23380952 18.5714286,2.02380952 L18.5714286,7.73809524 C18.5714286,8.52666667 19.21,9.16666667 20,9.16666667 C20.7885714,9.16666667 21.4285714,8.52666667 21.4285714,7.73809524 L21.4285714,2.02380952 C21.4285714,1.23380952 20.7885714,0.593809524 20,0.593809524 M14.2857143,0.593809524 C13.4957143,0.593809524 12.8571429,1.23380952 12.8571429,2.02380952 L12.8571429,7.73809524 C12.8571429,8.52666667 13.4957143,9.16666667 14.2857143,9.16666667 C15.0742857,9.16666667 15.7142857,8.52666667 15.7142857,7.73809524 L15.7142857,2.02380952 C15.7142857,1.23380952 15.0742857,0.593809524 14.2857143,0.593809524 M8.57142857,0.593809524 C7.78142857,0.593809524 7.14285714,1.23380952 7.14285714,2.02380952 L7.14285714,7.73809524 C7.14285714,8.52666667 7.78142857,9.16666667 8.57142857,9.16666667 C9.36,9.16666667 10,8.52666667 10,7.73809524 L10,2.02380952 C10,1.23380952 9.36,0.593809524 8.57142857,0.593809524" id="Fill-7" fill="#48C0EB"></path>
            </g>
            <g id="Page-1" transform="translate(56.000000, 25.000000)" sketch:type="MSShapeGroup">
                <path d="M26,3 L2,3 C0.895,3 0,3.895 0,5 L0,30.999 C0,32.105 0.895,33 2,33 L26,33 C27.104,33 28,32.105 28,30.999 L28,5 C28,3.895 27.104,3 26,3" id="Fill-1" fill="#B7BCC0"></path>
                <path d="M25,5 L3,5 C2.447,5 2,5.447 2,6 L2,29.999 C2,30.552 2.447,30.999 3,30.999 L25,30.999 C25.552,30.999 26,30.552 26,29.999 L26,6 C26,5.447 25.552,5 25,5" id="Fill-3" fill="#FFFFFF"></path>
                <path d="M21,18.999 L7,18.999 C6.447,18.999 6,19.447 6,20 C6,20.552 6.447,20.999 7,20.999 L21,20.999 C21.552,20.999 22,20.552 22,20 C22,19.447 21.552,18.999 21,18.999 M15,22.999 L7,22.999 C6.447,22.999 6,23.447 6,23.999 C6,24.552 6.447,24.999 7,24.999 L15,24.999 C15.552,24.999 16,24.552 16,23.999 C16,23.447 15.552,22.999 15,22.999 M7,12.999 L21,12.999 C21.552,12.999 22,12.552 22,11.999 C22,11.447 21.552,10.999 21,10.999 L7,10.999 C6.447,10.999 6,11.447 6,11.999 C6,12.552 6.447,12.999 7,12.999 M7,16.999 L15,16.999 C15.552,16.999 16,16.552 16,15.999 C16,15.447 15.552,15 15,15 L7,15 C6.447,15 6,15.447 6,15.999 C6,16.552 6.447,16.999 7,16.999" id="Fill-5" fill="#CCCCCC"></path>
                <path d="M22,0.999 C21.447,0.999 21,1.447 21,2 L21,6 C21,6.552 21.447,7 22,7 C22.552,7 23,6.552 23,6 L23,2 C23,1.447 22.552,0.999 22,0.999 M18,0.999 C17.447,0.999 17,1.447 17,2 L17,6 C17,6.552 17.447,7 18,7 C18.552,7 19,6.552 19,6 L19,2 C19,1.447 18.552,0.999 18,0.999 M14,0.999 C13.447,0.999 13,1.447 13,2 L13,6 C13,6.552 13.447,7 14,7 C14.552,7 15,6.552 15,6 L15,2 C15,1.447 14.552,0.999 14,0.999 M10,0.999 C9.447,0.999 9,1.447 9,2 L9,6 C9,6.552 9.447,7 10,7 C10.552,7 11,6.552 11,6 L11,2 C11,1.447 10.552,0.999 10,0.999 M6,0.999 C5.447,0.999 5,1.447 5,2 L5,6 C5,6.552 5.447,7 6,7 C6.552,7 7,6.552 7,6 L7,2 C7,1.447 6.552,0.999 6,0.999" id="Fill-7" fill="#B7BCC0"></path>
            </g>
            <path d="M96.5,136.5 L140.5,136.5" id="Line" stroke="#EEEEEE" stroke-linecap="square" sketch:type="MSShapeGroup"></path>
            <path d="M217.883721,136.5 L291.237885,94.9969881" id="Line" stroke="#EEEEEE" stroke-linecap="square" sketch:type="MSShapeGroup"></path>
            <path d="M292.116279,94.5 L218.762115,52.9969881" id="Line" stroke="#EEEEEE" stroke-linecap="square" sketch:type="MSShapeGroup"></path>
            <path d="M96.5,46.5 L140.5,46.5" id="Line" stroke="#EEEEEE" stroke-linecap="square" sketch:type="MSShapeGroup"></path>
            <g id="Page-1" transform="translate(46.000000, 110.000000)" sketch:type="MSShapeGroup">
                <path d="M26,3 L2,3 C0.895,3 0,3.895 0,5 L0,30.999 C0,32.105 0.895,33 2,33 L26,33 C27.104,33 28,32.105 28,30.999 L28,5 C28,3.895 27.104,3 26,3" id="Fill-1" fill="#0F2F43"></path>
                <path d="M25,5 L3,5 C2.447,5 2,5.447 2,6 L2,29.999 C2,30.552 2.447,30.999 3,30.999 L25,30.999 C25.552,30.999 26,30.552 26,29.999 L26,6 C26,5.447 25.552,5 25,5" id="Fill-3" fill="#FFFFFF"></path>
                <path d="M21,18.999 L7,18.999 C6.447,18.999 6,19.447 6,20 C6,20.552 6.447,20.999 7,20.999 L21,20.999 C21.552,20.999 22,20.552 22,20 C22,19.447 21.552,18.999 21,18.999 M15,22.999 L7,22.999 C6.447,22.999 6,23.447 6,23.999 C6,24.552 6.447,24.999 7,24.999 L15,24.999 C15.552,24.999 16,24.552 16,23.999 C16,23.447 15.552,22.999 15,22.999 M7,12.999 L21,12.999 C21.552,12.999 22,12.552 22,11.999 C22,11.447 21.552,10.999 21,10.999 L7,10.999 C6.447,10.999 6,11.447 6,11.999 C6,12.552 6.447,12.999 7,12.999 M7,16.999 L15,16.999 C15.552,16.999 16,16.552 16,15.999 C16,15.447 15.552,15 15,15 L7,15 C6.447,15 6,15.447 6,15.999 C6,16.552 6.447,16.999 7,16.999" id="Fill-5" fill="#0F2F43"></path>
                <path d="M22,0.999 C21.447,0.999 21,1.447 21,2 L21,6 C21,6.552 21.447,7 22,7 C22.552,7 23,6.552 23,6 L23,2 C23,1.447 22.552,0.999 22,0.999 M18,0.999 C17.447,0.999 17,1.447 17,2 L17,6 C17,6.552 17.447,7 18,7 C18.552,7 19,6.552 19,6 L19,2 C19,1.447 18.552,0.999 18,0.999 M14,0.999 C13.447,0.999 13,1.447 13,2 L13,6 C13,6.552 13.447,7 14,7 C14.552,7 15,6.552 15,6 L15,2 C15,1.447 14.552,0.999 14,0.999 M10,0.999 C9.447,0.999 9,1.447 9,2 L9,6 C9,6.552 9.447,7 10,7 C10.552,7 11,6.552 11,6 L11,2 C11,1.447 10.552,0.999 10,0.999 M6,0.999 C5.447,0.999 5,1.447 5,2 L5,6 C5,6.552 5.447,7 6,7 C6.552,7 7,6.552 7,6 L7,2 C7,1.447 6.552,0.999 6,0.999" id="Fill-7" fill="#0F2F43"></path>
            </g>
            <g id="Page-1" transform="translate(56.000000, 120.000000)" sketch:type="MSShapeGroup">
                <path d="M26,3 L2,3 C0.895,3 0,3.895 0,5 L0,30.999 C0,32.105 0.895,33 2,33 L26,33 C27.104,33 28,32.105 28,30.999 L28,5 C28,3.895 27.104,3 26,3" id="Fill-1" fill="#48C0EB"></path>
                <path d="M25,5 L3,5 C2.447,5 2,5.447 2,6 L2,29.999 C2,30.552 2.447,30.999 3,30.999 L25,30.999 C25.552,30.999 26,30.552 26,29.999 L26,6 C26,5.447 25.552,5 25,5" id="Fill-3" fill="#FFFFFF"></path>
                <path d="M21,18.999 L7,18.999 C6.447,18.999 6,19.447 6,20 C6,20.552 6.447,20.999 7,20.999 L21,20.999 C21.552,20.999 22,20.552 22,20 C22,19.447 21.552,18.999 21,18.999 M15,22.999 L7,22.999 C6.447,22.999 6,23.447 6,23.999 C6,24.552 6.447,24.999 7,24.999 L15,24.999 C15.552,24.999 16,24.552 16,23.999 C16,23.447 15.552,22.999 15,22.999 M7,12.999 L21,12.999 C21.552,12.999 22,12.552 22,11.999 C22,11.447 21.552,10.999 21,10.999 L7,10.999 C6.447,10.999 6,11.447 6,11.999 C6,12.552 6.447,12.999 7,12.999 M7,16.999 L15,16.999 C15.552,16.999 16,16.552 16,15.999 C16,15.447 15.552,15 15,15 L7,15 C6.447,15 6,15.447 6,15.999 C6,16.552 6.447,16.999 7,16.999" id="Fill-5" fill="#48C0EB"></path>
                <path d="M22,0.999 C21.447,0.999 21,1.447 21,2 L21,6 C21,6.552 21.447,7 22,7 C22.552,7 23,6.552 23,6 L23,2 C23,1.447 22.552,0.999 22,0.999 M18,0.999 C17.447,0.999 17,1.447 17,2 L17,6 C17,6.552 17.447,7 18,7 C18.552,7 19,6.552 19,6 L19,2 C19,1.447 18.552,0.999 18,0.999 M14,0.999 C13.447,0.999 13,1.447 13,2 L13,6 C13,6.552 13.447,7 14,7 C14.552,7 15,6.552 15,6 L15,2 C15,1.447 14.552,0.999 14,0.999 M10,0.999 C9.447,0.999 9,1.447 9,2 L9,6 C9,6.552 9.447,7 10,7 C10.552,7 11,6.552 11,6 L11,2 C11,1.447 10.552,0.999 10,0.999 M6,0.999 C5.447,0.999 5,1.447 5,2 L5,6 C5,6.552 5.447,7 6,7 C6.552,7 7,6.552 7,6 L7,2 C7,1.447 6.552,0.999 6,0.999" id="Fill-7" fill="#48C0EB"></path>
            </g>
            <g id="Page-1" transform="translate(156.000000, 120.000000)" sketch:type="MSShapeGroup">
                <path d="M26,3 L2,3 C0.895,3 0,3.895 0,5 L0,30.999 C0,32.105 0.895,33 2,33 L26,33 C27.104,33 28,32.105 28,30.999 L28,5 C28,3.895 27.104,3 26,3" id="Fill-1" fill="#48C0EB"></path>
                <path d="M25,5 L3,5 C2.447,5 2,5.447 2,6 L2,29.999 C2,30.552 2.447,30.999 3,30.999 L25,30.999 C25.552,30.999 26,30.552 26,29.999 L26,6 C26,5.447 25.552,5 25,5" id="Fill-3" fill="#FFFFFF"></path>
                <path d="M21,18.999 L7,18.999 C6.447,18.999 6,19.447 6,20 C6,20.552 6.447,20.999 7,20.999 L21,20.999 C21.552,20.999 22,20.552 22,20 C22,19.447 21.552,18.999 21,18.999 M15,22.999 L7,22.999 C6.447,22.999 6,23.447 6,23.999 C6,24.552 6.447,24.999 7,24.999 L15,24.999 C15.552,24.999 16,24.552 16,23.999 C16,23.447 15.552,22.999 15,22.999 M7,12.999 L21,12.999 C21.552,12.999 22,12.552 22,11.999 C22,11.447 21.552,10.999 21,10.999 L7,10.999 C6.447,10.999 6,11.447 6,11.999 C6,12.552 6.447,12.999 7,12.999 M7,16.999 L15,16.999 C15.552,16.999 16,16.552 16,15.999 C16,15.447 15.552,15 15,15 L7,15 C6.447,15 6,15.447 6,15.999 C6,16.552 6.447,16.999 7,16.999" id="Fill-5" fill="#48C0EB"></path>
                <path d="M22,0.999 C21.447,0.999 21,1.447 21,2 L21,6 C21,6.552 21.447,7 22,7 C22.552,7 23,6.552 23,6 L23,2 C23,1.447 22.552,0.999 22,0.999 M18,0.999 C17.447,0.999 17,1.447 17,2 L17,6 C17,6.552 17.447,7 18,7 C18.552,7 19,6.552 19,6 L19,2 C19,1.447 18.552,0.999 18,0.999 M14,0.999 C13.447,0.999 13,1.447 13,2 L13,6 C13,6.552 13.447,7 14,7 C14.552,7 15,6.552 15,6 L15,2 C15,1.447 14.552,0.999 14,0.999 M10,0.999 C9.447,0.999 9,1.447 9,2 L9,6 C9,6.552 9.447,7 10,7 C10.552,7 11,6.552 11,6 L11,2 C11,1.447 10.552,0.999 10,0.999 M6,0.999 C5.447,0.999 5,1.447 5,2 L5,6 C5,6.552 5.447,7 6,7 C6.552,7 7,6.552 7,6 L7,2 C7,1.447 6.552,0.999 6,0.999" id="Fill-7" fill="#48C0EB"></path>
            </g>
        </g>
    </g>
</svg>