<?xml version="1.0" encoding="UTF-8"?>
<svg width="22px" height="18px" viewBox="0 0 22 18" version="1.1" xmlns="http://www.w3.org/2000/svg" xmlns:xlink="http://www.w3.org/1999/xlink">
    <!-- Generator: Sketch 42 (36781) - http://www.bohemiancoding.com/sketch -->
    <title>ticonwht</title>
    <desc>Created with Sketch.</desc>
    <defs></defs>
    <g id="Page-1" stroke="none" stroke-width="1" fill="none" fill-rule="evenodd">
        <g id="ticonwht" fill-rule="nonzero" fill="#FFFFFF">
            <g id="Page-1">
                <g id="Desktop-HD-Copy-26">
                    <path d="M21.85,2.02991 C21.046462,2.37473 20.182073,2.60721 19.275557,2.71175 C20.200797,2.17657 20.910719,1.32779 21.246176,0.31517 C20.380227,0.8129 19.420662,1.17176 18.398686,1.3668 C17.582666,0.52581 16.417145,0 15.126803,0 C12.652217,0 10.645712,1.93785 10.645712,4.32975 C10.645712,4.66832 10.684719,4.9991 10.761172,5.31427 C7.035251,5.13484 3.732162,3.41231 1.521262,0.79106 C1.135875,1.43077 0.914317,2.17657 0.914317,2.96919 C0.914317,4.47017 1.705373,5.7964 2.908341,6.57341 C2.175014,6.55001 1.482255,6.35497 0.878431,6.03044 L0.878431,6.08661 C0.878431,8.18361 2.423097,9.93267 4.47329,10.33054 C4.097265,10.4304 3.702517,10.48344 3.292167,10.48344 C3.003517,10.48344 2.722669,10.45536 2.449622,10.40543 C3.02068,12.12641 4.676125,13.37774 6.635822,13.41207 C5.102078,14.57447 3.168905,15.26567 1.070344,15.26567 C0.708362,15.26567 0.35106,15.24538 0,15.20482 C1.984662,16.43431 4.340667,17.15047 6.871423,17.15047 C15.117442,17.15047 19.626618,10.55366 19.626618,4.83215 C19.626618,4.64492 19.621937,4.45613 19.612575,4.27202 C20.487886,3.66039 21.249297,2.89898 21.85,2.02991" id="ticon"></path>
                </g>
            </g>
        </g>
    </g>
</svg>