<?xml version="1.0" encoding="UTF-8"?>
<svg width="22px" height="18px" viewBox="0 0 22 18" version="1.1" xmlns="http://www.w3.org/2000/svg" xmlns:xlink="http://www.w3.org/1999/xlink">
    <!-- Generator: Sketch 42 (36781) - http://www.bohemiancoding.com/sketch -->
    <title>ticon</title>
    <desc>Created with Sketch.</desc>
    <defs></defs>
    <g id="Page-1" stroke="none" stroke-width="1" fill="none" fill-rule="evenodd">
        <g id="Desktop-HD-Copy-26" transform="translate(-449.000000, -5870.000000)" fill="#48C0EB">
            <path d="M470.85,5872.02991 C470.046462,5872.37473 469.182073,5872.60721 468.275557,5872.71175 C469.200797,5872.17657 469.910719,5871.32779 470.246176,5870.31517 C469.380227,5870.8129 468.420662,5871.17176 467.398686,5871.3668 C466.582666,5870.52581 465.417145,5870 464.126803,5870 C461.652217,5870 459.645712,5871.93785 459.645712,5874.32975 C459.645712,5874.66832 459.684719,5874.9991 459.761172,5875.31427 C456.035251,5875.13484 452.732162,5873.41231 450.521262,5870.79106 C450.135875,5871.43077 449.914317,5872.17657 449.914317,5872.96919 C449.914317,5874.47017 450.705373,5875.7964 451.908341,5876.57341 C451.175014,5876.55001 450.482255,5876.35497 449.878431,5876.03044 L449.878431,5876.08661 C449.878431,5878.18361 451.423097,5879.93267 453.47329,5880.33054 C453.097265,5880.4304 452.702517,5880.48344 452.292167,5880.48344 C452.003517,5880.48344 451.722669,5880.45536 451.449622,5880.40543 C452.02068,5882.12641 453.676125,5883.37774 455.635822,5883.41207 C454.102078,5884.57447 452.168905,5885.26567 450.070344,5885.26567 C449.708362,5885.26567 449.35106,5885.24538 449,5885.20482 C450.984662,5886.43431 453.340667,5887.15047 455.871423,5887.15047 C464.117442,5887.15047 468.626618,5880.55366 468.626618,5874.83215 C468.626618,5874.64492 468.621937,5874.45613 468.612575,5874.27202 C469.487886,5873.66039 470.249297,5872.89898 470.85,5872.02991" id="ticon"></path>
        </g>
    </g>
</svg>