<?xml version="1.0" encoding="UTF-8" standalone="no"?>
<svg width="391px" height="168px" viewBox="0 0 391 168" version="1.1" xmlns="http://www.w3.org/2000/svg" xmlns:xlink="http://www.w3.org/1999/xlink" xmlns:sketch="http://www.bohemiancoding.com/sketch/ns">
    <!-- Generator: Sketch 3.5.1 (25234) - http://www.bohemiancoding.com/sketch -->
    <title>time</title>
    <desc>Created with Sketch.</desc>
    <defs>
        <path id="path-1" d="M1.08246745e-13,27.5050161 C18.9597259,29.1936023 25.1864389,37.5982435 44.0350055,38.2473103 C53.3573813,38.5683344 55.1575045,47.3593162 64.4817041,47.4617295 C72.3407295,47.5480499 78.4586831,45.0339804 84.2666701,42.1027269 C90.0746571,39.1714733 107.435949,30.7732507 118.684009,27.8933905 C129.932068,25.0135303 152.562694,8.87257201 172.883205,1.41939133 C193.203716,-6.03378935 218.346033,19.9169447 229.623843,26.8762541 C240.901654,33.8355636 257.963749,43.5898096 276.690864,43.5898099 C295.417979,43.5898103 326.84715,31.7487051 350.674399,22.71613 C374.501647,13.6835548 389.221389,24.6994662 389.221389,24.6994662 L389.298527,60.1052541 L0.463496641,60.1052555"></path>
    </defs>
    <g id="Page-1" stroke="none" stroke-width="1" fill="none" fill-rule="evenodd" sketch:type="MSPage">
        <g id="time" sketch:type="MSLayerGroup">
            <rect id="Rectangle-1" fill="#FFFFFF" sketch:type="MSShapeGroup" x="1.29042904" y="0" width="388.419142" height="168"></rect>
            <path d="M0.645214521,97.7236842 L388.633255,97.7236842" id="Line" stroke="#E6E6E6" stroke-linecap="square" sketch:type="MSShapeGroup"></path>
            <path d="M40.6485149,99.0131579 L40.6485149,106.75" id="Line" stroke="#979797" stroke-linecap="square" sketch:type="MSShapeGroup"></path>
            <path d="M40.6485149,99.0131579 L40.6485149,106.75" id="Line" stroke="#979797" stroke-linecap="square" sketch:type="MSShapeGroup"></path>
            <path d="M213.533003,99.0131579 L213.533003,106.75" id="Line" stroke="#979797" stroke-linecap="square" sketch:type="MSShapeGroup"></path>
            <path d="M345.189769,99.0131579 L345.189769,106.75" id="Line" stroke="#979797" stroke-linecap="square" sketch:type="MSShapeGroup"></path>
            <text id="12:30pm-The-perfect-" sketch:type="MSTextLayer" font-family="Avenir Next" font-size="10.3157895" font-weight="normal" sketch:alignment="middle" fill="#5F6974">
                <tspan x="193.480064" y="129">12:30pm</tspan>
                <tspan x="174.55059" y="143">The perfect time!</tspan>
            </text>
            <text id="3:00pm" sketch:type="MSTextLayer" font-family="Avenir Next" font-size="10.3157895" font-weight="normal" sketch:alignment="middle" fill="#5F6974">
                <tspan x="331.999696" y="129">3:00pm</tspan>
            </text>
            <text id="9:00am" sketch:type="MSTextLayer" font-family="Avenir Next" font-size="10.3157895" font-weight="normal" sketch:alignment="middle" fill="#5F6974">
                <tspan x="24.7533163" y="129">9:00am</tspan>
            </text>
            <g id="graph-line" transform="translate(1.290429, 33.627504)">
                <mask id="mask-2" sketch:name="Mask" fill="white">
                    <use xlink:href="#path-1"></use>
                </mask>
                <use id="Mask" opacity="0.05" fill="#48C0EB" sketch:type="MSShapeGroup" transform="translate(194.649263, 30.096502) scale(-1, 1) translate(-194.649263, -30.096502) " xlink:href="#path-1"></use>
            </g>
            <path d="M389.699247,60.8024592 C389.699247,60.8024592 365.90141,71.5244494 347.052843,72.1735162 C337.730468,72.4945403 335.930345,81.2855222 326.606145,81.3879355 C318.747119,81.4742558 312.629166,78.9601863 306.821179,76.0289328 C301.013192,73.0976793 283.6519,64.6994567 272.40384,61.8195964 C261.155781,58.9397362 239.234563,41.9753572 218.914052,34.5221765 C198.593541,27.0689958 172.741816,53.8431506 161.464006,60.8024601 C150.186195,67.7617695 133.1241,77.5160155 114.396985,77.5160159 C95.6698696,77.5160162 64.2406987,65.674911 40.4134505,56.6423359 C16.5862023,47.6097608 1.29042904,58.7297565 1.29042904,58.7297565" id="Path-296-Copy-5" stroke="#48C0EB" stroke-linecap="round" stroke-linejoin="round" sketch:type="MSShapeGroup"></path>
            <ellipse id="Oval-83" stroke="#FFFFFF" stroke-width="3" fill="#48C0EB" sketch:type="MSShapeGroup" cx="212.453203" cy="32.3983146" rx="7.5265797" ry="7.57503835"></ellipse>
        </g>
    </g>
</svg>