<?xml version="1.0" encoding="UTF-8"?>
<svg width="25px" height="32px" viewBox="0 0 25 32" version="1.1" xmlns="http://www.w3.org/2000/svg" xmlns:xlink="http://www.w3.org/1999/xlink">
    <!-- Generator: Sketch 40.3 (33839) - http://www.bohemiancoding.com/sketch -->
    <title>Group 44</title>
    <desc>Created with Sketch.</desc>
    <defs></defs>
    <g id="Page-1" stroke="none" stroke-width="1" fill="none" fill-rule="evenodd">
        <g id="Group-44" fill="#48C0EB">
            <path d="M12.5,1.33333333 C11.0486842,1.33333333 9.86842105,2.52933333 9.86842105,4 C9.86842105,5.47066667 11.0486842,6.66666667 12.5,6.66666667 C13.9513158,6.66666667 15.1315789,5.47066667 15.1315789,4 C15.1315789,2.52933333 13.9513158,1.33333333 12.5,1.33333333 M12.5,8 C10.3230263,8 8.55263158,6.206 8.55263158,4 C8.55263158,1.794 10.3230263,0 12.5,0 C14.6769737,0 16.4473684,1.794 16.4473684,4 C16.4473684,6.206 14.6769737,8 12.5,8" id="Fill-1"></path>
            <path d="M12.5,8.0042 L8.50263158,8.4542 C7.81052632,8.5322 7.29736842,9.14486667 7.33355263,9.84953333 L7.79144737,18.6628667 C7.8375,19.5462 8.4375,20.2835333 9.28421053,20.4982 L10.0282895,20.6862 C10.2638158,20.7462 10.4473684,20.9328667 10.5065789,21.1715333 L12.3203947,28.5248667 C12.3618421,28.6922 12.6381579,28.6922 12.6789474,28.5248667 L14.4934211,21.1715333 C14.5526316,20.9328667 14.7361842,20.7462 14.9717105,20.6862 L15.7157895,20.4982 C16.5625,20.2835333 17.1625,19.5462 17.2085526,18.6628667 L17.6657895,9.84953333 C17.7026316,9.14486667 17.1894737,8.5322 16.4973684,8.4542 L12.5,8.0042 Z M12.5,30.0002 C11.8105263,30.0002 11.2111842,29.5262 11.0440789,28.8482 L9.32565789,21.8828667 L8.96447368,21.7915333 C7.55328947,21.4342 6.55394737,20.2048667 6.47763158,18.7328667 L6.01973684,9.91953333 C5.94671053,8.5102 6.97368421,7.28486667 8.35723684,7.12886667 L12.4276316,6.67086667 C12.4756579,6.66486667 12.5243421,6.66486667 12.5723684,6.67086667 L16.6427632,7.12953333 C18.0263158,7.28486667 19.0532895,8.5102 18.9802632,9.91953333 L18.5223684,18.7328667 C18.4460526,20.2048667 17.4467105,21.4342 16.0348684,21.7915333 L15.6743421,21.8828667 L13.9559211,28.8482 C13.7881579,29.5262 13.1894737,30.0002 12.5,30.0002 L12.5,30.0002 Z" id="Fill-3"></path>
            <path d="M12.5,32 C7.85723684,32 0,31.298 0,28.6666667 C0,26.5593333 4.92894737,25.7653333 7.86644737,25.4786667 C8.23355263,25.4446667 8.55,25.7126667 8.58421053,26.0786667 C8.61907895,26.4453333 8.35394737,26.7706667 7.99210526,26.8066667 C3.14539474,27.278 1.40131579,28.3426667 1.31447368,28.6773333 C1.50921053,29.3573333 5.52302632,30.6666667 12.5,30.6666667 C19.4769737,30.6666667 23.4907895,29.3573333 23.6855263,28.6546667 C23.5809211,28.3013333 21.7644737,27.3226667 17.0506579,26.874 C16.6894737,26.8393333 16.4236842,26.514 16.4578947,26.1473333 C16.4914474,25.7806667 16.8098684,25.5093333 17.1743421,25.546 C20.0967105,25.8246667 25,26.6006667 25,28.6666667 C25,31.298 17.1427632,32 12.5,32" id="Fill-5"></path>
        </g>
    </g>
</svg>