<?xml version="1.0" encoding="UTF-8"?>
<svg width="30px" height="32px" viewBox="0 0 30 32" version="1.1" xmlns="http://www.w3.org/2000/svg" xmlns:xlink="http://www.w3.org/1999/xlink">
    <!-- Generator: Sketch 40.3 (33839) - http://www.bohemiancoding.com/sketch -->
    <title>dar</title>
    <desc>Created with Sketch.</desc>
    <defs></defs>
    <g id="Page-1" stroke="none" stroke-width="1" fill="none" fill-rule="evenodd">
        <g id="dar" fill="#48C0EB">
            <path d="M26.4727273,25.1151515 L25.1151515,25.1151515 L25.1151515,23.0787879 C25.1151515,22.7047758 24.8110545,22.4 24.4363636,22.4 L5.43030303,22.4 C5.05561212,22.4 4.75151515,22.7047758 4.75151515,23.0787879 L4.75151515,25.1151515 L3.39393939,25.1151515 L3.39393939,23.0787879 C3.39393939,21.9560727 4.30758788,21.0424242 5.43030303,21.0424242 L24.4363636,21.0424242 C25.5590788,21.0424242 26.4727273,21.9560727 26.4727273,23.0787879 L26.4727273,25.1151515 Z" id="Fill-20"></path>
            <polygon id="Fill-22" points="15.6121212 25.1151515 14.2545455 25.1151515 14.2545455 17.6484848 15.6121212 17.6484848"></polygon>
            <path d="M12.8969697,25.7939394 C12.5222788,25.7939394 12.2181818,26.0987152 12.2181818,26.4727273 L12.2181818,29.8666667 C12.2181818,30.2406788 12.5222788,30.5454545 12.8969697,30.5454545 L16.969697,30.5454545 C17.3443879,30.5454545 17.6484848,30.2406788 17.6484848,29.8666667 L17.6484848,26.4727273 C17.6484848,26.0987152 17.3443879,25.7939394 16.969697,25.7939394 L12.8969697,25.7939394 Z M16.969697,31.9030303 L12.8969697,31.9030303 C11.7742545,31.9030303 10.8606061,30.9893818 10.8606061,29.8666667 L10.8606061,26.4727273 C10.8606061,25.3500121 11.7742545,24.4363636 12.8969697,24.4363636 L16.969697,24.4363636 C18.0924121,24.4363636 19.0060606,25.3500121 19.0060606,26.4727273 L19.0060606,29.8666667 C19.0060606,30.9893818 18.0924121,31.9030303 16.969697,31.9030303 L16.969697,31.9030303 Z" id="Fill-24"></path>
            <path d="M23.7575758,25.7939394 C23.3828848,25.7939394 23.0787879,26.0987152 23.0787879,26.4727273 L23.0787879,29.8666667 C23.0787879,30.2406788 23.3828848,30.5454545 23.7575758,30.5454545 L27.830303,30.5454545 C28.2049939,30.5454545 28.5090909,30.2406788 28.5090909,29.8666667 L28.5090909,26.4727273 C28.5090909,26.0987152 28.2049939,25.7939394 27.830303,25.7939394 L23.7575758,25.7939394 Z M27.830303,31.9030303 L23.7575758,31.9030303 C22.6348606,31.9030303 21.7212121,30.9893818 21.7212121,29.8666667 L21.7212121,26.4727273 C21.7212121,25.3500121 22.6348606,24.4363636 23.7575758,24.4363636 L27.830303,24.4363636 C28.9530182,24.4363636 29.8666667,25.3500121 29.8666667,26.4727273 L29.8666667,29.8666667 C29.8666667,30.9893818 28.9530182,31.9030303 27.830303,31.9030303 L27.830303,31.9030303 Z" id="Fill-25"></path>
            <path d="M2.03636364,25.7939394 C1.66167273,25.7939394 1.35757576,26.0987152 1.35757576,26.4727273 L1.35757576,29.8666667 C1.35757576,30.2406788 1.66167273,30.5454545 2.03636364,30.5454545 L6.10909091,30.5454545 C6.48378182,30.5454545 6.78787879,30.2406788 6.78787879,29.8666667 L6.78787879,26.4727273 C6.78787879,26.0987152 6.48378182,25.7939394 6.10909091,25.7939394 L2.03636364,25.7939394 Z M6.10909091,31.9030303 L2.03636364,31.9030303 C0.913648485,31.9030303 0,30.9893818 0,29.8666667 L0,26.4727273 C0,25.3500121 0.913648485,24.4363636 2.03636364,24.4363636 L6.10909091,24.4363636 C7.23180606,24.4363636 8.14545455,25.3500121 8.14545455,26.4727273 L8.14545455,29.8666667 C8.14545455,30.9893818 7.23180606,31.9030303 6.10909091,31.9030303 L6.10909091,31.9030303 Z" id="Fill-26"></path>
            <path d="M5.43030303,14.2545455 L24.4363636,14.2545455 L24.4363636,4.07272727 L5.43030303,4.07272727 L5.43030303,14.2545455 Z M25.1151515,15.6121212 L4.75151515,15.6121212 C4.37614545,15.6121212 4.07272727,15.3080242 4.07272727,14.9333333 L4.07272727,3.39393939 C4.07272727,3.01924848 4.37614545,2.71515152 4.75151515,2.71515152 L25.1151515,2.71515152 C25.4905212,2.71515152 25.7939394,3.01924848 25.7939394,3.39393939 L25.7939394,14.9333333 C25.7939394,15.3080242 25.4905212,15.6121212 25.1151515,15.6121212 L25.1151515,15.6121212 Z" id="Fill-27"></path>
            <path d="M3.39393939,1.35757576 C3.01924848,1.35757576 2.71515152,1.66235152 2.71515152,2.03636364 L2.71515152,16.2909091 C2.71515152,16.6649212 3.01924848,16.969697 3.39393939,16.969697 L26.4727273,16.969697 C26.8474182,16.969697 27.1515152,16.6649212 27.1515152,16.2909091 L27.1515152,2.03636364 C27.1515152,1.66235152 26.8474182,1.35757576 26.4727273,1.35757576 L3.39393939,1.35757576 Z M26.4727273,18.3272727 L3.39393939,18.3272727 C2.27122424,18.3272727 1.35757576,17.4136242 1.35757576,16.2909091 L1.35757576,2.03636364 C1.35757576,0.913648485 2.27122424,0 3.39393939,0 L26.4727273,0 C27.5954424,0 28.5090909,0.913648485 28.5090909,2.03636364 L28.5090909,16.2909091 C28.5090909,17.4136242 27.5954424,18.3272727 26.4727273,18.3272727 L26.4727273,18.3272727 Z" id="Fill-28"></path>
        </g>
    </g>
</svg>