<?xml version="1.0" encoding="UTF-8"?>
<svg width="31px" height="32px" viewBox="0 0 31 32" version="1.1" xmlns="http://www.w3.org/2000/svg" xmlns:xlink="http://www.w3.org/1999/xlink">
    <!-- Generator: Sketch 40.3 (33839) - http://www.bohemiancoding.com/sketch -->
    <title>per</title>
    <desc>Created with Sketch.</desc>
    <defs>
        <polygon id="path-1" points="0 0.253276596 31.0405934 0.253276596 31.0405934 32 0 32"></polygon>
    </defs>
    <g id="Page-1" stroke="none" stroke-width="1" fill="none" fill-rule="evenodd">
        <g id="per">
            <path d="M8.80031509,12.3623489 C8.83407468,12.3841362 8.87256061,12.4072851 8.91172174,12.4317957 C9.22771151,12.6306043 9.45660153,12.773583 9.5423509,13.0745191 C9.88399795,14.2700936 12.2005811,18.7249021 15.3300951,18.7249021 C18.4602844,18.7249021 20.7768675,14.2700936 21.1191898,13.0738383 C21.2042639,12.773583 21.433154,12.6306043 21.7491437,12.4324766 C21.7883049,12.4072851 21.8267908,12.3841362 21.8605504,12.3630298 C22.7119673,10.7977532 22.566801,10.1100936 22.4614711,9.88473191 C22.3372358,9.6164766 22.0820133,9.54975319 22.0799877,9.54907234 C21.7457678,9.48711489 21.5094506,9.18413617 21.5276808,8.84234894 C21.5290312,8.82464681 21.6161309,7.06260426 21.1921105,5.44558298 C21.1502486,5.29511489 20.0766936,1.61511489 15.3300951,1.61511489 C10.5483867,1.61511489 9.47820767,5.41085957 9.4680798,5.44898723 C9.04405934,7.06260426 9.13183427,8.82464681 9.13318465,8.84234894 C9.15141483,9.18413617 8.91442251,9.48711489 8.58087775,9.54907234 C8.56737391,9.55315745 8.3128266,9.62124255 8.19196726,9.90107234 C8.09271407,10.1291574 7.95970128,10.8195404 8.80031509,12.3623489 M15.3300951,20.0866043 C11.5659008,20.0866043 8.93535345,15.5174128 8.30877545,13.6566468 C8.27366547,13.6348596 8.23585473,13.6117106 8.19871918,13.5885617 C7.95362455,13.4346894 7.79157852,13.3332426 7.68624859,13.1432851 C6.78284194,11.5310298 6.54314885,10.2401362 6.97527161,9.30805106 C7.18323069,8.85937021 7.49787008,8.59043404 7.77402353,8.42975319 C7.77267315,7.73324255 7.82263734,6.39537021 8.16360921,5.09766809 C8.17711304,5.0459234 9.5254711,0.253412766 15.3300951,0.253412766 C21.1353944,0.253412766 22.4837524,5.0459234 22.4965811,5.09426383 C22.8382281,6.39468936 22.8881923,7.73324255 22.8868419,8.42975319 C23.1623202,8.59043404 23.4776348,8.85937021 23.6849187,9.30805106 C24.1177166,10.2401362 23.8780235,11.5310298 22.9739417,13.1453277 C22.8699621,13.3332426 22.7079161,13.4346894 22.4614711,13.5885617 C22.4250107,13.6123915 22.3872,13.6348596 22.35209,13.6573277 C21.7248368,15.5187745 19.0942895,20.0866043 15.3300951,20.0866043" id="Fill-1" fill="#48C0EB"></path>
            <path d="M13.4999202,32 C5.92629361,32 0.742170844,30.6934468 0.508554476,30.6335319 C0.19796624,30.5538723 -0.0147191816,30.2638298 0.000810230179,29.9411064 C0.324902302,23.0760851 4.5657821,20.9443404 7.72770537,19.9380426 C10.1718997,19.1605106 11.4885238,17.8798298 11.5020276,17.8668936 C11.7680532,17.6040851 12.1954496,17.6074894 12.4560737,17.874383 C12.7166977,18.1419574 12.7146721,18.5708936 12.4506721,18.8357447 C12.3892297,18.8970213 10.9105596,20.3533617 8.13417084,21.2364255 C5.04044194,22.2209362 1.84543427,23.972766 1.38697903,29.4386383 C3.05267724,29.8001702 8.38196624,30.8071489 15.3114598,30.6124255 C16.3566568,30.5831489 19.4881964,30.4837447 19.4881964,30.4837447 L19.5300583,31.844766 C19.5300583,31.844766 16.3958179,31.9441702 15.3492706,31.9734468 C14.7186414,31.9918298 14.1015161,32 13.4999202,32" id="Fill-3" fill="#48C0EB"></path>
            <path d="M21.2211437,20.0947745 C21.1536246,20.0947745 21.0854302,20.0845617 21.017911,20.0627745 C18.2928368,19.1953702 18.1753535,18.9053277 18.0619212,18.624817 C17.9856246,18.4369021 17.9950772,18.208817 18.0896041,18.030434 C18.2658292,17.6981787 18.6749954,17.5742638 19.0038138,17.7512851 C19.0902384,17.7982638 19.1624839,17.8609021 19.2192,17.934434 C19.367067,18.0209021 19.8748113,18.2714553 21.4237013,18.7643915 C21.7795274,18.8774128 21.9766834,19.2600511 21.8646015,19.6181787 C21.7734506,19.9089021 21.5074251,20.0947745 21.2211437,20.0947745" id="Fill-5" fill="#48C0EB"></path>
            <g id="Group-9">
                <mask id="mask-2" fill="white">
                    <use xlink:href="#path-1"></use>
                </mask>
                <g id="Clip-8"></g>
                <path d="M24.6976389,30.411234 L25.5308256,30.411234 L25.7192041,28.8949787 C25.8036031,28.2148085 26.3788665,27.7021277 27.0581095,27.7021277 C27.1931478,27.7021277 27.327511,27.7225532 27.4571478,27.7627234 L29.0857105,28.2699574 L29.5070302,27.4624681 L28.4206465,26.594383 C28.1073575,26.3445106 27.9210046,25.9693617 27.9095263,25.5662979 C27.8980481,25.1625532 28.0634701,24.7778723 28.3625801,24.5089362 L29.3983243,23.5809362 L28.9317668,22.7993191 L27.5084624,23.3331064 C27.3565442,23.389617 27.1985494,23.4182128 27.0378537,23.4182128 C26.3586107,23.4182128 25.7826721,22.9055319 25.6982731,22.2253617 L25.5308256,20.8793191 L24.6976389,20.8793191 L24.5099355,22.3955745 C24.4086568,23.2105532 23.5558895,23.7715745 22.7713166,23.5278298 L21.1434292,23.0205957 L20.7214343,23.8280851 L21.8078179,24.6961702 C22.1217821,24.9467234 22.3074598,25.3211915 22.3189381,25.7249362 C22.3304164,26.128 22.1649944,26.5133617 21.8658844,26.781617 L20.8301402,27.709617 L21.2966977,28.491234 L22.7206772,27.9574468 C22.8719202,27.9009362 23.0305903,27.8723404 23.1912859,27.8723404 C23.8705289,27.8723404 24.4464675,28.3850213 24.5308665,29.0651915 L24.6976389,30.411234 Z M26.1270199,31.7729362 L24.1014445,31.7729362 C23.7611478,31.7729362 23.4741913,31.5169362 23.4316542,31.1765106 L23.1912859,29.2340426 L21.241332,29.9645957 C20.9374957,30.0796596 20.5944982,29.9571064 20.4277258,29.6772766 L19.3845545,27.9268085 C19.2171069,27.645617 19.2717974,27.284766 19.5148665,27.0668936 L20.9692297,25.7630638 L19.4439714,24.5443404 C19.189424,24.340766 19.1144777,23.9833191 19.2657207,23.6932766 L20.2096389,21.8862979 C20.3608818,21.5962553 20.6964522,21.4553191 21.0063652,21.5526809 L23.1696798,22.2267234 L23.4316542,20.1140426 C23.4741913,19.7729362 23.7611478,19.517617 24.1014445,19.517617 L26.1270199,19.517617 C26.4679918,19.517617 26.7549483,19.7729362 26.7968102,20.1140426 L27.0378537,22.0565106 L28.9871325,21.3259574 C29.291644,21.2108936 29.633291,21.332766 29.8007386,21.6132766 L30.8445852,23.3637447 C31.0120327,23.6449362 30.956667,24.0057872 30.7142731,24.2236596 L29.2592348,25.5274894 L30.7851683,26.7462128 C31.0397156,26.9497872 31.1139867,27.307234 30.9627437,27.5972766 L30.0188256,29.4042553 C29.8675826,29.6942979 29.5313371,29.8345532 29.2227744,29.7378723 L27.0587847,29.0638298 L26.7968102,31.1765106 C26.7549483,31.5169362 26.4679918,31.7729362 26.1270199,31.7729362 L26.1270199,31.7729362 Z" id="Fill-7" fill="#48C0EB" mask="url(#mask-2)"></path>
            </g>
        </g>
    </g>
</svg>